<svg width="1435" height="1104" viewBox="0 0 1435 1104" fill="none" xmlns="http://www.w3.org/2000/svg">
<g filter="url(#filter0_d)">
<path d="M1063.1 407.965L1051.8 398.941C1049.46 397.053 1046.87 396.285 1045.4 393.277C1043.77 389.597 1044.06 385.373 1042.2 381.757C1042.05 381.338 1041.8 380.96 1041.47 380.657C1041.15 380.353 1040.75 380.133 1040.32 380.013C1039.89 379.894 1039.44 379.88 1039.01 379.972C1038.57 380.064 1038.16 380.259 1037.82 380.541C1037.26 381.324 1036.89 382.227 1036.75 383.178C1036.6 384.129 1036.68 385.1 1036.98 386.013C1034.95 384.629 1032.53 383.934 1030.07 384.029C1028.72 384.315 1027.5 385.031 1026.59 386.069C1025.68 387.107 1025.12 388.412 1025.02 389.789C1024.54 393.565 1027.45 396.541 1029.66 399.389C1034.77 405.781 1040.4 411.743 1046.49 417.213C1047.54 418.141 1058.01 426.077 1057.72 427.197L1063.1 407.965Z" fill="#FFB5A9"/>
<path d="M1057.72 401.213L1051.83 398.973L1044.12 415.933L1049.21 423.101" fill="#E87256"/>
<path d="M697.336 990.108L122.2 650.204C103.896 639.964 88.1842 623.036 106.04 611.964L683.224 279.164C691.896 273.788 705.048 270.268 713.848 275.388L1317.4 625.916C1335.7 636.54 1339 666.236 1320.6 676.892L773.144 989.564C761.645 996.236 748.606 999.795 735.312 999.89C722.019 999.985 708.93 996.614 697.336 990.108V990.108Z" fill="#FD5773"/>
<path d="M266.392 642.333C267.011 641.678 267.78 641.183 268.632 640.893C265.362 627.35 258.611 614.897 249.048 604.765L237.752 605.949L157.4 647.101L223.352 678.685L256.248 659.485C258.567 653.202 262.004 647.391 266.392 642.333V642.333Z" fill="url(#paint0_linear)"/>
<path d="M523.896 636.061L410.264 701.981L344.312 670.397L424.664 629.181L494.68 621.789" fill="url(#paint1_linear)"/>
<path d="M978.52 718.171L864.888 784.059L798.936 752.507L879.288 711.291L949.336 703.899" fill="url(#paint2_linear)"/>
<path d="M1131.26 748.285L1019.96 815.581L954.04 783.997L1034.39 742.781L1104.41 735.389" fill="url(#paint3_linear)"/>
<path d="M545.048 817.917L482.2 862.941L663.96 970.365L844.184 859.869" fill="url(#paint4_linear)"/>
<path d="M814.264 382.333C814.264 382.333 778.328 392.573 788.888 457.757L867.64 407.453C867.64 407.453 835.768 376.125 814.264 382.333Z" fill="#459FFF"/>
<path opacity="0.39" d="M814.264 382.333C814.264 382.333 778.328 392.573 788.888 457.757L867.64 407.453C867.64 407.453 835.768 376.125 814.264 382.333Z" fill="#06489E"/>
<path d="M192.504 572.764C192.504 572.764 179.192 663.804 236.504 664.124C291.576 664.284 277.4 571.548 277.4 571.548C277.4 571.548 237.336 536.7 192.504 572.764Z" fill="#459FFF"/>
<path d="M234.776 590.141C258.175 590.141 277.144 582.304 277.144 572.637C277.144 562.97 258.175 555.133 234.776 555.133C211.377 555.133 192.408 562.97 192.408 572.637C192.408 582.304 211.377 590.141 234.776 590.141Z" fill="#459FFF"/>
<path opacity="0.7" d="M234.776 590.141C258.175 590.141 277.144 582.304 277.144 572.637C277.144 562.97 258.175 555.133 234.776 555.133C211.377 555.133 192.408 562.97 192.408 572.637C192.408 582.304 211.377 590.141 234.776 590.141Z" fill="black"/>
<path d="M168.088 439.71C168.088 439.71 138.552 432.638 149.88 408.062C149.912 408.03 170.232 412.062 168.088 439.71Z" fill="#938F05"/>
<path d="M186.072 464.476C186.072 464.476 181.976 443.484 198.36 435.164C198.36 435.164 211.544 457.02 186.072 464.476Z" fill="#938F05"/>
<path d="M204.472 496.67C204.472 496.67 199.576 471.55 219.192 461.47C219.192 461.438 234.968 487.742 204.472 496.67Z" fill="#938F05"/>
<path d="M218.744 531.741C218.744 531.741 213.848 506.621 233.464 496.541C233.464 496.477 249.24 522.813 218.744 531.741Z" fill="#938F05"/>
<path d="M184.28 465.052C184.28 465.052 173.848 446.364 155.864 450.492C155.8 450.46 159.96 475.772 184.28 465.052Z" fill="#938F05"/>
<path d="M202.936 497.435C202.936 497.435 189.592 475.579 168.28 481.435C168.28 481.339 174.392 511.419 202.936 497.435Z" fill="#938F05"/>
<path d="M217.112 532.061C217.112 532.061 201.464 511.805 180.888 519.869C180.888 519.869 190.264 549.085 217.112 532.061Z" fill="#938F05"/>
<path d="M228.152 590.366H228.568C229.951 590.332 231.334 590.439 232.696 590.686C232.71 590.547 232.71 590.408 232.696 590.27C226.221 534.13 204.162 480.923 169.016 436.67C167.192 434.366 163.928 437.63 165.816 439.87C200.188 483.224 221.777 535.312 228.152 590.27V590.366Z" fill="#42352F"/>
<path d="M298.04 479.964C298.04 479.964 323.384 473.884 313.656 452.796C313.624 452.636 296.216 456.092 298.04 479.964Z" fill="#938F05"/>
<path d="M282.615 501.053C282.615 501.053 286.135 483.037 272.056 475.773C272.056 475.773 260.76 494.653 282.615 501.053Z" fill="#938F05"/>
<path d="M266.84 528.701C266.84 528.701 271.032 507.165 254.2 498.461C254.2 498.429 240.664 521.021 266.84 528.701Z" fill="#938F05"/>
<path d="M254.585 558.781C254.585 558.781 258.777 537.245 241.945 528.541C241.945 528.509 228.409 551.101 254.585 558.781Z" fill="#938F05"/>
<path d="M284.152 501.533C284.152 501.533 293.08 485.533 308.536 489.021C308.536 489.053 305.016 510.749 284.152 501.533Z" fill="#938F05"/>
<path d="M268.152 529.34C268.152 529.34 279.576 510.588 297.88 515.516C297.88 515.548 292.632 541.34 268.152 529.34Z" fill="#938F05"/>
<path d="M255.992 559.036C255.992 559.036 269.432 541.66 287.064 548.572C287 548.572 279.032 573.628 255.992 559.036Z" fill="#938F05"/>
<path d="M297.239 477.116C271.078 509.998 253.288 548.739 245.399 590.012C246.743 589.788 248.119 589.596 249.495 589.468C257.338 549.451 274.666 511.899 300.023 479.964C301.591 477.948 298.807 475.132 297.239 477.116Z" fill="#42352F"/>
<path d="M435.128 215.517L641.112 98.5572C643.116 97.4331 645.375 96.8428 647.672 96.8428C649.97 96.8428 652.228 97.4331 654.232 98.5572V98.5572L668.312 105.949L661.144 108.061C661.281 108.811 661.356 109.571 661.368 110.333L665.304 523.741C665.36 529.538 663.861 535.244 660.963 540.264C658.064 545.284 653.872 549.436 648.824 552.285L442.008 669.053C441.592 669.277 441.165 669.48 440.728 669.661L443.32 676.061L430.52 669.661C429.658 669.318 428.832 668.89 428.056 668.381V668.381C426.188 667.158 424.656 665.486 423.599 663.519C422.543 661.551 421.996 659.35 422.008 657.117V238.461C421.983 233.82 423.182 229.255 425.486 225.227C427.79 221.198 431.116 217.849 435.128 215.517Z" fill="#2C2CB5"/>
<path d="M662.008 558.523L455.192 675.163C453.129 676.325 450.797 676.926 448.43 676.908C446.062 676.889 443.74 676.251 441.695 675.057C439.65 673.863 437.953 672.155 436.773 670.102C435.593 668.049 434.971 665.723 434.968 663.355V244.795C434.971 240.138 436.207 235.565 438.551 231.54C440.895 227.516 444.263 224.184 448.312 221.883L654.296 104.923C656.351 103.759 658.674 103.151 661.036 103.16C663.398 103.169 665.716 103.794 667.762 104.974C669.808 106.154 671.511 107.847 672.702 109.887C673.893 111.927 674.531 114.242 674.552 116.603L678.488 530.011C678.539 535.803 677.037 541.502 674.139 546.516C671.24 551.53 667.052 555.676 662.008 558.523V558.523Z" fill="#5F5CEA"/>
<path d="M663.96 533.788L451.64 653.66V255.324L660.184 136.956L663.96 533.788Z" fill="#E2F2EE"/>
<path d="M504.855 630.654C494.295 566.654 485.655 496.798 484.279 481.47C481.431 451.55 502.711 418.238 502.711 418.238C502.711 418.238 575.191 410.526 593.527 445.534C601.527 460.798 607.511 511.774 611.703 564.446C577.111 588.158 540.087 607.966 504.855 630.654Z" fill="#963626"/>
<path d="M568.248 591.966L558.424 487.198C558.136 483.998 562.968 483.998 563.256 487.198L572.856 589.214L568.248 591.966Z" fill="#663A12"/>
<path opacity="0.59" d="M546.2 462.524C562.713 459.446 578.257 452.48 591.544 442.204L590.872 441.084C527.64 441.084 502.808 418.204 502.808 418.204C493.298 432.909 487.137 449.526 484.76 466.876C505.341 467.922 525.972 466.461 546.2 462.524V462.524Z" fill="#663A12"/>
<path d="M777.944 330.781C772.587 329.433 767.129 328.523 761.624 328.061C767.223 328.123 772.804 328.701 778.296 329.789C784.024 330.717 784.696 321.693 778.968 320.765L776.12 320.317C776.643 319.674 776.986 318.904 777.115 318.085C777.245 317.267 777.155 316.428 776.857 315.655C776.558 314.883 776.06 314.202 775.414 313.683C774.768 313.165 773.996 312.826 773.176 312.701C760.606 311.158 747.85 312.325 735.768 316.125C736.099 311.561 736.014 306.977 735.512 302.429C735.433 301.641 735.121 300.895 734.616 300.285C733.528 296.413 726.52 296.509 725.656 301.501C724.408 308.765 724.792 316.157 723.544 323.325C723.303 324.627 722.972 325.91 722.552 327.165C717.027 333.032 711.576 338.898 706.2 344.765C702.392 348.989 709.4 353.981 713.304 350.237C713.898 351.127 714.745 351.818 715.736 352.221L715.064 353.117C714.629 353.69 714.355 354.369 714.271 355.084C714.186 355.798 714.294 356.522 714.584 357.181L713.944 357.821C709.816 361.885 715.608 368.829 719.768 364.765L721.208 363.325C721.644 363.614 722.136 363.806 722.653 363.889C723.169 363.971 723.697 363.941 724.2 363.801C724.704 363.662 725.172 363.416 725.572 363.079C725.973 362.743 726.296 362.325 726.52 361.853C730.033 356.167 734.834 351.388 740.536 347.901L742.296 346.685C747.206 345.02 752.32 344.03 757.496 343.741C761.336 344.701 765.176 345.885 768.952 346.941C770.018 347.269 771.168 347.191 772.18 346.722C773.192 346.252 773.994 345.425 774.431 344.399C774.869 343.373 774.911 342.221 774.549 341.166C774.187 340.111 773.447 339.227 772.472 338.685L774.936 339.229C780.472 340.733 783.608 332.221 777.944 330.781Z" fill="#FFC388"/>
<path d="M776.856 319.132C770.897 318.325 764.878 318.057 758.872 318.332C757.4 318.332 757.208 320.7 758.712 320.636C764.718 320.361 770.737 320.629 776.696 321.436C778.136 321.628 778.328 319.324 776.856 319.132Z" fill="#663A12"/>
<path d="M777.688 328.285C771.332 327.34 764.913 326.891 758.488 326.941C757.016 326.941 756.824 329.245 758.328 329.245C764.753 329.195 771.172 329.644 777.528 330.589C779 330.813 779.16 328.509 777.688 328.285Z" fill="#663A12"/>
<path d="M752.216 331.325C744.856 328.829 737.72 331.325 731.448 335.261C730.2 336.061 731.704 337.821 732.92 337.021C735.518 335.037 738.542 333.686 741.752 333.075C744.963 332.464 748.272 332.609 751.416 333.501C751.705 333.607 752.024 333.594 752.303 333.465C752.582 333.336 752.798 333.101 752.904 332.813C753.011 332.524 752.998 332.205 752.869 331.926C752.74 331.647 752.505 331.431 752.216 331.325V331.325Z" fill="#663A12"/>
<path d="M755.896 330.779C754.712 325.563 752.472 320.475 747.224 318.299C745.848 317.723 745.08 319.899 746.456 320.475C750.904 322.331 752.664 326.875 753.624 331.195C753.944 332.763 756.216 332.219 755.896 330.779Z" fill="#663A12"/>
<path d="M774.424 336.701C769.733 334.621 764.744 333.293 759.64 332.765C758.168 332.605 757.976 334.909 759.48 335.069C764.379 335.607 769.163 336.913 773.656 338.941C775 339.485 775.768 337.309 774.424 336.701Z" fill="#663A12"/>
<path d="M717.336 328.317C704.945 336.921 693.074 346.249 681.784 356.253L675.672 318.877L630.424 333.501C630.424 333.501 640.024 392.413 653.56 407.613C653.56 407.613 665.848 424.925 688.76 412.733C704.984 404.061 730.616 372.573 742.904 353.789C740.556 348.052 737.085 342.844 732.694 338.469C728.303 334.095 723.081 330.643 717.336 328.317Z" fill="#459FFF"/>
<path opacity="0.39" d="M717.336 328.317C704.945 336.921 693.074 346.249 681.784 356.253L675.672 318.877L630.424 333.501C630.424 333.501 640.024 392.413 653.56 407.613C653.56 407.613 665.848 424.925 688.76 412.733C704.984 404.061 730.616 372.573 742.904 353.789C740.556 348.052 737.085 342.844 732.694 338.469C728.303 334.095 723.081 330.643 717.336 328.317Z" fill="#06489E"/>
<path d="M624.312 284.124C621.912 283.516 602.072 286.876 584.824 292.476C567.576 298.076 492.856 407.324 502.68 418.268C512.504 429.212 558.648 450.972 586.392 444.956C614.136 438.94 678.744 331.164 675.704 318.908C668.76 290.844 647.064 290.748 647.064 290.748" fill="#459FFF"/>
<path d="M676.152 260.477C676.152 260.477 672.952 301.821 656.792 306.077C640.632 310.333 627.992 292.029 625.048 282.301C622.104 272.573 626.2 227.165 652.92 235.773C679.64 244.381 676.152 260.477 676.152 260.477Z" fill="#FFC388"/>
<path d="M674.424 228.124C663.032 224.156 649.88 215.612 629.624 228.988C609.368 242.364 603.096 279.516 627.288 288.476L631.864 275.164C629.731 272.443 628.723 269.007 629.048 265.564C629.104 264.438 629.403 263.337 629.923 262.337C630.444 261.336 631.174 260.46 632.064 259.767C632.954 259.075 633.983 258.582 635.08 258.324C636.178 258.065 637.319 258.046 638.424 258.268C640.948 256.393 643.006 253.962 644.44 251.164C648.536 243.068 653.144 247.068 659.16 254.364C665.176 261.66 677.944 263.74 684.28 259.164C690.616 254.588 688.856 233.148 674.424 228.124Z" fill="#AF5912"/>
<path d="M637.721 404.348C637.721 404.348 613.688 384.316 613.688 375.548C613.688 366.78 626.2 302.652 605.528 297.564C584.856 292.476 568.088 340.988 562.2 369.532C556.312 398.076 599.8 428.444 599.8 428.444" fill="#459FFF"/>
<path d="M671.512 406.653L697.592 397.597C697.592 397.597 715.416 383.709 723.704 389.437C725.912 390.973 706.392 404.125 706.392 404.125C706.392 404.125 740.472 397.437 741.592 404.317C743.608 417.693 730.712 436.925 715.992 435.325C700.051 433.253 684.231 430.337 668.6 426.589" fill="#FFC388"/>
<path d="M695.064 396.765C680.568 392.861 659.032 395.197 638.872 393.917C612.984 393.917 583.576 391.229 585.656 418.845C587.96 449.565 672.056 440.829 696.12 437.693C700.664 424.445 699.352 410.237 695.064 396.765Z" fill="#459FFF"/>
<path opacity="0.39" d="M601.656 435.452C601.656 435.452 569.081 424.988 565.625 397.276C562.169 369.564 561.625 346.076 561.625 346.076C561.625 346.076 539.064 399.964 547.832 417.66C556.6 435.356 601.656 435.452 601.656 435.452Z" fill="#06489E"/>
<path opacity="0.39" d="M639 393.755C639 393.755 612.184 390.555 613.816 375.579C615.448 360.603 624.184 338.939 624.184 338.939C624.184 338.939 611.448 387.451 639 393.755Z" fill="#06489E"/>
<path d="M524.632 416.445L583.32 382.589C584.668 381.807 586.198 381.394 587.757 381.393C589.316 381.391 590.847 381.8 592.197 382.579C593.547 383.358 594.668 384.479 595.447 385.829C596.225 387.179 596.634 388.711 596.632 390.269V428.349C596.632 429.896 596.227 431.415 595.458 432.757C594.689 434.099 593.582 435.216 592.248 435.997L533.56 470.557C532.212 471.354 530.678 471.78 529.113 471.791C527.547 471.803 526.007 471.4 524.648 470.623C523.289 469.846 522.16 468.723 521.376 467.368C520.592 466.013 520.18 464.475 520.184 462.909V424.157C520.179 422.594 520.588 421.057 521.369 419.702C522.15 418.348 523.276 417.224 524.632 416.445V416.445Z" fill="#ED1C24"/>
<path d="M552.919 412.284C552.919 418.684 552.919 437.34 552.919 444.54C552.922 444.798 552.998 445.051 553.137 445.268C553.277 445.486 553.475 445.66 553.709 445.77C553.942 445.88 554.202 445.922 554.459 445.891C554.716 445.861 554.958 445.758 555.159 445.596L579.063 425.788C579.236 425.642 579.37 425.456 579.453 425.246C579.537 425.036 579.567 424.808 579.542 424.584C579.516 424.359 579.436 424.144 579.308 423.958C579.18 423.772 579.008 423.62 578.807 423.516L554.935 411.068C554.726 410.958 554.491 410.904 554.255 410.911C554.018 410.918 553.787 410.986 553.585 411.108C553.382 411.23 553.214 411.403 553.098 411.609C552.981 411.815 552.92 412.047 552.919 412.284Z" fill="white"/>
<path d="M467.288 630.365L650.456 524.765C651.008 524.442 651.409 523.914 651.571 523.296C651.733 522.678 651.643 522.02 651.32 521.469C650.998 520.917 650.469 520.516 649.851 520.354C649.233 520.192 648.576 520.282 648.024 520.605L464.856 626.205C464.304 626.527 463.903 627.056 463.741 627.674C463.579 628.292 463.669 628.949 463.992 629.501C464.314 630.052 464.843 630.453 465.461 630.615C466.079 630.777 466.736 630.687 467.288 630.365V630.365Z" fill="#B3B3B3"/>
<path d="M471.783 628.612C472.788 625.113 471.455 621.659 468.805 620.898C466.155 620.136 463.192 622.356 462.187 625.855C461.182 629.354 462.515 632.808 465.165 633.569C467.814 634.33 470.777 632.111 471.783 628.612Z" fill="#3C6071"/>
<path d="M1078.33 657.981C1044.28 682.621 1005.43 701.501 969.528 722.461C943.608 737.565 917.848 752.925 891.992 768.125C810.264 704.541 854.296 598.749 854.68 513.853C854.68 484.477 854.264 453.789 846.296 425.309C843.384 414.909 839.448 403.933 832.312 395.613C829.112 391.997 806.392 378.077 800.6 381.501L841.208 360.509C843.64 359.069 848.984 356.765 851.416 355.325C865.208 347.165 882.936 338.749 896.696 330.589C913.688 320.509 923.928 316.765 940.92 306.717L960.12 295.261C965.656 292.061 972.216 286.621 979.16 288.189C985.368 289.597 991.16 295.005 995.16 299.677C1002.3 307.997 1006.23 318.877 1009.14 329.373C1017.14 357.853 1017.66 388.541 1017.53 417.917C1017.24 506.621 980.088 597.085 1078.33 657.981Z" fill="#459FFF"/>
<path d="M893.721 452.572C901.585 452.572 907.96 443.833 907.96 433.052C907.96 422.272 901.585 413.532 893.721 413.532C885.856 413.532 879.48 422.272 879.48 433.052C879.48 443.833 885.856 452.572 893.721 452.572Z" fill="white"/>
<path d="M917.401 413.629L993.881 368.637C994.797 368.102 995.464 367.225 995.734 366.199C996.004 365.173 995.855 364.081 995.321 363.165C994.786 362.248 993.909 361.581 992.883 361.311C991.857 361.041 990.765 361.19 989.849 361.725L913.273 406.717C912.356 407.251 911.689 408.128 911.419 409.154C911.149 410.181 911.298 411.272 911.833 412.189C912.367 413.105 913.244 413.772 914.27 414.042C915.297 414.312 916.388 414.163 917.305 413.629H917.401Z" fill="#F2F2F2"/>
<path d="M923.512 428.54L972.088 400.7C973.004 400.166 973.671 399.289 973.941 398.262C974.211 397.236 974.062 396.145 973.528 395.228C972.993 394.312 972.116 393.645 971.09 393.375C970.064 393.105 968.972 393.254 968.056 393.788L919.48 421.628C919.026 421.893 918.629 422.244 918.311 422.663C917.993 423.081 917.76 423.558 917.626 424.066C917.493 424.574 917.46 425.104 917.531 425.624C917.602 426.145 917.775 426.646 918.04 427.1C918.304 427.554 918.656 427.951 919.074 428.269C919.493 428.587 919.969 428.82 920.477 428.953C920.986 429.087 921.515 429.12 922.036 429.049C922.556 428.978 923.058 428.805 923.512 428.54V428.54Z" fill="#F2F2F2"/>
<path d="M905.64 521.222C907.797 510.66 903.298 500.822 895.593 499.248C887.887 497.675 879.892 504.962 877.736 515.525C875.579 526.088 880.077 535.926 887.783 537.499C895.488 539.072 903.483 531.785 905.64 521.222Z" fill="white"/>
<path d="M915.192 504.029L991.768 459.037C992.59 458.465 993.167 457.606 993.387 456.63C993.606 455.653 993.451 454.63 992.953 453.761C992.455 452.893 991.649 452.244 990.695 451.941C989.741 451.638 988.708 451.703 987.8 452.125L911 497.117C910.084 497.651 909.417 498.528 909.147 499.554C908.877 500.581 909.025 501.672 909.56 502.589C910.095 503.505 910.972 504.172 911.998 504.442C913.024 504.712 914.116 504.563 915.032 504.029H915.192Z" fill="#F2F2F2"/>
<path d="M921.4 518.941L969.976 491.101C970.893 490.566 971.559 489.689 971.829 488.663C972.099 487.637 971.951 486.545 971.416 485.629C970.881 484.712 970.005 484.045 968.978 483.775C967.952 483.505 966.861 483.654 965.944 484.189L917.4 511.965C916.484 512.499 915.817 513.376 915.547 514.402C915.277 515.429 915.425 516.52 915.96 517.437C916.495 518.353 917.372 519.02 918.398 519.29C919.424 519.56 920.516 519.411 921.432 518.877L921.4 518.941Z" fill="#F2F2F2"/>
<path d="M896.055 603.318C899.09 592.973 895.432 582.793 887.886 580.579C880.339 578.365 871.762 584.956 868.727 595.301C865.692 605.645 869.35 615.826 876.896 618.04C884.443 620.254 893.02 613.663 896.055 603.318Z" fill="white"/>
<path d="M905.848 587.42L982.424 542.428C983.341 541.893 984.007 541.016 984.277 539.99C984.547 538.964 984.399 537.872 983.864 536.956C983.329 536.039 982.453 535.373 981.426 535.102C980.4 534.832 979.309 534.981 978.392 535.516L901.816 580.508C900.9 581.042 900.233 581.919 899.963 582.946C899.693 583.972 899.841 585.063 900.376 585.98C900.911 586.896 901.788 587.563 902.814 587.833C903.84 588.103 904.932 587.954 905.848 587.42V587.42Z" fill="#F2F2F2"/>
<path d="M907.48 604.029L956.056 576.189C956.972 575.655 957.639 574.778 957.909 573.752C958.179 572.725 958.031 571.634 957.496 570.717C957.231 570.264 956.88 569.866 956.461 569.548C956.043 569.23 955.566 568.998 955.058 568.864C954.032 568.594 952.941 568.743 952.024 569.277L903.448 597.117C902.531 597.652 901.865 598.529 901.595 599.555C901.325 600.581 901.473 601.673 902.008 602.59C902.543 603.506 903.42 604.173 904.446 604.443C905.472 604.713 906.563 604.564 907.48 604.029V604.029Z" fill="#F2F2F2"/>
<path d="M891.416 694.429C899.28 694.429 905.656 685.689 905.656 674.909C905.656 664.128 899.28 655.389 891.416 655.389C883.551 655.389 877.176 664.128 877.176 674.909C877.176 685.689 883.551 694.429 891.416 694.429Z" fill="white"/>
<path d="M914.2 659.484L990.776 614.364C991.693 613.83 992.359 612.953 992.629 611.927C992.899 610.9 992.751 609.809 992.216 608.892C991.681 607.976 990.804 607.309 989.778 607.039C988.752 606.769 987.661 606.918 986.744 607.452L910.168 652.444C909.706 652.709 909.3 653.062 908.974 653.484C908.649 653.905 908.409 654.387 908.269 654.901C907.987 655.939 908.129 657.047 908.664 657.98C909.199 658.914 910.082 659.597 911.12 659.879C912.159 660.161 913.266 660.019 914.2 659.484V659.484Z" fill="#F2F2F2"/>
<path d="M920.888 673.404L969.464 645.564C970.381 645.03 971.047 644.153 971.317 643.127C971.587 642.101 971.439 641.009 970.904 640.092C970.369 639.176 969.493 638.509 968.466 638.239C967.44 637.969 966.349 638.118 965.432 638.652L916.856 666.492C915.939 667.027 915.273 667.904 915.003 668.93C914.733 669.956 914.881 671.048 915.416 671.965C915.951 672.881 916.828 673.548 917.854 673.818C918.88 674.088 919.972 673.939 920.888 673.404V673.404Z" fill="#F2F2F2"/>
<path d="M885.816 434.62L889.016 428.636C889.016 428.636 895.96 436.284 895.96 435.516C895.96 434.748 902.36 405.436 902.36 405.436L907.608 409.756L899.032 444.956L885.816 434.62Z" fill="#4EB300"/>
<path d="M1026.84 368.188C1026.84 368.188 1030.68 366.236 1035.8 370.364C1040.92 374.492 1038.07 377.084 1038.07 377.084C1038.07 377.084 1025.75 375.676 1026.84 368.188Z" fill="#AA4D56"/>
<path d="M928.888 518.366C929.656 517.982 932.408 516.254 933.208 515.934L1038.1 376.958C1038.1 376.958 1026.33 372.702 1026.87 368.062L920.888 505.566C919.992 508.03 919 510.43 917.944 512.862L924.728 520.478C926.002 519.571 927.404 518.859 928.888 518.366V518.366Z" fill="#7F252B"/>
<path d="M933.208 516.061C933.208 516.061 921.88 514.781 921.24 504.669L908.024 531.581L933.208 516.061Z" fill="#E8CA9A"/>
<path d="M908.024 531.58L915.16 516.956C915.461 518.599 916.319 520.088 917.59 521.172C918.861 522.256 920.466 522.869 922.136 522.908L908.024 531.58Z" fill="#7F252B"/>
<path d="M1101.24 461.053C1100.88 460.781 1100.6 460.412 1100.43 459.99C1100.27 459.567 1100.22 459.106 1100.31 458.66C1100.39 458.214 1100.6 457.8 1100.9 457.465C1101.21 457.13 1101.6 456.888 1102.04 456.765C1110.17 454.621 1119.7 453.565 1126.49 448.349C1140.89 436.957 1129.88 414.365 1121.98 402.493C1118.51 397.284 1114.42 392.523 1109.78 388.317C1109.43 387.997 1103.93 383.837 1103.96 383.677L1078.74 466.877L1070.01 473.277C1079.87 474.871 1089.9 475.13 1099.83 474.045C1099.81 469.675 1100.29 465.317 1101.24 461.053V461.053Z" fill="#E87256"/>
<path d="M1108.22 745.755L1118.68 739.964L1116.02 725.02C1116.02 725.02 1100.44 726.492 1099.06 732.028" fill="#003B94"/>
<path d="M1104.28 745.564C1101.91 744.124 1099.45 742.844 1097.05 741.532C1091 738.332 1082.26 734.78 1078.55 728.732C1077.81 727.485 1077.45 726.044 1077.54 724.594C1077.63 723.144 1078.15 721.754 1079.03 720.604C1084.54 713.98 1096.5 724.86 1102.65 717.404C1103.86 715.932 1104.41 692.924 1104.41 692.924L1127.74 699.324C1127.74 699.324 1131.7 745.596 1131.26 748.476C1130.81 751.356 1122.78 754.076 1122.78 754.076C1120.4 753.602 1118.12 752.714 1116.06 751.452C1113.62 749.66 1115.83 727.964 1112.86 731.004C1109.88 734.044 1108.38 745.916 1108.38 745.916C1107 745.975 1105.62 745.857 1104.28 745.564V745.564Z" fill="#459FFF"/>
<path d="M1063.58 768.124L1074.04 762.332L1071.38 747.388C1071.38 747.388 1055.8 748.86 1054.42 754.396" fill="#003B94"/>
<path d="M1059.64 767.964C1057.27 766.524 1054.81 765.244 1052.41 763.932C1046.36 760.732 1037.62 757.18 1033.91 751.132C1033.17 749.886 1032.81 748.444 1032.9 746.994C1032.98 745.545 1033.5 744.154 1034.39 743.004C1039.9 736.38 1051.86 747.26 1058.01 739.804C1059.22 738.332 1059.77 715.324 1059.77 715.324L1083.1 721.724C1083.1 721.724 1087.06 767.996 1086.62 770.876C1086.17 773.756 1078.14 776.476 1078.14 776.476C1075.76 776.002 1073.48 775.114 1071.42 773.852C1068.98 772.06 1071.19 750.364 1068.22 753.404C1065.24 756.444 1063.74 768.316 1063.74 768.316C1062.36 768.375 1060.98 768.257 1059.64 767.964Z" fill="#459FFF"/>
<path d="M1139.61 617.565L1146.36 709.501C1146.36 709.501 1135.45 724.605 1098.68 716.189L1098.33 654.205" fill="#FFB000"/>
<path d="M1097.05 635.869C1097.85 643.805 1097.05 731.101 1097.05 731.101C1097.05 731.101 1086.9 750.109 1042.65 731.101L1043.26 656.925" fill="#FFB000"/>
<path d="M1143.03 663.964C1140.02 666.044 1138.97 639.388 1135.83 641.212C1124.38 647.87 1112.22 653.236 1099.58 657.212H1099.29C1098.7 656.971 1098.04 656.966 1097.44 657.198C1096.84 657.43 1096.36 657.882 1096.09 658.46C1088.28 660.767 1080.32 662.574 1072.28 663.868C1061.94 665.532 1053.4 657.884 1042.81 657.468C1042.81 616.892 1042.62 501.244 1059.9 476.828L1111.1 459.74C1111.32 463.964 1135.93 492.444 1135.32 527.164C1134.65 566.3 1139.74 603.228 1140.6 615.452C1140.5 617.372 1142.94 661.756 1143.03 663.964Z" fill="#FFB000"/>
<path d="M1055 430.013L1059.74 476.573C1059.74 476.573 1097.88 478.109 1114.33 466.749V427.261" fill="#FF8F6F"/>
<path d="M1002.07 401.5L1005.98 406.812C1003.94 402.5 1002.14 398.077 1000.6 393.564C999.512 390.364 1004.47 389.244 1005.56 392.316L1006.14 393.884C1005.67 392.242 1005.22 390.588 1004.79 388.924C1004.66 388.279 1004.78 387.608 1005.13 387.051C1005.49 386.493 1006.04 386.093 1006.68 385.932C1007.32 385.771 1007.99 385.863 1008.56 386.188C1009.14 386.513 1009.56 387.046 1009.75 387.676C1010.82 392.005 1012.1 396.277 1013.59 400.476C1012.75 396.774 1012.14 393.023 1011.77 389.244C1011.45 386.044 1016.57 386.044 1016.86 389.244C1017.28 393.566 1018.05 397.847 1019.16 402.044C1019.16 400.594 1019.3 399.132 1019.58 397.66C1019.61 397.299 1019.73 396.951 1019.91 396.636C1020.09 396.322 1020.34 396.05 1020.63 395.836C1020.63 395.26 1020.95 394.716 1021.14 394.14C1021.33 393.565 1021.72 393.074 1022.24 392.757C1022.75 392.44 1023.37 392.317 1023.97 392.409C1024.56 392.501 1025.11 392.803 1025.51 393.261C1025.91 393.718 1026.13 394.302 1026.14 394.908L1026.46 414.108C1027.38 416.094 1028.59 417.937 1030.04 419.58C1027.58 421.315 1025.21 423.173 1022.94 425.148C1020.91 426.897 1018.97 428.756 1017.14 430.716C1015.5 428.583 1013.92 426.45 1012.41 424.316C1012.23 424.157 1012.06 423.974 1011.93 423.772C1007.36 417.031 1002.65 410.386 997.784 403.836C995.672 401.404 1000.15 398.908 1002.07 401.5Z" fill="#FFB5A9"/>
<path d="M1079.26 387.548C1079.26 387.548 1061.24 392.412 1053.94 404.092C1049.37 412.111 1045.34 420.428 1041.88 428.988L1028.57 408.316C1028.57 408.316 1012.57 413.276 1006.01 421.116C1006.01 421.116 1025.21 463.004 1041.88 466.62C1058.55 470.236 1076.28 441.788 1076.28 441.788C1076.28 441.788 1079.96 453.564 1079.22 440.988" fill="#FF8F6F"/>
<path d="M1123.9 440.444C1113.72 449.436 1089.34 448.988 1076.28 441.884C1074.94 437.244 1071.54 379.068 1071.42 374.108C1071.19 366.94 1072.02 359.772 1072.5 352.604C1072.57 352.299 1072.57 351.981 1072.5 351.676C1074.9 343.612 1079.83 336.764 1089.56 335.932C1114.74 333.788 1116.15 361.532 1115.96 372.988C1115.8 379.58 1122.62 436.188 1123.9 440.444Z" fill="#AF5912"/>
<path d="M1096.6 514.397C1096.6 513.926 1096.79 513.474 1097.12 513.141C1097.45 512.808 1097.9 512.621 1098.38 512.621C1098.85 512.621 1099.3 512.808 1099.63 513.141C1099.96 513.474 1100.15 513.926 1100.15 514.397C1099.41 583.261 1100.08 652.104 1102.17 720.925C1102.17 723.197 1098.71 723.197 1098.62 720.925C1096.46 652.018 1095.79 583.176 1096.6 514.397Z" fill="#BA2F2F"/>
<path d="M895.576 750.3C853.496 718.3 858.168 664.829 854.744 650.813C851.32 636.797 862.808 571.292 867.544 522.396C870.552 485.297 867.635 447.955 858.904 411.773C856.344 402.813 845.624 386.173 825.112 378.269C792.28 372.669 776.024 401.917 771.352 432.669C771.544 439.581 772.152 444.221 772.152 444.221L788.792 457.693C779.48 388.797 809.208 387.612 819.128 387.612C845.912 387.612 861.88 445.373 843.192 589.533C824.504 733.693 891.8 768.125 891.8 768.125L1042.52 681.148V664.092L895.576 750.3Z" fill="white"/>
<path d="M842.616 860.509C843.224 860.509 848.76 858.301 844.088 854.749C841.025 852.359 837.819 850.158 834.488 848.157" fill="#58E6CA"/>
<path d="M842.616 831.196C842.616 831.196 837.976 848.412 842.616 857.596L779.383 894.748L716.855 930.94V904.22" fill="#FFE8BC"/>
<path d="M844.696 828.508C844.546 829.702 844.397 830.897 844.248 832.092L716.856 904.188V930.908L844.152 856.668C844.152 857.724 844.152 858.78 844.152 859.868L711.896 936.412V899.932L844.696 828.508Z" fill="#58E6CA"/>
<path d="M843.993 828.989L712.601 904.189L528.249 795.965L656.825 722.365C658.77 721.242 660.978 720.65 663.225 720.65C665.471 720.65 667.679 721.242 669.625 722.365L844.025 825.565C844.339 825.729 844.603 825.976 844.785 826.28C844.968 826.584 845.063 826.933 845.06 827.287C845.056 827.642 844.955 827.988 844.766 828.289C844.578 828.589 844.31 828.832 843.993 828.989V828.989Z" fill="#58E6CA"/>
<path d="M711.928 936.381C711.928 936.381 527.672 827.869 528.248 827.357C528.824 826.845 528.248 795.965 528.248 795.965L712.6 904.189L711.928 936.381Z" fill="#46D1B6"/>
<path d="M844.024 825.564C844.547 825.937 844.987 826.414 845.317 826.964C845.648 827.515 845.861 828.128 845.944 828.764C846.168 831.004 843.768 831.964 842.936 832.572" fill="#58E6CA"/>
<path d="M825.368 809.884C825.976 809.884 831.512 807.676 826.84 804.124C823.777 801.734 820.571 799.533 817.24 797.532" fill="#58E6CA"/>
<path d="M825.368 780.573C825.368 780.573 820.728 797.789 825.368 806.973L762.136 844.125L699.608 880.317V853.597" fill="#FFE8BC"/>
<path d="M827.448 777.917C827.299 779.112 827.149 780.306 827 781.501L699.608 853.597V880.317L826.904 806.077C826.904 807.133 826.904 808.189 826.904 809.277L694.648 885.821V849.341L827.448 777.917Z" fill="#58E6CA"/>
<path d="M826.776 778.395L695.384 853.595L511 745.372L639.576 671.772C641.522 670.648 643.729 670.057 645.976 670.057C648.223 670.057 650.43 670.648 652.376 671.772L826.808 775.163C827.077 775.34 827.298 775.581 827.449 775.865C827.601 776.149 827.678 776.466 827.675 776.788C827.672 777.11 827.588 777.426 827.431 777.707C827.274 777.988 827.048 778.224 826.776 778.395V778.395Z" fill="#58E6CA"/>
<path d="M694.712 885.789C694.712 885.789 510.456 777.277 511.032 776.765C511.608 776.253 511.032 745.373 511.032 745.373L695.384 853.597L694.712 885.789Z" fill="#46D1B6"/>
<path d="M826.776 775.1C827.299 775.472 827.739 775.949 828.07 776.5C828.4 777.05 828.613 777.663 828.696 778.3C828.92 780.54 826.52 781.5 825.688 782.108" fill="#58E6CA"/>
<path d="M540.568 744.413C532.152 733.533 518.392 739.677 514.168 750.813C509.432 763.293 513.592 777.596 526.68 782.396C532.504 784.508 535 775.26 529.24 773.148C522.648 770.749 520.952 763.549 522.232 757.149C523.416 751.421 528.44 744.349 533.752 751.133C537.56 756.093 544.312 749.245 540.568 744.413Z" fill="#5F5CEA"/>
<path d="M568.248 761.564C559.832 750.684 546.072 756.828 541.848 767.964C537.112 780.444 541.272 794.748 554.36 799.548C560.184 801.66 562.68 792.412 556.92 790.3C550.328 787.9 548.632 780.7 549.912 774.3C551.096 768.572 556.12 761.5 561.432 768.284C565.24 773.308 571.992 766.46 568.248 761.564Z" fill="#5F5CEA"/>
<path d="M599.864 779.708C591.448 768.828 577.688 774.972 573.464 786.108C568.728 798.588 572.888 812.892 585.976 817.692C591.8 819.804 594.296 810.556 588.536 808.444C581.944 806.044 580.248 798.844 581.528 792.444C582.712 786.716 587.736 779.644 593.048 786.428C596.856 791.356 603.608 784.54 599.864 779.708Z" fill="#5F5CEA"/>
<path d="M629.24 796.124C620.824 785.244 607.064 791.388 602.84 802.524C598.104 815.004 602.264 829.308 615.352 834.108C621.176 836.22 623.672 826.972 617.912 824.86C611.32 822.46 609.624 815.26 610.904 808.86C612.088 803.132 617.112 796.06 622.424 802.844C626.2 807.772 632.952 800.956 629.24 796.124Z" fill="#5F5CEA"/>
<path d="M657.945 810.364C649.529 799.484 635.769 805.628 631.545 816.764C626.809 829.244 630.969 843.548 644.057 848.348C649.881 850.46 652.377 841.212 646.617 839.1C640.025 836.7 638.329 829.5 639.609 823.1C640.793 817.372 645.817 810.3 651.129 817.084C655.001 822.012 661.689 815.196 657.945 810.364Z" fill="#5F5CEA"/>
<path d="M687.32 824.733C678.904 813.853 665.144 819.997 660.92 831.133C656.184 843.613 660.344 857.917 673.432 862.717C679.256 864.829 681.752 855.581 675.992 853.469C669.4 851.069 667.704 843.869 668.984 837.469C670.168 831.741 675.192 824.669 680.504 831.453C684.312 836.381 691.064 829.565 687.32 824.733Z" fill="#5F5CEA"/>
</g>
<defs>
<filter id="filter0_d" x="-19" y="-28" width="1480" height="1164.73" filterUnits="userSpaceOnUse" color-interpolation-filters="sRGB">
<feFlood flood-opacity="0" result="BackgroundImageFix"/>
<feColorMatrix in="SourceAlpha" type="matrix" values="0 0 0 0 0 0 0 0 0 0 0 0 0 0 0 0 0 0 127 0"/>
<feOffset dx="2" dy="4"/>
<feGaussianBlur stdDeviation="50"/>
<feColorMatrix type="matrix" values="0 0 0 0 0.275 0 0 0 0 0.275 0 0 0 0 0.275 0 0 0 0.38 0"/>
<feBlend mode="normal" in2="BackgroundImageFix" result="effect1_dropShadow"/>
<feBlend mode="normal" in="SourceGraphic" in2="effect1_dropShadow" result="shape"/>
</filter>
<linearGradient id="paint0_linear" x1="200.632" y1="662.045" x2="236.152" y2="612.061" gradientUnits="userSpaceOnUse">
<stop stop-color="#FD5773"/>
<stop offset="1" stop-color="#9E005D"/>
</linearGradient>
<linearGradient id="paint1_linear" x1="18545.1" y1="16314.6" x2="19088.5" y2="14601.3" gradientUnits="userSpaceOnUse">
<stop stop-color="#FD5773"/>
<stop offset="1" stop-color="#9E005D"/>
</linearGradient>
<linearGradient id="paint2_linear" x1="44513.3" y1="18447.3" x2="45056.2" y2="16734.6" gradientUnits="userSpaceOnUse">
<stop stop-color="#FD5773"/>
<stop offset="1" stop-color="#9E005D"/>
</linearGradient>
<linearGradient id="paint3_linear" x1="52180.1" y1="18799.4" x2="54920.8" y2="14872.7" gradientUnits="userSpaceOnUse">
<stop stop-color="#FD5773"/>
<stop offset="1" stop-color="#9E005D"/>
</linearGradient>
<linearGradient id="paint4_linear" x1="61679.2" y1="42105.4" x2="62690.9" y2="37899" gradientUnits="userSpaceOnUse">
<stop stop-color="#FD5773"/>
<stop offset="1" stop-color="#9E005D"/>
</linearGradient>
</defs>
</svg>
