<svg width="30" height="24" viewBox="0 0 30 24" fill="none" xmlns="http://www.w3.org/2000/svg">
<path d="M28.2411 0.00282849C25.3869 0.16481 19.7139 0.754404 16.2117 2.89819C15.9701 3.04611 15.8331 3.30914 15.8331 3.58414V22.536C15.8331 23.1376 16.4909 23.5178 17.0456 23.2387C20.6488 21.4251 25.8598 20.9303 28.4364 20.7949C29.3161 20.7485 30 20.0433 30 19.198V1.60181C30.0005 0.679403 29.2005 -0.0513391 28.2411 0.00282849ZM13.7883 2.89819C10.2866 0.754404 4.61362 0.165331 1.75941 0.00282849C0.800014 -0.0513391 0 0.679403 0 1.60181V19.1985C0 20.0443 0.683866 20.7495 1.56357 20.7954C4.14122 20.9308 9.35485 21.4261 12.958 23.2407C13.5112 23.5194 14.1669 23.1397 14.1669 22.5397V3.57477C14.1669 3.29924 14.0305 3.04663 13.7883 2.89819Z" fill="#616161"/>
</svg>
