<svg width="593" height="481" viewBox="0 0 593 481" fill="none" xmlns="http://www.w3.org/2000/svg">
<g filter="url(#filter0_d)">
<path d="M288.479 373.366L106.063 265.552C100.258 262.294 95.2739 256.935 100.938 253.433L284.013 147.873C286.764 146.168 290.935 145.051 293.727 146.675L485.217 257.848C491.022 261.218 492.068 270.637 486.232 274.017L312.524 373.193C308.877 375.309 304.741 376.438 300.525 376.468C296.308 376.498 292.156 375.429 288.479 373.366V373.366Z" fill="#16A79E"/>
<path style="mix-blend-mode:multiply" opacity="0.63" d="M223.549 270.972L198.327 284.999L218.282 297.585L238.236 285.588C236.257 284.309 225.549 272.23 223.549 270.972Z" fill="url(#paint0_linear)"/>
<path style="mix-blend-mode:multiply" opacity="0.63" d="M339.737 316.911L310.048 331.669L335.9 346.427L371.709 320.839C368.502 318.779 342.974 318.941 339.737 316.911Z" fill="url(#paint1_linear)"/>
<path style="mix-blend-mode:multiply" opacity="0.63" d="M320.462 261.096L279.608 283.822L295.97 295.169L327.191 273.022C324.014 270.951 323.7 263.126 320.462 261.096Z" fill="url(#paint2_linear)"/>
<path style="mix-blend-mode:multiply" opacity="0.63" d="M286.551 249.21L258.131 265.014L269.58 272.941L295.686 252.042C293.412 250.611 288.804 250.661 286.551 249.21Z" fill="url(#paint3_linear)"/>
<path style="mix-blend-mode:multiply" opacity="0.63" d="M245.9 286.491L205.046 309.217L225.65 325.335L251.178 309.857C247.97 307.827 249.148 288.521 245.9 286.491Z" fill="url(#paint4_linear)"/>
<path style="mix-blend-mode:multiply" opacity="0.63" d="M292.346 278.645C289.632 278.145 286.961 277.433 284.358 276.514C281.222 275.377 277.832 273.743 275.934 270.941L244.418 288.47L265.022 304.629L293.554 279.833C293.085 279.511 292.676 279.109 292.346 278.645V278.645Z" fill="url(#paint5_linear)"/>
<path d="M330.835 247.353C329.607 247.353 327.891 248.652 326.775 249.2L323.73 250.712C323.73 250.712 321.7 258.345 320.512 261.136C319.325 263.927 315.123 270.038 316.594 272.301C317.603 273.706 319.108 274.674 320.804 275.012C322.499 275.349 324.26 275.03 325.729 274.118C329.597 271.997 329.485 264.922 330.896 262.172C332.053 259.898 331.515 255.067 331.515 254.052C331.571 251.799 331.343 249.548 330.835 247.353V247.353Z" fill="#181816"/>
<path d="M299.015 233.508C297.787 233.508 296.071 234.807 294.955 235.355L291.91 236.867C291.91 236.867 290.895 245.18 288.692 247.292C286.49 249.403 278.329 253.879 279.801 256.152C280.738 257.569 282.185 258.569 283.84 258.947C285.496 259.325 287.233 259.051 288.692 258.182C292.559 256.061 295.097 251.707 297.827 250.6C300.202 249.656 299.198 243.495 299.289 241.465C299.561 238.813 299.469 236.135 299.015 233.508Z" fill="#181816"/>
<path d="M293.493 155.749C293.493 155.749 288.215 183.844 288.692 199.252C289.169 214.66 289.433 233.528 290.61 241.882C290.61 241.882 300.821 243.303 304.283 240.248C304.283 240.248 305.298 186.25 305.379 186.554C306.942 193.659 314.28 230.057 315.062 232.432C315.843 234.807 319.609 253.991 319.609 253.991C322.068 254.6 324.627 254.697 327.125 254.276C329.624 253.855 332.009 252.926 334.134 251.545C334.134 251.545 332.865 223.906 330.5 216.152C328.135 208.397 319.883 159.565 315.874 155.749" fill="#68E1FD"/>
<path d="M293.493 155.749C293.493 155.749 288.215 183.844 288.692 199.252C289.169 214.66 289.433 233.528 290.61 241.882C290.61 241.882 300.821 243.303 304.283 240.248C304.283 240.248 305.298 186.25 305.379 186.554C306.942 193.659 314.28 230.057 315.062 232.432C315.843 234.807 319.609 253.991 319.609 253.991C322.068 254.6 324.627 254.697 327.125 254.276C329.624 253.855 332.009 252.926 334.134 251.545C334.134 251.545 332.865 223.906 330.5 216.152C328.135 208.397 319.883 159.565 315.874 155.749" fill="#68E1FD"/>
<path d="M315.61 158.013C315.61 158.013 324.643 131.745 320.989 125.736C317.335 119.727 302.72 114.997 295.696 115.586C288.672 116.174 293.179 157.688 294.285 157.992C295.391 158.297 305.754 165.422 315.61 158.013Z" fill="#F7931E"/>
<path d="M318.594 123.035L307.632 118.488C305.643 128.124 303.579 137.739 301.44 147.335L316.747 150.024C316.747 150.024 325.882 145.01 327.262 137.053C328.642 129.095 319.01 123.401 318.594 123.035Z" fill="#F7931E"/>
<path d="M296.498 131.419C296.498 131.419 295.036 117.067 295.036 115.809C290.773 117.029 286.788 119.066 283.303 121.807C281.521 123.189 279.864 124.724 278.35 126.395C277.309 127.376 276.447 128.53 275.802 129.805C275.351 131.32 275.306 132.927 275.67 134.464C276.346 138.025 277.554 141.464 279.253 144.665C281.037 148.395 283.24 151.909 285.82 155.14C286.622 156.155 289.21 159.778 290.895 159.2C294.275 158.022 295.686 154.125 295.686 154.125C295.686 154.125 294.123 151.08 292.438 147.253C291.423 145 286.947 139.895 286.348 136.403C286.792 135.805 287.273 135.235 287.789 134.698C290.012 132.485 293.727 132.861 296.498 131.419Z" fill="#F7931E"/>
<path d="M297.776 116.621L300.03 127.918L303.075 124.284L305.44 128.811L311.773 120.214C311.773 120.214 302.06 115.687 297.776 116.621Z" fill="#ED6B00"/>
<path d="M309.967 111.576C308.322 113.403 305.156 112.591 303.075 112.104C300.548 111.536 297.645 110.003 297.868 107.029C297.868 106.572 297.198 106.583 297.157 107.029C296.924 110.166 299.776 112.104 302.486 112.733C304.892 113.332 308.576 114.246 310.454 112.114C310.769 111.739 310.271 111.231 309.967 111.576Z" fill="#009245"/>
<path d="M296.498 105.08C296.498 105.08 296.498 120.417 302.121 121.421C308.302 122.518 311.783 115.494 311.783 115.494C311.783 115.494 312.575 101.944 306.434 100.746C300.294 99.5482 296.67 103.121 296.498 105.08Z" fill="#FBB5AD"/>
<path d="M307.419 113.972C307.419 113.972 308.911 108.085 310.555 110.024C312.2 111.962 307.886 116.246 307.886 116.246" fill="#FBB5AD"/>
<path d="M308.921 98.8486C308.921 98.8486 314.413 99.4373 316.026 103.812C317.64 108.187 313.499 116.885 310.556 118.276L314.118 110.643L313.946 105.446L308.921 98.8486Z" fill="#5C2E2E"/>
<path d="M315.915 105.771C315.468 102.726 313.438 101.223 310.789 99.6806C310.572 99.552 310.352 99.4336 310.129 99.3253C310.639 98.9074 311.048 98.3801 311.327 97.7825C311.362 97.7213 311.381 97.6518 311.381 97.5811C311.382 97.5104 311.363 97.4408 311.329 97.3793C311.294 97.3178 311.243 97.2664 311.183 97.2303C311.122 97.1942 311.052 97.1746 310.982 97.1735C310.636 97.188 310.297 97.274 309.986 97.4259C309.675 97.5779 309.399 97.7926 309.175 98.0566C308.865 97.4263 308.446 96.8559 307.937 96.3717C307.887 96.3235 307.825 96.2889 307.758 96.2712C307.691 96.2535 307.621 96.2533 307.554 96.2706C307.486 96.2879 307.425 96.3222 307.375 96.3701C307.324 96.418 307.287 96.4779 307.267 96.5442C307.147 96.8406 307.094 97.1599 307.111 97.4792C307.129 97.7985 307.216 98.11 307.368 98.3915C304.601 97.8068 301.716 98.2469 299.248 99.6298C298.348 100.157 297.584 100.887 297.015 101.761C296.265 101.685 295.509 101.822 294.833 102.157C294.115 102.501 293.529 103.069 293.162 103.776C292.796 104.483 292.67 105.29 292.803 106.075C293.199 107.912 295.158 108.531 296.863 108.237C297.693 108.055 298.465 107.668 299.106 107.11C298.609 107.953 298.355 109.019 299.979 109.384C302.791 110.034 304.131 108.369 304.303 109.76C304.445 110.906 306.029 111.546 307.176 111.566C307.257 111.739 307.47 112.206 307.724 112.845C308.293 112.656 308.902 112.621 309.49 112.744C309.535 112.693 309.591 112.653 309.654 112.629C309.717 112.604 309.786 112.595 309.853 112.602C309.921 112.608 309.985 112.631 310.042 112.668C310.099 112.706 310.146 112.756 310.18 112.815C311.195 114.489 310.931 116.316 310.555 118.245C312.075 116.939 313.327 115.35 314.24 113.566C315.553 111.189 316.135 108.477 315.915 105.771V105.771ZM307.927 97.5491L308.048 97.7216C308.041 97.7653 308.041 97.8099 308.048 97.8536C308.048 97.9855 308.14 98.1073 308.201 98.2393C308.052 98.0364 307.957 97.7988 307.927 97.5491V97.5491Z" fill="#5C2E2E"/>
<path d="M300.812 126.954L302.466 130.181L304.79 127.502L303.116 124.284L300.812 126.954Z" fill="#723100"/>
<path d="M302.466 130.182C302.466 130.182 304.79 146.422 306.851 157.069L303.806 162.743L300.03 157.932C300.03 157.932 298.406 146.828 302.466 130.182Z" fill="#723100"/>
<path d="M302.801 157.982L300.619 134.262L284.297 134.637L286.581 157.982H302.801Z" fill="#68E1FD"/>
<path d="M308.363 148.644L301.258 143.346V145.376C301.258 145.376 294.833 142.503 294.518 143.762C294.163 145.173 295.351 149.202 296.447 149.588C297.543 149.974 302.07 151.425 302.07 151.425L305.653 152.562L308.363 148.644Z" fill="#FBB5AD"/>
<path d="M327.323 134.262C327.323 134.262 331.941 152.095 328.764 155.759C325.587 159.424 304.973 155.455 304.78 153.608C304.587 151.76 307.409 145.762 307.409 145.762L318.919 147.02" fill="#F7931E"/>
<path d="M292.194 157.982C292.194 157.982 296.498 157.252 297.36 159.637C297.817 160.895 294.498 159.637 294.498 159.637L292.143 166.64C291.43 165.757 291.033 164.66 291.017 163.524C291.002 161.92 291.148 160.319 291.453 158.744L292.194 157.982Z" fill="#FBB5AD"/>
<path d="M252.102 277.569C251.767 278.523 252.102 287.11 252.102 287.11L243.149 286.298L243.616 270.789L252.102 277.569Z" fill="#FBC76F"/>
<path d="M243.119 284.289C243.119 284.289 248.031 286.877 252.731 284.888C252.731 284.888 253.045 291.719 253.563 293.191C254.081 294.662 255.674 303.412 254.69 305.624C253.705 307.837 250.802 310.872 248.904 310.872C247.006 310.872 242.581 305.98 242.439 303.381C242.426 299.805 242.602 296.231 242.966 292.673C243.19 291.303 243.119 284.289 243.119 284.289Z" fill="#181816"/>
<path d="M276.512 261.279C276.259 262.294 277.253 270.789 277.253 270.789L268.26 270.708L267.469 255.209L276.512 261.279Z" fill="#FBC76F"/>
<path d="M284.541 272.759C281.374 271.429 278.451 269.927 276.421 267.014C276.074 267.86 275.521 268.607 274.812 269.184C274.103 269.762 273.26 270.154 272.361 270.323C271.411 270.502 270.434 270.467 269.499 270.221H269.144V270.12C268.771 269.971 268.427 269.758 268.129 269.49C267.56 272.261 268.2 276.839 268.971 277.509C269.935 278.351 275.234 279.427 275.234 279.427L274.371 277.275L279.517 280.442C281.679 281.772 288.144 283.061 291.697 281.406C292.465 281.136 293.106 280.59 293.493 279.874C292.925 274.789 288.307 274.332 284.541 272.759Z" fill="#181816"/>
<path d="M228.858 286.491C235.473 286.491 240.835 283.31 240.835 279.386C240.835 275.462 235.473 272.281 228.858 272.281C222.243 272.281 216.881 275.462 216.881 279.386C216.881 283.31 222.243 286.491 228.858 286.491Z" fill="#E0831E"/>
<path d="M216.881 277.895V279.488H240.835V278.189" fill="#E0831E"/>
<path d="M228.858 285.192C235.473 285.192 240.835 282.011 240.835 278.087C240.835 274.163 235.473 270.982 228.858 270.982C222.243 270.982 216.881 274.163 216.881 278.087C216.881 282.011 222.243 285.192 228.858 285.192Z" fill="#FFAE45"/>
<path d="M228.868 233.66H228.858C227.95 233.66 227.214 234.396 227.214 235.304V275.955C227.214 276.863 227.95 277.6 228.858 277.6H228.868C229.776 277.6 230.513 276.863 230.513 275.955V235.304C230.513 234.396 229.776 233.66 228.868 233.66Z" fill="#946C62"/>
<path d="M228.858 234.98C241.185 234.98 251.178 229.049 251.178 221.734C251.178 214.419 241.185 208.488 228.858 208.488C216.531 208.488 206.538 214.419 206.538 221.734C206.538 229.049 216.531 234.98 228.858 234.98Z" fill="#E0831E"/>
<path d="M206.538 218.953V221.927H251.178V219.501" fill="#E0831E"/>
<path d="M228.858 232.554C241.185 232.554 251.178 226.624 251.178 219.308C251.178 211.993 241.185 206.062 228.858 206.062C216.531 206.062 206.538 211.993 206.538 219.308C206.538 226.624 216.531 232.554 228.858 232.554Z" fill="#FFAE45"/>
<path d="M230.908 218.019C230.908 218.019 246.438 229.336 262.972 233.021L266.332 261.197C266.332 261.197 268.676 262.943 277.355 261.197C277.355 261.197 282.338 229.651 275.436 214.507C270.96 204.712 236.866 203.099 236.866 203.099" fill="#204A51"/>
<path d="M215.206 223.328C215.206 223.328 225.143 217.025 229.975 214.579L243.707 206.53L237.008 202.186L214.77 205.9C215.562 208.367 209.137 214.873 215.206 223.328Z" fill="#204A51"/>
<path d="M255.451 162.935C255.451 162.935 257.167 157.657 257.024 155.373C256.882 153.09 255.614 149.771 257.024 149.07C258.435 148.37 260.161 153.201 260.161 153.201C260.161 153.201 264.444 144.239 265.733 144.807C266.134 145.051 266.468 145.392 266.704 145.798C266.94 146.204 267.07 146.662 267.083 147.132C267.083 147.132 268.453 144.878 268.981 145.812C269.26 146.725 269.26 147.7 268.981 148.613C268.981 148.613 270.25 148.837 270.402 149.628C270.554 150.42 268.565 153.8 268.565 153.8C268.857 153.841 269.127 153.979 269.33 154.193C269.533 154.407 269.657 154.684 269.681 154.977C269.753 155.992 261.612 164.112 261.612 164.112" fill="#FBC76F"/>
<path d="M234.055 161.535C234.055 161.535 241.21 167.452 243.981 171.979C246.752 176.506 255.816 160.043 255.816 160.043C255.816 160.043 262.119 162.073 264.129 162.966C266.139 163.859 253.979 191.741 245.524 190.787C237.069 189.833 237.404 188.179 237.404 188.179" fill="#68E1FD"/>
<path d="M214.77 205.9C222.463 207.199 230.279 206.306 237.019 202.185C238.034 190.238 238.866 178.302 237.577 166.305C237.565 166.21 237.565 166.115 237.577 166.02C236.826 164.236 235.61 162.687 234.055 161.534C230.137 158.895 223.752 160.184 219.967 162.184C219.051 162.676 218.193 163.268 217.409 163.95C213.227 177.612 214.912 191.812 214.77 205.9Z" fill="#68E1FD"/>
<path d="M229.63 155.902L222.687 154.45L222.108 162.124C222.108 162.124 227.346 167.483 232.512 166.742L231.01 160.347C230.383 158.922 229.92 157.431 229.63 155.902Z" fill="#FCBB5B"/>
<path d="M229.792 156.622C227.521 155.61 225.135 154.881 222.687 154.45L222.504 158.642C222.504 158.642 227.701 162.459 230.786 159.748C230.372 158.735 230.039 157.689 229.792 156.622V156.622Z" fill="#DB9231"/>
<path d="M234.644 147.569C234.644 147.569 239.272 144.757 238.348 142.189C237.425 139.621 233.821 138.921 233.821 138.921C233.821 138.921 233.253 135.642 230.584 135.257C227.914 134.871 223.306 137.053 223.306 137.053C223.306 137.053 219.307 136.678 217.896 138.921C216.485 141.164 216.993 145.183 216.993 145.183C216.993 145.183 220.332 155.333 221.814 155.546C223.296 155.76 226.95 152.075 226.95 152.075" fill="#204A51"/>
<path d="M234.704 144.381C234.704 144.381 235.8 157.779 230.096 158.662C224.392 159.545 221.976 151.77 221.976 151.77C221.976 151.77 218.525 148.553 220.687 147.842C222.849 147.132 223.174 148.329 223.174 148.329C223.174 148.329 221.053 143.498 223.275 143.498C225.498 143.498 231.903 147.132 234.704 144.381Z" fill="#FBC76F"/>
<path d="M222.108 159.972C222.108 159.972 224.829 162.529 226.615 162.692L229.376 164.194L231.659 166.569V163.27C231.659 163.27 230.979 160.296 231.091 160.327C231.203 160.357 233.568 164.143 233.568 164.143L235.841 167.939L232.522 167.615L231.071 170.04C231.071 170.04 222.829 166.366 219.906 162.184L222.108 159.972Z" fill="white"/>
<path d="M266.687 146.573C265.232 149.09 263.828 151.645 262.475 154.236C262.302 154.571 262.81 154.866 262.982 154.531C264.336 151.932 265.75 149.375 267.225 146.857C267.263 146.786 267.27 146.703 267.247 146.626C267.223 146.549 267.169 146.484 267.098 146.446C267.027 146.409 266.943 146.401 266.866 146.425C266.789 146.448 266.725 146.502 266.687 146.573V146.573Z" fill="#204A51"/>
<path d="M268.565 148.33L264.687 155.435C264.505 155.759 265.012 156.054 265.195 155.729L269.072 148.624C269.255 148.299 268.748 148.005 268.565 148.33Z" fill="#204A51"/>
<path d="M268.291 153.73C267.52 154.621 266.84 155.586 266.261 156.612C266.229 156.679 266.224 156.755 266.246 156.826C266.268 156.896 266.315 156.956 266.379 156.993C266.443 157.03 266.518 157.042 266.591 157.026C266.663 157.01 266.726 156.967 266.768 156.907C267.318 155.921 267.964 154.993 268.697 154.136C268.951 153.852 268.565 153.435 268.291 153.73Z" fill="#204A51"/>
<path d="M260.729 154.004C260.394 153.831 260.1 154.328 260.435 154.511C261.331 155.076 262.055 155.877 262.528 156.826C263 157.774 263.203 158.834 263.114 159.891C263.127 159.958 263.163 160.019 263.216 160.063C263.268 160.107 263.335 160.131 263.404 160.131C263.472 160.131 263.539 160.107 263.592 160.063C263.644 160.019 263.68 159.958 263.693 159.891C263.787 158.732 263.56 157.57 263.037 156.531C262.514 155.493 261.716 154.618 260.729 154.004V154.004Z" fill="#204A51"/>
<path d="M217.409 163.95C214.523 165.8 212.183 168.386 210.629 171.441C208.254 176.343 201.626 198.541 209.411 201.718C217.196 204.895 230.726 197.658 230.726 197.658L229.914 185.834L218.251 187.508" fill="#68E1FD"/>
<path d="M232.431 176.526C232.329 176.901 228.858 198.582 228.858 198.582L242.591 194.907L245.504 172.75L232.431 176.526Z" fill="#FF7F5C"/>
<path d="M227.011 187.164C227.011 187.164 229.437 180.952 230.685 181.338C231.933 181.723 231.558 184.89 231.558 184.89C231.558 184.89 237.77 181.845 239.414 183.246C241.058 184.646 236.927 188.199 235.821 188.95C234.715 189.701 227.539 192.371 227.539 192.371L227.011 187.164Z" fill="#FBC76F"/>
<path d="M214.77 202.521C218.808 201.611 222.796 200.489 226.717 199.161C226.717 199.161 227.792 192.949 227.843 193.142C227.894 193.335 227.701 201.12 227.204 201.658C226.706 202.196 214.77 205.901 214.77 205.901V202.521Z" fill="#363942"/>
<path d="M215.206 223.328C215.206 223.328 227.214 235.305 238.247 240.38L237.232 276.23C237.232 276.23 244.073 281.802 252.741 280.056C252.741 280.056 257.126 240.349 254.273 229.966C251.421 219.583 232.552 210.854 232.552 210.854" fill="#204A51"/>
<path d="M305.744 188.767L323.852 172.71L336.032 203.769L319.305 219.765L305.744 188.767Z" fill="white"/>
<path d="M337.402 173.938C336.706 173.083 336.176 172.105 335.839 171.055C335.352 169.929 334.976 168.751 334.408 167.665C334.093 167.066 333.799 165.635 333.038 165.534C332.753 165.483 332.449 166.275 332.388 166.488C332.229 167.031 332.229 167.609 332.388 168.152C332.606 168.868 332.775 169.597 332.896 170.335C332.896 170.335 327.821 165.787 326.562 165.625C325.303 165.463 325.547 166.914 325.547 166.914C325.547 166.914 324.116 165.899 323.426 166.528C322.735 167.158 323.761 168.68 323.761 168.68C323.761 168.68 322.34 169.604 323.091 170.558C323.842 171.512 328.105 173.836 328.105 173.836C328.105 173.836 325.06 173.095 324.37 173.552C323.679 174.009 324.024 175.024 325.232 175.481C326.44 175.937 329.465 176.749 329.465 176.749C329.465 176.749 334.489 178.444 336.57 178.911C338.651 179.378 345.867 183.986 345.867 183.986L346.781 177.399C346.314 177.338 338.316 174.801 337.402 173.938Z" fill="#FE6162"/>
<path d="M360.26 178.566L338.336 171.562C338.336 171.562 333.565 177.724 335.098 181.601L344.69 186.828" fill="#68E1FD"/>
<path opacity="0.35" d="M360.26 178.566L338.336 171.562C338.336 171.562 333.565 177.724 335.098 181.601L344.69 186.828" fill="#204A51"/>
<path d="M363.975 317.885L368.745 316.566L367.994 310.75C367.994 310.75 362.838 311.613 363.975 317.885Z" fill="#42210B"/>
<path d="M370.481 300.975C370.481 300.975 372.166 320.636 371.709 320.859C371.252 321.082 366.634 321.478 366.634 321.143C366.634 320.808 366.36 312.201 366.36 312.201C366.36 312.201 364.066 315.997 363.944 317.895C363.944 317.895 358.463 314.769 357.438 312.262C356.413 309.755 359.783 299.26 361.062 298.691" fill="#7F252B"/>
<path d="M352.17 328.187L357.57 322.452L354.048 317.986C354.048 317.986 350.78 325.223 352.17 328.187Z" fill="#42210B"/>
<path d="M360.199 305.451L362.727 329.04C362.727 329.04 358.667 330.42 357.905 330.319C356.885 329.963 355.905 329.5 354.982 328.938L354.079 321.072C354.079 321.072 351.734 323.417 352.16 328.177C352.16 327.852 348.435 326.614 347.948 326.401C346.444 325.744 345 324.956 343.634 324.046C342.203 323.031 336.864 318.656 339.727 316.941C342.163 315.449 350.059 316.17 350.059 316.17L350.171 306.436" fill="#7F252B"/>
<path d="M369.639 220.953C369.62 220.869 369.621 220.782 369.641 220.699C369.661 220.616 369.7 220.538 369.755 220.472C369.81 220.406 369.879 220.354 369.958 220.32C370.036 220.285 370.121 220.269 370.207 220.273C369.673 218.199 368.776 216.237 367.558 214.477L344.69 211.787C344.69 211.787 340.102 228.108 338.336 256.224C336.966 278.026 347.664 310.445 347.664 310.445C347.664 310.445 358.738 313.257 364.056 307.786L363.843 303.086C366.6 303.067 369.351 302.843 372.075 302.416C374.846 275.336 372.765 247.891 369.639 220.953Z" fill="#8CC63F"/>
<path d="M364.716 306.517L361.854 286.318C360.94 279.883 359.539 273.266 359.509 266.739C359.479 260.213 361.712 254.366 362.798 248.144C363.825 242.111 364.088 235.973 363.579 229.874C363.467 228.453 361.427 228.443 361.549 229.874C362.117 236.683 361.697 243.537 360.301 250.225C359.022 256.203 357.256 261.877 357.499 268.099C357.743 274.321 359.002 280.675 359.915 286.907L362.777 307.106C362.96 308.527 364.919 307.918 364.716 306.517Z" fill="#42210B"/>
<path d="M330.642 208.153C330.717 207.926 330.717 207.68 330.642 207.453H330.784C331.03 207.495 331.283 207.444 331.495 207.311L331.718 207.372C332.977 207.768 333.494 205.788 332.236 205.342C331.221 205.027 330.206 204.743 329.191 204.469H329.099C327.025 203.697 324.91 203.037 322.766 202.49C322.089 202.246 321.392 202.023 320.675 201.82H320.604C318.745 201.16 316.823 200.694 314.869 200.429C313.793 200.307 312.463 200.287 311.824 201.353C311.779 201.43 311.756 201.518 311.756 201.607C311.756 201.696 311.779 201.783 311.824 201.86C312.189 202.419 312.768 202.459 313.407 202.642L315.356 203.19C314.583 203.35 313.826 203.578 313.093 203.87C312.28 204.012 311.518 204.361 310.88 204.885C310.711 205.051 310.606 205.27 310.582 205.506C310.557 205.741 310.616 205.978 310.748 206.174C310.825 206.3 310.929 206.407 311.053 206.489C310.702 206.676 310.439 206.995 310.323 207.376C310.207 207.756 310.247 208.167 310.433 208.519C310.562 208.746 310.75 208.935 310.977 209.065C311.203 209.196 311.461 209.263 311.722 209.26C311.443 209.432 311.223 209.686 311.092 209.987C310.961 210.289 310.926 210.623 310.992 210.945C311.185 211.564 311.794 211.726 312.423 211.726C312.357 211.866 312.323 212.019 312.325 212.173C312.327 212.328 312.364 212.48 312.433 212.618C312.503 212.756 312.603 212.876 312.726 212.97C312.849 213.063 312.992 213.127 313.143 213.157C314.396 213.403 315.696 213.151 316.767 212.457C316.832 212.419 316.887 212.367 316.929 212.305C317.863 212.223 318.782 212.015 319.66 211.686C320.056 211.513 320.462 211.32 320.868 211.158L321.578 210.874C321.69 210.874 322.126 210.579 322.228 210.62L326.288 212.213C327.394 212.64 329.333 213.929 330.561 213.502C331.789 213.076 331.282 211.077 330.033 211.472C330.297 211.381 329.749 211.33 329.597 211.269L328.47 210.833C329.5 211.246 330.598 211.466 331.708 211.483C331.914 211.488 332.116 211.431 332.289 211.318C332.462 211.206 332.596 211.044 332.674 210.853C332.752 210.663 332.771 210.453 332.727 210.252C332.683 210.05 332.579 209.867 332.428 209.727C331.88 209.151 331.282 208.625 330.642 208.153V208.153Z" fill="#FE6162"/>
<path d="M360.26 178.566C360.26 178.566 347.552 178.566 343.157 186.565C339.473 193.274 340.163 204.479 340.163 204.479L325.527 203.322C325.527 203.322 321.325 205.078 322.37 210.356C322.939 213.229 337.463 214.558 345.482 216.548C353.5 218.537 367.974 219.116 370.248 214.274C372.521 209.433 372.278 189.914 369.588 184.342C366.898 178.769 360.26 178.566 360.26 178.566Z" fill="#68E1FD"/>
<path d="M358.9 177.622C358.9 177.622 353.825 181.51 350.668 179.155C347.512 176.8 348.273 166.64 348.273 166.64C348.273 166.64 349.887 163.595 355.875 167.411C361.864 171.228 358.9 177.622 358.9 177.622Z" fill="#FE6162"/>
<path d="M360.93 178.983L360.798 178.739L357.611 179.754L357.55 179.917C358.697 179.582 359.823 179.267 360.93 178.983Z" fill="#7F252B"/>
<path d="M366.137 166.437C365.712 164.001 364.55 161.755 362.808 160.002C360.219 157.596 356.23 157.616 353.043 158.631C351.385 159.101 349.901 160.049 348.777 161.355C347.653 162.662 346.937 164.27 346.72 165.98C346.019 169.817 350.506 167.452 351.501 169.644C352.071 170.916 352.255 172.328 352.028 173.704C351.693 175.988 350.333 178.19 350.536 180.545C350.553 181.117 350.712 181.675 350.999 182.17C351.286 182.665 351.692 183.08 352.181 183.377C354.945 183.631 357.729 183.584 360.483 183.235C362.635 183.073 366.979 182.89 367.751 180.271C368.654 177.145 366.137 166.437 366.137 166.437Z" fill="#7F252B"/>
<path style="mix-blend-mode:multiply" opacity="0.63" d="M438.385 282.36C446.738 276.798 455.234 271.439 463.678 266.029L451.681 257.27L405.225 276.666C410.838 279.61 418.42 285.121 426.397 290.734C430.356 287.902 434.325 285.06 438.385 282.36Z" fill="url(#paint6_linear)"/>
<path d="M468.225 235.001C468.156 234.714 468.028 234.444 467.85 234.209C467.522 233.81 467.131 233.467 466.693 233.194C460.796 229.205 452.625 228.119 446.393 232.007C444.972 232.9 442.85 234.92 443.693 236.828C444.18 237.934 445.662 238.584 446.738 239.03C450.152 240.378 453.717 241.305 457.355 241.791C458.674 242.014 460.014 242.238 461.344 242.36C462.263 242.448 463.191 242.304 464.04 241.94C464.89 241.577 465.635 241.005 466.205 240.279C467.16 239.061 468.652 236.716 468.225 235.001Z" fill="#754C24"/>
<path d="M443.531 235.934C443.531 235.934 448.91 240.806 458.208 240.096C467.505 239.385 468.226 235.021 468.226 235.021C468.226 235.021 465.82 265.836 464.551 266.364C463.283 266.891 458.532 269.185 456.239 269.358C453.945 269.531 446.698 266.628 446.515 265.826C446.332 265.024 443.531 235.934 443.531 235.934Z" fill="#68E1FD"/>
<path d="M445.226 191.021C444.941 190.442 444.058 190.95 444.353 191.528C450.717 204.358 451.955 218.801 453.102 232.829C453.153 233.468 454.168 233.478 454.117 232.829C452.96 218.609 451.671 204.023 445.226 191.021Z" fill="#007F68"/>
<path d="M444.413 191.143C444.413 191.143 446.19 197.801 444.352 201.13C442.515 204.459 441.003 205.119 443.195 209.25C445.388 213.381 451.254 213.939 451.64 217.106C452.026 220.273 448.829 196.796 444.413 191.143Z" fill="#007F68"/>
<path d="M464.765 203.159C459.863 213.41 457.1 224.551 456.645 235.903C456.645 236.695 457.852 236.685 457.883 235.903C458.313 224.766 461.003 213.833 465.79 203.768C466.175 203.068 465.099 202.449 464.765 203.159Z" fill="#007F68"/>
<path d="M465.627 206.408C465.627 205.738 465.475 204.378 465.546 203.251L464.835 203.698C462.42 209.574 458.806 223.378 457.73 227.601C459.202 224.434 465.221 223.998 466.987 219.481C467.767 217.564 467.803 215.425 467.089 213.482C466.218 211.22 465.724 208.83 465.627 206.408V206.408Z" fill="#007F68"/>
</g>
<defs>
<filter id="filter0_d" x="-3" y="-14" width="606" height="506" filterUnits="userSpaceOnUse" color-interpolation-filters="sRGB">
<feFlood flood-opacity="0" result="BackgroundImageFix"/>
<feColorMatrix in="SourceAlpha" type="matrix" values="0 0 0 0 0 0 0 0 0 0 0 0 0 0 0 0 0 0 127 0"/>
<feOffset dx="2" dy="4"/>
<feGaussianBlur stdDeviation="50"/>
<feColorMatrix type="matrix" values="0 0 0 0 0.275 0 0 0 0 0.275 0 0 0 0 0.275 0 0 0 0.38 0"/>
<feBlend mode="normal" in2="BackgroundImageFix" result="effect1_dropShadow"/>
<feBlend mode="normal" in="SourceGraphic" in2="effect1_dropShadow" result="shape"/>
</filter>
<linearGradient id="paint0_linear" x1="211.623" y1="296.052" x2="224.189" y2="275.762" gradientUnits="userSpaceOnUse">
<stop stop-color="white" stop-opacity="0"/>
<stop offset="0.99" stop-color="#754C24"/>
</linearGradient>
<linearGradient id="paint1_linear" x1="14465.6" y1="8002.63" x2="14830.3" y2="6771.93" gradientUnits="userSpaceOnUse">
<stop stop-color="white" stop-opacity="0"/>
<stop offset="0.99" stop-color="#754C24"/>
</linearGradient>
<linearGradient id="paint2_linear" x1="9513.13" y1="7451.29" x2="10088" y2="6154.23" gradientUnits="userSpaceOnUse">
<stop stop-color="white" stop-opacity="0"/>
<stop offset="0.99" stop-color="#754C24"/>
</linearGradient>
<linearGradient id="paint3_linear" x1="6621.07" y1="4734.08" x2="6897.2" y2="4028.09" gradientUnits="userSpaceOnUse">
<stop stop-color="white" stop-opacity="0"/>
<stop offset="0.99" stop-color="#754C24"/>
</linearGradient>
<linearGradient id="paint4_linear" x1="5811.44" y1="9569.83" x2="6569.59" y2="8115.93" gradientUnits="userSpaceOnUse">
<stop stop-color="white" stop-opacity="0"/>
<stop offset="0.99" stop-color="#754C24"/>
</linearGradient>
<linearGradient id="paint5_linear" x1="8073.28" y1="7612.87" x2="8649.88" y2="6254.21" gradientUnits="userSpaceOnUse">
<stop stop-color="white" stop-opacity="0"/>
<stop offset="0.99" stop-color="#754C24"/>
</linearGradient>
<linearGradient id="paint6_linear" x1="19627.2" y1="6626.24" x2="20389.3" y2="5553.17" gradientUnits="userSpaceOnUse">
<stop stop-color="white" stop-opacity="0"/>
<stop offset="0.99" stop-color="#754C24"/>
</linearGradient>
</defs>
</svg>
