<svg width="488" height="408" viewBox="0 0 488 408" fill="none" xmlns="http://www.w3.org/2000/svg">
<g filter="url(#filter0_d)">
<path opacity="0.45" d="M242 303.956C321.051 303.956 385.135 296.295 385.135 286.843C385.135 277.392 321.051 269.73 242 269.73C162.949 269.73 98.8647 277.392 98.8647 286.843C98.8647 296.295 162.949 303.956 242 303.956Z" fill="#717B8B"/>
<path opacity="0.27" d="M363.901 96.0439H147.635V236.561H363.901V96.0439Z" fill="#8F8F8F"/>
<path d="M239.432 220.513L231.221 272.694H286L273.404 220.513H239.432Z" fill="#8F8F8F"/>
<path d="M363.901 204.466H147.635V236.56H363.901V204.466Z" fill="#F0F0F0"/>
<path d="M256.981 227.283C261.78 227.283 265.67 223.393 265.67 218.595C265.67 213.796 261.78 209.906 256.981 209.906C252.183 209.906 248.293 213.796 248.293 218.595C248.293 223.393 252.183 227.283 256.981 227.283Z" fill="#A5A5A5"/>
<path d="M295.764 263.549H218.716V280.317H295.764V263.549Z" fill="#F0F0F0"/>
<path d="M309.599 102.682C309.599 102.682 314.187 98.8048 317.79 101.505C321.393 104.205 318.947 115.167 326.793 112.67C326.793 112.67 318.267 119.775 312.299 108.194L309.599 102.682Z" fill="#24285B"/>
<path d="M276.307 114.456H166.25V187.14H276.307V114.456Z" fill="#F0F0F0"/>
<path d="M279.2 187.14H163.358V191.768H279.2V187.14Z" fill="#A5A5A5"/>
<path opacity="0.08" d="M276.307 179.568V187.14H258.656C245.461 175.975 250.628 152.122 250.475 147.717C250.283 141.972 253.003 143.657 253.003 143.657L257.124 154.822L262.96 169.408L276.307 179.568Z" fill="black"/>
<path d="M313.253 110.192C313.253 110.192 316.369 109.756 315.09 105.503C313.811 101.25 310.279 101.443 309.274 102.529L313.253 110.192Z" fill="#62A2FF"/>
<path d="M303.915 107.889C304.133 109.944 304.625 111.962 305.377 113.887C305.481 114.109 305.629 114.309 305.81 114.474C305.992 114.639 306.204 114.766 306.435 114.849C306.666 114.932 306.911 114.969 307.156 114.957C307.401 114.945 307.642 114.885 307.864 114.781C308.604 114.491 309.243 113.99 309.701 113.341C310.159 112.691 310.417 111.921 310.442 111.127L310.929 107.726C310.953 107.036 310.761 106.356 310.381 105.779C310.001 105.203 309.451 104.759 308.807 104.509C306.503 103.423 303.6 105.656 303.915 107.889Z" fill="#F4A28C"/>
<path d="M311.72 109.614L314.136 121.551L307.467 122.413L308.36 113.613L311.72 109.614Z" fill="#F4A28C"/>
<path d="M304.311 110.203L303.56 111.807C303.516 111.898 303.497 111.999 303.503 112.099C303.51 112.2 303.542 112.297 303.597 112.382C303.652 112.466 303.728 112.535 303.817 112.582C303.907 112.629 304.007 112.652 304.108 112.649H305.549L304.311 110.203Z" fill="#F4A28C"/>
<path opacity="0.31" d="M308.341 113.857C309.125 113.611 309.828 113.155 310.371 112.537C310.371 112.537 311.142 115.095 308.077 116.384L308.341 113.857Z" fill="#CE8172"/>
<path d="M311.467 109.665C311.467 109.665 311.223 108.254 312.299 108.163C313.375 108.072 313.74 110.102 312.299 110.569L311.467 109.665Z" fill="#F4A28C"/>
<path d="M304.676 107.574C305.872 107.631 307.069 107.491 308.218 107.158C308.218 107.158 309.447 111.218 312.806 111.837C312.806 111.837 315.202 105.361 311.142 103.422C307.752 101.798 305.194 100.306 302.859 102.966C302.52 103.35 302.294 103.82 302.205 104.325C302.117 104.83 302.169 105.349 302.357 105.826C302.545 106.302 302.861 106.718 303.271 107.026C303.68 107.335 304.166 107.524 304.676 107.574V107.574Z" fill="#24285B"/>
<path d="M299.084 158.273C299.084 158.273 298.871 183.933 281.494 185.678C264.117 187.424 253.957 153.026 253.957 153.026C253.957 153.026 250.993 149.544 253.957 147.23C253.957 147.23 251.927 141.83 253.693 141.567C255.459 141.303 257.814 150.834 257.814 150.834C257.814 150.834 267.903 168.555 276.307 169.926C284.711 171.296 277.769 143.627 296.688 130.117C315.608 116.608 299.084 158.273 299.084 158.273Z" fill="#F4A28C"/>
<path d="M308.401 109.33C308.401 109.33 308.401 107.665 309.721 107.777C311.04 107.889 311.254 109.807 309.721 110.751L308.401 109.33Z" fill="#F4A28C"/>
<path d="M314.136 121.551L307.468 122.414C307.468 122.414 271.364 139.74 292.029 164.14C293.774 166.171 294.891 168.663 295.247 171.316L297.115 186.298H324.215C324.215 186.298 363.384 130.3 314.136 121.551Z" fill="#62A2FF"/>
<path opacity="0.08" d="M313.943 135.426C311.822 138.918 310.945 143.025 311.454 147.079C311.962 151.133 313.827 154.896 316.745 157.756C327.138 168.637 321.109 178.127 309.274 170.677C297.439 163.227 295.511 172.93 295.511 172.93L296.211 179.02L314.654 178.817L335.086 178.898L342.272 161.846L313.943 135.426Z" fill="black"/>
<path d="M292.848 174.441L312.549 167.348L303.136 141.2L283.434 148.293L292.848 174.441Z" fill="#FFD200"/>
<path opacity="0.08" d="M297.033 164.333C297.033 164.333 290.659 165.764 292.841 174.422L303.834 170.565L297.033 164.333Z" fill="black"/>
<path d="M335.969 204.476L330.224 179.07H296.211L292.009 204.476H335.969Z" fill="#24285B"/>
<path d="M313.943 135.425C313.517 127.417 322.814 122.657 329.31 127.356C338.08 133.7 350.524 144.5 347.134 172.554C343.013 206.577 300.353 171.316 300.353 171.316L302.119 166.83C302.119 166.83 325.565 181.486 331.858 172.29C333.797 169.458 331.137 165.185 329.148 161.785C325.535 155.654 314.451 145.19 313.943 135.425Z" fill="#F4A28C"/>
<path d="M302.118 166.83C302.118 166.83 300.363 162.242 297.429 163.257C294.496 164.272 296.617 170.362 300.352 170.717L302.118 166.83Z" fill="#F4A28C"/>
<path d="M316.744 122.078C316.744 122.078 317.668 119.196 312.349 118.597C307.031 117.998 302.778 120.251 304.524 124.017C304.524 124.017 308.543 127.214 316.744 122.078Z" fill="#62A2FF"/>
<path opacity="0.46" d="M316.744 122.078C316.744 122.078 317.668 119.196 312.349 118.597C307.031 117.998 302.778 120.251 304.524 124.017C304.524 124.017 308.543 127.214 316.744 122.078Z" fill="white"/>
<path d="M298.29 171.396L301.037 173.617L305.262 168.393L302.516 166.172L298.29 171.396Z" fill="#24285B"/>
<path opacity="0.08" d="M255.104 127.387H229.881V130.503H255.104V127.387Z" fill="black"/>
<path opacity="0.08" d="M227.465 127.387H181.151V130.503H227.465V127.387Z" fill="black"/>
<path opacity="0.08" d="M193.087 137.588H181.151V140.704H193.087V137.588Z" fill="black"/>
<path opacity="0.08" d="M239.726 137.588H197.746V140.704H239.726V137.588Z" fill="black"/>
<path opacity="0.08" d="M209.672 147.778H181.151V150.894H209.672V147.778Z" fill="black"/>
<path opacity="0.08" d="M238.864 147.778H213.641V150.894H238.864V147.778Z" fill="black"/>
<path opacity="0.08" d="M194.295 157.969H181.151V161.085H194.295V157.969Z" fill="black"/>
<path opacity="0.08" d="M230.398 157.969H196.538V161.085H230.398V157.969Z" fill="black"/>
<path opacity="0.58" d="M333.411 275.729C333.411 275.729 324.773 273.364 322.896 265.325C322.896 265.325 336.283 262.615 336.669 276.44L333.411 275.729Z" fill="#62A2FF"/>
<path opacity="0.73" d="M334.476 274.867C334.476 274.867 328.437 265.326 333.746 256.394C333.746 256.394 343.896 262.859 339.409 274.887L334.476 274.867Z" fill="#62A2FF"/>
<path d="M336.03 274.876C336.03 274.876 339.217 264.797 348.87 262.879C348.87 262.879 350.676 269.426 342.617 274.907L336.03 274.876Z" fill="#62A2FF"/>
<path d="M329.757 274.644L331.513 286.631L342.546 286.681L344.18 274.704L329.757 274.644Z" fill="#24285B"/>
<path d="M154.487 194.722C154.487 194.722 173.853 199.959 183.161 195.646C192.468 191.332 191.362 171.083 191.362 171.083C191.362 171.083 190.621 162.333 190.996 161.826C191.372 161.318 192.57 161.826 192.428 164.871C193.004 164.866 193.565 165.055 194.02 165.409C194.475 165.763 194.797 166.26 194.935 166.82C195.066 167.405 195.055 168.013 194.901 168.592C194.747 169.172 194.456 169.706 194.052 170.149C194.052 170.149 203.318 192.337 191.788 203.299C180.258 214.261 154.487 205.785 154.487 205.785V194.722Z" fill="#F4A28C"/>
<path d="M158.08 179.497C158.596 181.354 158.859 183.273 158.861 185.201C158.847 185.43 158.788 185.654 158.686 185.86C158.585 186.066 158.444 186.249 158.271 186.4C158.098 186.552 157.897 186.667 157.68 186.74C157.462 186.813 157.233 186.842 157.004 186.825C156.262 186.822 155.537 186.604 154.917 186.197C154.297 185.789 153.809 185.211 153.512 184.531L151.939 181.73C151.683 181.138 151.617 180.482 151.749 179.851C151.882 179.22 152.207 178.646 152.68 178.208C154.344 176.482 157.623 177.436 158.08 179.497Z" fill="#F4A28C"/>
<path d="M152.589 182.431L149.869 193.474L156.06 194.54L155.563 186.288L152.589 182.431Z" fill="#F4A28C"/>
<path d="M158.557 181.629L159.785 182.745C159.853 182.81 159.903 182.891 159.932 182.981C159.96 183.07 159.965 183.165 159.947 183.257C159.929 183.349 159.888 183.435 159.827 183.507C159.767 183.579 159.69 183.635 159.602 183.669L158.344 184.156L158.557 181.629Z" fill="#F4A28C"/>
<path opacity="0.31" d="M155.583 186.521C154.58 186.081 153.667 185.458 152.893 184.684C152.893 184.684 153.015 189.221 155.816 190.55L155.583 186.521Z" fill="#CE8172"/>
<path d="M154.639 182.643C154.639 182.643 154.365 181.334 153.401 181.628C152.436 181.922 152.812 183.81 154.182 183.729L154.639 182.643Z" fill="#F4A28C"/>
<path d="M152.68 181.294C152.68 181.294 150.995 180.279 150.366 181.629C149.736 182.979 151.624 184.024 152.903 183.212C152.6 182.621 152.521 181.939 152.68 181.294V181.294Z" fill="#F4A28C"/>
<path d="M126.229 284.185H166.423V255.46H126.229V284.185Z" fill="#F0F0F0"/>
<path opacity="0.08" d="M155.816 284.184L157.755 258.891L165.814 260.119L168.22 269.822L166.433 284.184H155.816Z" fill="black"/>
<path d="M156.831 280.865C156.831 280.865 157.694 283.261 159.876 283.443C162.058 283.626 162.607 285.737 160.658 286.295C158.709 286.854 153.695 284.337 153.695 284.337L153.837 281.22L156.831 280.865Z" fill="#62A2FF"/>
<path d="M156.588 194.418L150.396 193.342C150.396 193.342 129.812 193.342 126.209 200.447C122.606 207.552 123.357 233.739 135.263 255.257L159.623 255.967C159.623 255.967 158.263 240.143 162.81 231.526C167.357 222.909 183.13 214.21 156.588 194.418Z" fill="#62A2FF"/>
<path d="M135.263 255.256L147.189 253.46C148.911 253.2 150.67 253.338 152.331 253.862C153.992 254.387 155.511 255.284 156.772 256.486C158.033 257.688 159.002 259.163 159.605 260.797C160.208 262.431 160.429 264.181 160.252 265.914L158.689 281.068H152.843L153.35 266.858C153.38 266.064 153.233 265.273 152.92 264.543C152.607 263.813 152.136 263.161 151.541 262.635C150.946 262.108 150.241 261.721 149.478 261.5C148.715 261.279 147.912 261.23 147.128 261.357C142.053 262.199 135.77 261.844 135.263 255.256Z" fill="#24285B"/>
<path d="M168.971 280.865C168.971 280.865 169.834 283.261 172.016 283.443C174.198 283.626 174.746 285.737 172.797 286.295C170.849 286.854 165.834 284.337 165.834 284.337L165.977 281.22L168.971 280.865Z" fill="#62A2FF"/>
<path opacity="0.08" d="M137.353 202.954C137.353 202.954 144.113 208.882 142.753 215.418C142.54 216.484 142.306 217.763 142.083 219.153C141.201 224.582 141.528 230.137 143.042 235.424C144.557 240.711 147.22 245.598 150.843 249.735L155.106 254.607L135.262 255.267L133.567 251.948L124.311 236.54L137.353 202.954Z" fill="black"/>
<path d="M147.402 255.256L159.328 253.46C161.05 253.2 162.809 253.338 164.47 253.862C166.131 254.387 167.65 255.284 168.911 256.486C170.172 257.688 171.141 259.163 171.744 260.797C172.347 262.431 172.569 264.181 172.391 265.914L170.828 281.068H164.982L165.489 266.858C165.519 266.064 165.372 265.273 165.059 264.543C164.746 263.813 164.275 263.161 163.68 262.635C163.085 262.108 162.38 261.721 161.617 261.5C160.854 261.279 160.052 261.23 159.267 261.357C154.192 262.199 147.909 261.844 147.402 255.256Z" fill="#24285B"/>
<path d="M151.665 248.72L137.455 245.198C136.68 245.088 135.939 244.81 135.281 244.386C134.624 243.961 134.066 243.399 133.647 242.738C133.227 242.078 132.956 241.334 132.851 240.559C132.746 239.783 132.811 238.994 133.04 238.246C135.527 230.034 139.394 215.154 138.399 204.548C138.278 203.128 137.725 201.78 136.815 200.685C135.904 199.589 134.68 198.799 133.308 198.42C131.935 198.04 130.478 198.091 129.135 198.564C127.791 199.037 126.625 199.91 125.793 201.066C121.276 207.42 117.257 221.458 120.718 241.24C121.236 244.157 122.718 246.817 124.926 248.793C127.134 250.769 129.941 251.948 132.898 252.141L151.665 253.329C151.665 253.329 157.065 256.424 158.151 252.476C159.237 248.528 151.665 248.72 151.665 248.72Z" fill="#F4A28C"/>
<path d="M154.639 178.543H154.761C155.151 178.7 155.555 178.819 155.969 178.898C156.407 178.905 156.836 178.769 157.191 178.511C157.546 178.253 157.808 177.886 157.938 177.467C158.044 177.04 158.048 176.594 157.949 176.166C157.85 175.737 157.652 175.338 157.369 175.001C155.816 173.042 153.116 173.123 151.036 174.128C148.548 175.165 146.565 177.137 145.514 179.619C144.859 181.387 144.033 183.087 143.048 184.694C142.095 186.041 140.803 187.113 139.302 187.8C140.351 188.979 141.66 189.898 143.126 190.483C144.592 191.068 146.174 191.303 147.747 191.17C148.672 191.211 149.591 191.004 150.409 190.569C151.226 190.135 151.913 189.489 152.396 188.699C152.879 187.909 153.141 187.004 153.155 186.078C153.17 185.152 152.935 184.24 152.477 183.435C152.061 182.836 150.295 181.994 151.604 181.03C152 180.746 152.69 181.03 152.68 181.487C152.68 180.729 152.821 179.979 153.096 179.274C153.183 179.018 153.337 178.79 153.543 178.614C153.709 178.522 153.893 178.468 154.083 178.456C154.272 178.444 154.462 178.473 154.639 178.543V178.543Z" fill="#24285B"/>
<path d="M210.231 243.279H158.831V289.411H210.231V243.279Z" fill="#FFD200"/>
<path d="M213.012 237.92H156.06V243.279H213.012V237.92Z" fill="#FFD200"/>
<path opacity="0.08" d="M210.231 243.279V253.48C209.502 254.027 208.743 254.532 207.957 254.992C204.171 257.215 199.837 258.352 195.838 260.169C185.688 264.747 177.883 273.587 172.889 283.514C171.925 285.432 171.052 287.401 170.27 289.391H158.831V243.279H210.231Z" fill="black"/>
<path d="M195.543 232.521H166.758V237.92H195.543V232.521Z" fill="#24285B"/>
<path d="M198.324 227.588H169.539V232.521H198.324V227.588Z" fill="#24285B"/>
<path opacity="0.46" d="M198.324 227.588H169.539V232.521H198.324V227.588Z" fill="white"/>
</g>
<defs>
<filter id="filter0_d" x="0.864746" y="0.0439453" width="486.271" height="407.912" filterUnits="userSpaceOnUse" color-interpolation-filters="sRGB">
<feFlood flood-opacity="0" result="BackgroundImageFix"/>
<feColorMatrix in="SourceAlpha" type="matrix" values="0 0 0 0 0 0 0 0 0 0 0 0 0 0 0 0 0 0 127 0"/>
<feOffset dx="2" dy="4"/>
<feGaussianBlur stdDeviation="50"/>
<feColorMatrix type="matrix" values="0 0 0 0 0.229167 0 0 0 0 0.229167 0 0 0 0 0.229167 0 0 0 0.25 0"/>
<feBlend mode="normal" in2="BackgroundImageFix" result="effect1_dropShadow"/>
<feBlend mode="normal" in="SourceGraphic" in2="effect1_dropShadow" result="shape"/>
</filter>
</defs>
</svg>
