<svg width="550" height="456" viewBox="0 0 550 456" fill="none" xmlns="http://www.w3.org/2000/svg">
<g filter="url(#filter0_d)">
<path opacity="0.18" d="M439.367 249.735C443.954 258.706 447.339 267.821 447.945 277.261C448.081 279.681 447.966 282.107 447.603 284.509C447.23 287.18 446.576 289.814 445.646 292.38" fill="#62A2FF"/>
<path opacity="0.18" d="M418.385 320.399C410.863 329.779 399.742 337.164 386.947 339.654C372.275 342.502 357.143 338.844 342.716 335.254C321.451 329.95 299.57 324.757 277.561 326.539C240.93 329.464 208.465 351.336 171.697 351.993C160.288 352.135 148.968 350.222 138.446 346.373C127.925 342.524 118.429 336.823 110.553 329.626C106.415 325.789 102.727 321.482 100.546 316.554C98.0616 310.883 97.7388 304.658 98.1497 298.595C99.255 282.471 105.261 267.65 115.081 254.254L115.316 253.93C125.383 240.221 131.181 224.463 132.14 208.207C132.483 202.29 132.14 196.346 132.659 190.437C133.568 179.172 137.344 168.189 142.44 157.82C149.913 142.668 160.604 128.436 175.482 118.314C185.576 111.441 197.295 106.649 208.905 101.925C214.862 99.4946 220.936 97.0388 227.49 96.2628C232.049 95.8351 236.653 95.9297 241.184 96.5442C245.097 96.9763 248.947 97.5703 252.736 98.3264C274.933 102.767 295.488 112.014 312.501 125.213C330.401 139.035 345.347 154.512 360.195 170.799C380.502 193.063 403.899 213.673 418.454 239.136C421.236 243.999 423.594 249.039 425.506 254.212C433.762 276.544 433.576 301.503 418.385 320.399Z" fill="#62A2FF"/>
<path opacity="0.39" d="M287.988 325.831C337.817 325.831 378.212 319.478 378.212 311.641C378.212 303.805 337.817 297.452 287.988 297.452C238.158 297.452 197.764 303.805 197.764 311.641C197.764 319.478 238.158 325.831 287.988 325.831Z" fill="#62A2FF"/>
<path d="M250.662 322.403C222.746 322.053 200.239 313.713 200.386 303.796C200.386 302.688 199.407 296.446 199.984 295.457C204.386 287.109 226.394 286.077 251.239 286.435C275.693 286.742 296.185 286.435 300.763 294.664C301.418 295.84 301.545 303.847 301.516 305.041C301.34 314.984 278.579 322.701 250.662 322.403Z" fill="#E8A825"/>
<path d="M297.128 293.553C297.241 283.622 274.697 275.374 246.775 275.132C218.853 274.89 196.125 282.745 196.012 292.676C195.899 302.608 218.442 310.855 246.365 311.098C274.287 311.34 297.014 303.485 297.128 293.553Z" fill="#F8C244"/>
<path d="M293.656 296.682C293.795 288.22 274.623 281.119 250.834 280.823C227.045 280.526 207.648 287.145 207.509 295.607C207.37 304.069 226.542 311.169 250.331 311.466C274.12 311.763 293.517 305.144 293.656 296.682Z" fill="#E8A825"/>
<path d="M223.412 294.331L230.318 294.425C230.452 293.643 230.801 292.901 231.334 292.262C231.867 291.622 232.568 291.104 233.379 290.75L237.947 291.39C237.162 291.714 236.479 292.201 235.958 292.807C235.437 293.413 235.092 294.121 234.954 294.869C234.954 296.574 237.722 297.785 241.615 297.845C243.116 297.938 244.623 297.75 246.034 297.292C247.444 296.835 248.726 296.119 249.792 295.193C251.317 293.816 253.176 292.756 255.232 292.088C257.289 291.421 259.491 291.165 261.677 291.338C267.37 291.338 271.644 292.882 272.642 295.141L279.548 295.235V296.736L272.935 296.651C272.819 297.299 272.539 297.916 272.116 298.459C271.693 299.001 271.138 299.456 270.49 299.789L265.981 299.107C266.622 298.8 267.169 298.363 267.576 297.833C267.983 297.304 268.238 296.696 268.319 296.062C268.319 294.221 265.198 293.453 262.45 293.41C260.975 293.336 259.5 293.562 258.142 294.069C256.784 294.577 255.58 295.353 254.624 296.335C251.69 298.8 248.13 300.011 241.977 300.011C236.578 300.011 231.442 298.561 230.406 296.02H223.304L223.412 294.331Z" fill="#F8C244"/>
<path d="M255.866 308.411C227.94 308.061 205.433 299.739 205.599 289.796C205.599 288.696 204.621 282.446 205.198 281.457C209.6 273.117 231.608 272.136 256.453 272.435C280.907 272.75 301.389 272.435 305.957 280.664C306.632 281.84 306.74 289.847 306.72 291.041C306.573 300.958 283.783 308.752 255.866 308.411Z" fill="#E8A825"/>
<path d="M306.36 282.751C306.523 272.82 284.021 264.487 256.1 264.139C228.179 263.79 205.412 271.559 205.249 281.49C205.086 291.421 227.588 299.754 255.509 300.102C283.43 300.451 306.197 292.682 306.36 282.751Z" fill="#F8C244"/>
<path d="M298.877 282.658C299.016 274.196 279.844 267.096 256.056 266.799C232.267 266.502 212.87 273.122 212.731 281.584C212.592 290.045 231.764 297.146 255.553 297.443C279.341 297.74 298.738 291.12 298.877 282.658Z" fill="#E8A825"/>
<path d="M228.634 280.441H235.53C235.665 279.658 236.015 278.915 236.55 278.275C237.085 277.636 237.788 277.118 238.602 276.766L243.179 277.414C242.39 277.726 241.703 278.206 241.18 278.809C240.657 279.412 240.316 280.12 240.186 280.867C240.186 282.573 242.945 283.809 246.818 283.843C248.323 283.95 249.836 283.769 251.252 283.312C252.668 282.855 253.952 282.134 255.015 281.2C256.536 279.817 258.396 278.751 260.455 278.082C262.515 277.413 264.721 277.158 266.909 277.337C272.573 277.337 276.877 278.897 277.865 281.14L284.76 281.234V282.743L278.119 282.649C278.017 283.301 277.743 283.924 277.319 284.469C276.894 285.013 276.331 285.464 275.674 285.787L271.184 285.131C271.825 284.82 272.373 284.382 272.783 283.851C273.193 283.321 273.453 282.713 273.541 282.078C273.541 280.245 270.45 279.469 267.672 279.435C266.206 279.362 264.739 279.581 263.384 280.074C262.028 280.567 260.819 281.323 259.847 282.283C256.913 284.739 253.362 285.958 247.2 285.958C241.791 285.958 236.665 284.483 235.638 281.967L228.537 281.873L228.634 280.441Z" fill="#F8C244"/>
<path d="M255.866 293.521C227.94 293.171 205.433 284.849 205.599 274.915C205.599 273.815 204.621 267.564 205.198 266.575C209.6 258.227 231.608 257.255 256.453 257.553C280.907 257.86 301.389 257.553 305.957 265.782C306.632 266.959 306.74 274.966 306.72 276.16C306.573 286.102 283.783 293.87 255.866 293.521Z" fill="#E8A825"/>
<path d="M306.361 267.881C306.524 257.95 284.022 249.617 256.101 249.268C228.18 248.92 205.414 256.688 205.251 266.62C205.088 276.551 227.59 284.884 255.511 285.232C283.432 285.581 306.198 277.812 306.361 267.881Z" fill="#F8C244"/>
<path d="M298.879 264.664C299.018 256.202 279.846 249.102 256.058 248.805C232.269 248.508 212.872 255.127 212.733 263.589C212.594 272.051 231.766 279.152 255.555 279.449C279.343 279.745 298.74 273.126 298.879 264.664Z" fill="#E8A825"/>
<path d="M228.634 265.45L235.53 265.543C235.661 264.759 236.01 264.015 236.545 263.375C237.08 262.734 237.786 262.217 238.602 261.868L243.179 262.491C242.389 262.809 241.702 263.294 241.18 263.901C240.658 264.509 240.316 265.219 240.186 265.97C240.186 267.675 242.945 268.903 246.818 268.946C248.324 269.051 249.837 268.868 251.253 268.41C252.669 267.952 253.953 267.23 255.015 266.294C256.536 264.912 258.397 263.847 260.456 263.18C262.516 262.512 264.722 262.259 266.909 262.439C272.573 262.439 276.877 264 277.865 266.243L284.76 266.336V267.837L278.119 267.752C278.013 268.403 277.738 269.024 277.314 269.568C276.89 270.112 276.329 270.564 275.674 270.89L271.203 270.259C271.846 269.951 272.395 269.515 272.805 268.985C273.215 268.456 273.474 267.849 273.561 267.215C273.561 265.373 270.47 264.605 267.692 264.563C266.218 264.496 264.746 264.726 263.389 265.233C262.033 265.74 260.828 266.511 259.867 267.488C256.932 269.952 253.372 271.163 247.219 271.163C241.81 271.163 236.685 269.696 235.648 267.172L228.546 267.087L228.634 265.45Z" fill="#F8C244"/>
<path d="M255.925 276.767C227.999 276.468 205.472 268.171 205.599 258.246C205.599 257.146 204.621 250.904 205.179 249.906C209.561 241.558 231.589 240.526 256.404 240.79C280.858 241.055 301.399 240.705 305.957 248.925C306.612 250.102 306.759 258.109 306.74 259.303C306.593 269.246 283.851 277.005 255.925 276.767Z" fill="#E8A825"/>
<path d="M306.437 247.916C306.55 237.984 284.006 229.736 256.084 229.494C228.162 229.252 205.434 237.107 205.321 247.039C205.208 256.97 227.751 265.218 255.674 265.46C283.596 265.702 306.323 257.847 306.437 247.916Z" fill="#F8C244"/>
<path d="M226.737 250.024L233.643 250.118C233.778 249.336 234.126 248.594 234.659 247.954C235.192 247.315 235.893 246.796 236.704 246.442L241.272 247.09C240.487 247.413 239.804 247.897 239.282 248.502C238.761 249.107 238.416 249.814 238.279 250.561C238.279 252.266 241.047 253.477 244.94 253.537C246.441 253.63 247.947 253.443 249.357 252.987C250.768 252.531 252.05 251.817 253.118 250.894C254.641 249.516 256.499 248.453 258.556 247.785C260.613 247.116 262.816 246.859 265.002 247.031C270.695 247.031 274.969 248.574 275.967 250.834L282.873 250.928V252.428L276.261 252.343C276.144 252.991 275.864 253.609 275.441 254.151C275.019 254.694 274.463 255.148 273.815 255.481L269.306 254.799C269.947 254.492 270.494 254.056 270.901 253.526C271.308 252.996 271.563 252.389 271.644 251.755C271.644 249.913 268.523 249.145 265.775 249.111C264.3 249.033 262.825 249.256 261.467 249.763C260.108 250.269 258.904 251.045 257.95 252.028C255.015 254.492 251.455 255.703 245.302 255.703C239.903 255.703 234.768 254.253 233.731 251.712H226.629L226.737 250.024Z" fill="#F8C244"/>
<path d="M257.431 260.598C229.505 260.249 206.998 251.926 207.174 241.984C207.174 240.884 206.195 234.642 206.773 233.644C211.174 225.305 233.183 224.332 258.018 224.622C282.471 224.938 302.954 224.622 307.531 232.86C308.197 234.028 308.304 242.043 308.285 243.237C308.138 253.205 285.357 260.948 257.431 260.598Z" fill="#E8A825"/>
<path d="M307.923 234.946C308.086 225.014 285.584 216.681 257.663 216.333C229.742 215.985 206.975 223.753 206.812 233.684C206.649 243.615 229.151 251.948 257.072 252.297C284.993 252.645 307.76 244.877 307.923 234.946Z" fill="#F8C244"/>
<path d="M300.44 234.853C300.579 226.391 281.407 219.29 257.619 218.994C233.83 218.697 214.433 225.316 214.294 233.778C214.155 242.24 233.327 249.34 257.116 249.637C280.904 249.934 300.301 243.315 300.44 234.853Z" fill="#E8A825"/>
<path d="M231.96 236.151H238.856C238.991 235.368 239.341 234.625 239.876 233.985C240.41 233.346 241.114 232.828 241.928 232.476L246.505 233.124C245.722 233.432 245.039 233.906 244.516 234.501C243.994 235.096 243.649 235.795 243.512 236.535C243.512 238.24 246.271 239.476 250.144 239.51C251.649 239.617 253.162 239.436 254.578 238.979C255.994 238.523 257.278 237.802 258.341 236.867C259.863 235.49 261.723 234.43 263.78 233.765C265.838 233.101 268.041 232.849 270.225 233.03C275.889 233.03 280.193 234.59 281.181 236.833L288.028 236.927V238.436L281.386 238.342C281.284 238.994 281.01 239.617 280.586 240.161C280.161 240.706 279.598 241.157 278.941 241.48L274.451 240.824C275.092 240.513 275.64 240.075 276.05 239.544C276.46 239.014 276.72 238.406 276.808 237.771C276.808 235.938 273.717 235.162 270.939 235.128C269.473 235.055 268.007 235.274 266.651 235.767C265.296 236.26 264.086 237.015 263.114 237.976C260.18 240.44 256.629 241.651 250.467 241.651C245.058 241.651 239.932 240.176 238.905 237.66L231.804 237.566L231.96 236.151Z" fill="#F8C244"/>
<path d="M256.649 246.434C228.732 246.085 206.225 237.762 206.391 227.82C206.391 226.72 205.413 220.469 205.99 219.48C210.392 211.14 232.4 210.168 257.245 210.458C281.699 210.774 302.172 210.458 306.749 218.687C307.424 219.864 307.532 227.879 307.502 229.073C307.395 239.007 284.575 246.784 256.649 246.434Z" fill="#E8A825"/>
<path d="M307.151 220.785C307.314 210.853 284.812 202.52 256.891 202.172C228.97 201.823 206.203 209.592 206.04 219.523C205.877 229.454 228.379 237.787 256.3 238.136C284.221 238.484 306.988 230.716 307.151 220.785Z" fill="#F8C244"/>
<path d="M299.669 220.691C299.808 212.229 280.636 205.128 256.848 204.831C233.059 204.535 213.662 211.154 213.523 219.616C213.384 228.078 232.556 235.178 256.345 235.475C280.133 235.772 299.53 229.153 299.669 220.691Z" fill="#E8A825"/>
<path d="M229.427 218.362L236.274 218.448C236.412 217.665 236.763 216.922 237.3 216.282C237.836 215.642 238.541 215.125 239.355 214.772L243.923 215.403C243.136 215.723 242.451 216.207 241.929 216.813C241.407 217.418 241.064 218.126 240.93 218.874C240.93 220.579 243.698 221.816 247.572 221.85C249.076 221.957 250.59 221.775 252.005 221.319C253.421 220.862 254.706 220.141 255.768 219.207C257.288 217.824 259.146 216.759 261.204 216.09C263.262 215.421 265.466 215.166 267.653 215.344C273.326 215.344 277.63 216.904 278.618 219.147L285.465 219.241V220.75L278.833 220.656C278.731 221.308 278.457 221.931 278.033 222.475C277.609 223.02 277.046 223.471 276.388 223.794L271.898 223.138C272.539 222.826 273.086 222.387 273.495 221.857C273.905 221.327 274.165 220.719 274.255 220.085C274.255 218.252 271.155 217.476 268.386 217.441C266.913 217.372 265.441 217.599 264.084 218.105C262.727 218.61 261.522 219.381 260.561 220.358C257.627 222.822 254.066 224.033 247.914 224.033C242.495 224.033 237.379 222.566 236.342 220.051L229.339 219.948L229.427 218.362Z" fill="#F8C244"/>
<path d="M284.956 216.76C286.394 218.235 286.12 220.555 284.878 222.166C283.517 223.705 281.743 224.929 279.713 225.731C266.997 231.632 252.609 234.087 238.553 236.867C238.022 236.932 237.518 237.111 237.086 237.387C236.293 237.993 236.352 239.093 236.283 239.945C236.019 242.956 233.623 245.48 232.645 248.379C232.065 250.575 231.89 252.837 232.126 255.081L232.977 273.372C233.075 274.02 232.963 274.678 232.655 275.274C232.182 275.86 231.491 276.285 230.698 276.476C227.815 277.338 224.68 277.311 221.817 276.399C221.299 276.265 220.833 276.012 220.467 275.666C220.129 275.205 219.946 274.67 219.939 274.122C218.647 262.858 216.72 251.645 214.148 240.551C213.703 239.211 213.646 237.796 213.982 236.432C214.774 234.156 217.532 232.945 220.027 231.973L249.684 220.504C251.448 219.899 253.118 219.103 254.653 218.133C255.7 217.408 256.609 216.53 257.587 215.771C261.285 213.034 266.009 212.462 270.567 213.452C274.676 214.33 282.119 213.844 284.956 216.76Z" fill="url(#paint0_linear)"/>
<path d="M226.326 273.585C226.326 276.22 221.435 278.702 219.058 279.324C218.048 279.515 217.064 279.801 216.124 280.177C215.665 280.374 215.28 280.68 215.013 281.061C214.747 281.441 214.609 281.88 214.618 282.326C214.715 283.102 215.439 283.724 215.596 284.483C215.691 285.142 215.593 285.81 215.312 286.427C214.412 288.985 210.803 290.571 209.913 293.121C204.914 292.678 202.655 293.044 197.705 292.319L193.578 290.017C195.651 286.606 197.715 283.247 199.818 279.844C200.614 278.406 201.599 277.052 202.753 275.811C204.107 274.575 205.647 273.505 207.33 272.63C211.696 270.163 216.24 267.947 220.936 265.996C220.34 266.269 226.326 272.903 226.326 273.585Z" fill="url(#paint1_linear)"/>
<path d="M232.264 191.324C231.707 191.584 231.072 191.688 230.444 191.622C230.551 189.282 231.117 186.975 232.117 184.8C233.144 182.907 234.817 181.338 236.206 179.624C236.941 178.635 237.735 177.678 238.583 176.759C239.419 175.819 240.561 175.121 241.859 174.755C241.959 174.716 242.07 174.702 242.178 174.714C242.287 174.726 242.39 174.764 242.476 174.824C242.547 174.905 242.592 175.003 242.603 175.105L243.786 180.98C244.074 181.915 244.057 182.901 243.737 183.828C243.139 184.667 242.37 185.404 241.468 186.003C239.738 187.433 237.828 188.689 235.775 189.746C234.642 190.334 233.47 190.86 232.264 191.324V191.324Z" fill="#FBC6D7"/>
<path d="M232.264 191.324C231.707 191.584 231.072 191.688 230.444 191.622C230.551 189.282 231.117 186.975 232.117 184.8C233.144 182.907 234.817 181.338 236.206 179.624C236.941 178.635 237.735 177.678 238.583 176.759C239.419 175.819 240.561 175.121 241.859 174.755C241.959 174.716 242.07 174.702 242.178 174.714C242.287 174.726 242.39 174.764 242.476 174.824C242.547 174.905 242.592 175.003 242.603 175.105L243.786 180.98C244.074 181.915 244.057 182.901 243.737 183.828C243.139 184.667 242.37 185.404 241.468 186.003C239.738 187.433 237.828 188.689 235.775 189.746C234.642 190.334 233.47 190.86 232.264 191.324V191.324Z" fill="url(#paint2_linear)"/>
<path d="M223.421 261.621C223.929 263.07 224.399 264.776 223.421 265.995C222.946 266.514 222.317 266.909 221.602 267.138C220.77 267.495 219.84 267.639 218.919 267.553C217.998 267.467 217.123 267.154 216.398 266.652C215.632 265.913 215.091 265.019 214.823 264.051C213.51 260.516 212.56 256.886 211.986 253.204C211.902 252.865 211.923 252.512 212.045 252.181C212.256 251.824 212.602 251.541 213.023 251.38C215.244 250.339 218.706 249.504 219.948 251.814C221.562 254.773 222.296 258.449 223.421 261.621Z" fill="#FBC6D7"/>
<path d="M216.731 263.301C216.26 263.245 215.781 263.285 215.332 263.42C215.026 263.569 214.759 263.772 214.549 264.017L209.747 268.801C208.818 269.722 207.79 270.992 208.485 272.084C208.714 272.387 209.019 272.642 209.376 272.83C209.733 273.017 210.134 273.132 210.549 273.167C212.838 273.525 215.156 272.809 217.298 271.998C218.775 271.436 220.233 270.813 221.661 270.148C222.737 269.725 223.675 269.074 224.39 268.255C225.485 266.771 225.808 263.224 223.852 262.115C222.873 261.561 222.013 261.962 221.074 262.346C219.74 262.974 218.247 263.302 216.731 263.301V263.301Z" fill="#62A2FF"/>
<path d="M196.786 277.882C196.745 278.152 196.778 278.427 196.884 278.684C197.048 278.942 197.292 279.155 197.588 279.298C198.498 279.854 199.57 280.173 200.679 280.219C201.238 280.238 201.795 280.143 202.304 279.942C202.814 279.741 203.262 279.438 203.614 279.059C204.13 278.34 204.442 277.525 204.523 276.68C204.927 274.859 205.127 273.009 205.12 271.154C205.133 271.024 205.116 270.893 205.071 270.769C205.026 270.645 204.953 270.529 204.856 270.43C204.695 270.325 204.507 270.257 204.308 270.233C202.567 269.918 199.134 269.116 198.253 270.992C197.345 273.206 196.849 275.532 196.786 277.882V277.882Z" fill="#FBC6D7"/>
<path d="M189.469 277.695C187.986 277.761 186.521 278.008 185.117 278.428C184.414 278.643 183.768 278.981 183.22 279.421C182.672 279.861 182.232 280.393 181.928 280.986C181.65 281.578 181.619 282.235 181.84 282.845C182.319 283.738 183.163 284.443 184.207 284.823C189.148 287.15 194.742 288.217 200.346 287.902C201.792 287.947 203.199 287.49 204.259 286.631C205.169 285.719 205.237 284.388 205.296 283.169L205.491 277.379C204.239 277.209 203.085 277.925 201.892 278.283C199.838 278.897 199.026 277.43 197.324 277.064C195.094 276.629 191.739 277.498 189.469 277.695Z" fill="#62A2FF"/>
<path d="M216.731 263.301C216.26 263.245 215.781 263.285 215.332 263.42C215.026 263.569 214.759 263.772 214.549 264.017L209.747 268.801C208.818 269.722 207.79 270.992 208.485 272.084C208.714 272.387 209.019 272.642 209.376 272.83C209.733 273.017 210.134 273.132 210.549 273.167C212.838 273.525 215.156 272.809 217.298 271.998C218.775 271.436 220.233 270.813 221.661 270.148C222.737 269.725 223.675 269.074 224.39 268.255C225.485 266.771 225.808 263.224 223.852 262.115C222.873 261.561 222.013 261.962 221.074 262.346C219.74 262.974 218.247 263.302 216.731 263.301V263.301Z" fill="url(#paint3_linear)"/>
<path d="M189.469 277.695C187.986 277.761 186.521 278.008 185.117 278.428C184.414 278.643 183.768 278.981 183.22 279.421C182.672 279.861 182.232 280.393 181.928 280.986C181.65 281.578 181.619 282.235 181.84 282.845C182.319 283.738 183.163 284.443 184.207 284.823C189.148 287.15 194.742 288.217 200.346 287.902C201.792 287.947 203.199 287.49 204.259 286.631C205.169 285.719 205.237 284.388 205.296 283.169L205.491 277.379C204.239 277.209 203.085 277.925 201.892 278.283C199.838 278.897 199.026 277.43 197.324 277.064C195.094 276.629 191.739 277.498 189.469 277.695Z" fill="url(#paint4_linear)"/>
<path d="M207.213 213.767C205.795 214.019 204.485 214.61 203.428 215.472C202.195 216.683 202.088 218.474 202.088 220.103C202.12 231.8 204.613 243.392 209.444 254.305C209.679 255.116 210.273 255.812 211.097 256.241C211.835 256.427 212.623 256.394 213.337 256.147C216.236 255.438 219.093 254.602 221.895 253.64L218.1 231.41C217.923 230.791 217.963 230.14 218.218 229.542C218.494 229.111 218.887 228.745 219.362 228.476C223.691 225.685 228.27 223.201 233.056 221.049C236.851 219.344 241.204 217.399 242.251 213.741C242.461 213.127 242.502 212.478 242.372 211.847C242.241 211.216 241.941 210.62 241.497 210.109C240.898 209.582 240.187 209.162 239.404 208.872C236.881 207.772 233.702 206.357 230.797 206.621C228.478 206.834 227.588 208.02 225.642 208.898C220.193 211.362 213.053 212.275 207.213 213.767Z" fill="#282328"/>
<path d="M248.295 213.332C245.941 212.527 243.653 211.581 241.448 210.501C233.066 206.417 239.932 204.404 242.73 199.475C244.686 195.988 243.913 191.801 242.867 188.015C241.047 181.355 238.612 174.465 240.372 167.797C240.6 166.717 241.087 165.692 241.801 164.787C242.312 164.229 242.9 163.728 243.551 163.295C245.32 161.954 247.351 160.903 249.547 160.191C253.773 158.98 258.458 159.867 262.43 161.632C278.031 168.556 281.357 186.071 280.741 200.064C280.564 203.952 279.899 208.071 277.063 211.038C274.402 213.827 270.216 215.14 266.137 215.592C260.067 216.144 253.934 215.367 248.295 213.332V213.332Z" fill="white"/>
<path d="M257.715 169.741C257.034 170.486 256.182 171.099 255.213 171.539C254.245 171.98 253.181 172.239 252.09 172.299C251.749 172.335 251.404 172.269 251.112 172.111C250.805 171.834 250.63 171.465 250.623 171.08C250.525 170.312 250.398 169.323 250.3 168.342C250.203 167.362 250.026 166.159 249.909 165.324C249.646 163.099 248.677 160.982 247.112 159.21C246.794 158.822 246.422 158.47 246.006 158.161C243.307 156.038 254.301 156.873 255.788 153.991C257.46 155.867 257.314 158.519 258.047 160.813C258.523 161.93 258.931 163.069 259.27 164.224C259.475 165.187 259.442 166.177 259.174 167.128C258.906 168.08 258.408 168.97 257.715 169.741V169.741Z" fill="#FBC6D7"/>
<path d="M250.447 168.786L250.301 168.334C250.154 167.243 250.027 166.152 249.909 165.316C249.646 163.091 248.678 160.974 247.112 159.202L247.034 158.963C247.034 158.963 255.749 153.983 256.678 159.816C257.607 165.648 250.447 168.786 250.447 168.786Z" fill="url(#paint5_linear)"/>
<path d="M241.312 155.748C241.135 156.962 241.391 158.195 242.045 159.278C242.392 159.731 242.83 160.127 243.336 160.446C246.799 162.723 252.003 162.263 255.446 159.909C258.889 157.556 260.669 153.642 260.855 149.813C260.943 147.818 260.581 145.677 259.045 144.219C258.194 143.499 257.148 142.977 256.005 142.7C254.862 142.423 253.658 142.4 252.502 142.633C249.336 143.267 246.452 144.696 244.207 146.743C242.016 148.892 241.468 153.019 241.312 155.748Z" fill="#FBC6D7"/>
<path d="M209.933 229.269C208.136 231.284 206.717 233.535 205.727 235.937C200.246 247.666 196.689 260.01 195.163 272.604C199.635 273.099 204.16 273.099 208.632 272.604C208.984 263.705 210.537 254.872 213.259 246.289C213.74 244.449 214.562 242.689 215.694 241.079C217.651 238.521 220.957 237.046 224.097 235.664C231.322 232.528 238.888 230.029 246.682 228.203C249.969 227.393 253.285 226.668 256.464 225.705C259.23 224.983 261.822 223.827 264.113 222.294C265.262 221.51 266.219 220.533 266.928 219.422C267.637 218.31 268.083 217.086 268.24 215.822C268.192 216.461 251.905 215.762 250.389 215.617C245.283 215.14 239.258 212.547 234.211 214.372C230.298 215.805 226.65 218.789 223.099 220.853C218.736 223.36 213.415 225.688 209.933 229.269Z" fill="#473F47"/>
<path d="M233.193 228.322L261.618 216.025L228.713 205.69L202.792 215.718L233.193 228.322Z" fill="#62A2FF"/>
<path d="M233.026 226.455L256.766 216.188L229.29 207.559L207.644 215.932L233.026 226.455Z" fill="url(#paint6_linear)"/>
<path d="M272.651 175.667C272.729 176.094 272.788 176.52 272.837 176.946C273.609 183.248 272.915 189.456 272.651 195.706C272.485 199.594 271.907 206.996 267.242 208.983C258.517 212.709 241.692 211.277 241.692 211.277C239.74 211.001 237.744 211.071 235.824 211.481C234.777 211.771 233.818 212.257 232.791 212.598C229.113 213.852 224.966 213.221 221.132 212.598C220.462 212.525 219.816 212.334 219.234 212.036C217.728 211.183 217.796 209.026 218.921 207.772C220.164 206.601 221.801 205.804 223.597 205.495C228.487 204.25 233.818 203.705 238.729 204.975C239.374 205.137 240.02 205.333 240.685 205.444C241.458 205.552 242.24 205.6 243.023 205.589L248.97 205.632C255.817 205.691 262.224 205.717 263.251 198.639C263.632 196.024 263.711 193.381 263.486 190.752C263.075 185.994 261.676 181.287 261.969 176.528C261.98 175.026 262.399 173.547 263.192 172.214C263.594 171.556 264.182 171 264.902 170.598C265.621 170.196 266.447 169.963 267.3 169.92C268.192 169.982 269.051 170.246 269.79 170.686C270.529 171.125 271.124 171.725 271.516 172.427C272.108 173.441 272.492 174.538 272.651 175.667V175.667Z" fill="#FBC6D7"/>
<path d="M192.121 193.098L228.342 209.419L233.193 228.323L202.793 215.72L192.121 193.098Z" fill="#62A2FF"/>
<path d="M254.33 152.585C254.648 154.026 254.776 155.493 254.712 156.959C255.866 156.107 255.778 153.83 257.313 153.89C258.233 153.89 258.663 155.041 258.233 155.766C257.976 156.105 257.644 156.397 257.256 156.622C256.868 156.848 256.432 157.003 255.973 157.079C255.709 160.157 258.517 162.272 260.864 164.139C263.431 166.311 265.224 169.082 266.029 172.121C267.144 175.941 267.085 179.949 267.007 183.914C268.259 183.061 270.029 183.505 271.604 183.649C276.25 184.067 280.887 180.861 281.894 176.828C282.323 174.807 282.027 172.72 281.047 170.851C280.067 168.982 278.45 167.422 276.417 166.382C275.165 165.759 273.717 165.273 272.944 164.208C271.888 162.749 272.514 160.848 272.573 159.091C272.592 157.183 271.877 155.325 270.542 153.813C269.207 152.301 267.328 151.223 265.207 150.752C266.064 149.399 266.606 147.913 266.801 146.377C266.802 145.347 266.56 144.328 266.088 143.383C265.617 142.438 264.928 141.588 264.063 140.886C262.342 139.506 260.355 138.403 258.194 137.628C256.169 136.818 253.9 136.093 251.758 136.648C249.244 137.304 247.679 139.521 246.789 141.687C246.185 141.444 245.508 141.374 244.856 141.487C244.204 141.601 243.61 141.892 243.16 142.318C242.707 142.76 242.359 143.275 242.136 143.834C241.912 144.393 241.818 144.985 241.859 145.576C241.88 146.346 242.062 147.106 242.397 147.818C243.228 146.966 244.226 146.113 245.224 146.735C246.221 147.358 246.818 148.637 247.737 149.294C248.733 150.02 249.815 150.652 250.965 151.178C251.366 151.4 254.262 152.295 254.33 152.585Z" fill="#FC682D"/>
<path d="M241.731 170.338C241.751 170.24 241.794 170.146 241.858 170.064C241.922 169.982 242.006 169.912 242.103 169.86C242.445 169.749 242.768 170.073 243.14 170.125C243.276 170.133 243.412 170.116 243.539 170.073C243.665 170.03 243.78 169.963 243.874 169.877C244.063 169.708 244.239 169.529 244.402 169.34C244.685 169.067 245.038 168.846 245.311 168.564C245.572 168.281 245.746 167.944 245.816 167.586C245.886 167.228 245.85 166.86 245.712 166.518C246.131 166.437 246.504 166.229 246.762 165.93C247.02 165.631 247.147 165.262 247.121 164.889C247.087 164.78 247.087 164.665 247.121 164.556C247.209 164.403 247.424 164.369 247.61 164.326C247.907 164.252 248.18 164.118 248.406 163.934C248.633 163.75 248.805 163.522 248.911 163.269C248.984 163.129 249.007 162.974 248.979 162.822C248.952 162.67 248.873 162.529 248.755 162.416C248.606 162.327 248.435 162.272 248.256 162.254C246.837 162.007 245.419 161.794 243.991 161.614C243.777 161.591 243.567 161.545 243.365 161.478C243.062 161.35 242.847 161.111 242.563 160.966C242.162 160.811 241.709 160.787 241.289 160.898C240.869 161.009 240.509 161.248 240.274 161.572C239.867 162.294 239.58 163.064 239.423 163.857C239.061 164.71 239.1 165.665 238.689 166.518C238.385 167.113 238.022 167.683 237.604 168.223C235.775 170.781 228.536 179.232 226.932 181.014C225.22 182.941 223.548 185.03 223.196 187.443C223.04 188.285 223.145 189.147 223.499 189.942C224.8 192.619 229.182 193.353 231.657 191.57C232.86 190.612 233.776 189.412 234.327 188.074C234.796 187.077 235.051 186.028 235.491 185.03C235.913 184.293 236.38 183.576 236.89 182.881C238.036 180.958 239.017 178.962 239.824 176.912C240.313 175.676 240.724 174.422 241.076 173.152C241.242 172.512 241.399 171.873 241.536 171.225C241.614 171.037 241.634 170.653 241.731 170.338Z" fill="#FBC6D7"/>
</g>
<defs>
<filter id="filter0_d" x="0" y="0" width="550" height="456" filterUnits="userSpaceOnUse" color-interpolation-filters="sRGB">
<feFlood flood-opacity="0" result="BackgroundImageFix"/>
<feColorMatrix in="SourceAlpha" type="matrix" values="0 0 0 0 0 0 0 0 0 0 0 0 0 0 0 0 0 0 127 0"/>
<feOffset dx="2" dy="4"/>
<feGaussianBlur stdDeviation="50"/>
<feColorMatrix type="matrix" values="0 0 0 0 0.641667 0 0 0 0 0.641667 0 0 0 0 0.641667 0 0 0 0.25 0"/>
<feBlend mode="normal" in2="BackgroundImageFix" result="effect1_dropShadow"/>
<feBlend mode="normal" in="SourceGraphic" in2="effect1_dropShadow" result="shape"/>
</filter>
<linearGradient id="paint0_linear" x1="217.415" y1="213.955" x2="292.67" y2="304.535" gradientUnits="userSpaceOnUse">
<stop offset="0.01"/>
<stop offset="0.13" stop-opacity="0.69"/>
<stop offset="0.25" stop-opacity="0.32"/>
<stop offset="1" stop-opacity="0"/>
</linearGradient>
<linearGradient id="paint1_linear" x1="4198.05" y1="6118.2" x2="6315.93" y2="8482.18" gradientUnits="userSpaceOnUse">
<stop offset="0.01"/>
<stop offset="0.13" stop-opacity="0.69"/>
<stop offset="0.25" stop-opacity="0.32"/>
<stop offset="1" stop-opacity="0"/>
</linearGradient>
<linearGradient id="paint2_linear" x1="2685.74" y1="2115.23" x2="2645.17" y2="2768.22" gradientUnits="userSpaceOnUse">
<stop offset="0.01"/>
<stop offset="0.13" stop-opacity="0.69"/>
<stop offset="0.25" stop-opacity="0.32"/>
<stop offset="1" stop-opacity="0"/>
</linearGradient>
<linearGradient id="paint3_linear" x1="2789.3" y1="2831.37" x2="3164.6" y2="3108.86" gradientUnits="userSpaceOnUse">
<stop offset="0.01"/>
<stop offset="0.13" stop-opacity="0.69"/>
<stop offset="0.25" stop-opacity="0.32"/>
<stop offset="1" stop-opacity="0"/>
</linearGradient>
<linearGradient id="paint4_linear" x1="3260.31" y1="3151.83" x2="3354.23" y2="2695.3" gradientUnits="userSpaceOnUse">
<stop offset="0.01"/>
<stop offset="0.13" stop-opacity="0.69"/>
<stop offset="0.25" stop-opacity="0.32"/>
<stop offset="1" stop-opacity="0"/>
</linearGradient>
<linearGradient id="paint5_linear" x1="2092.29" y1="1237.88" x2="2321.98" y2="1651.15" gradientUnits="userSpaceOnUse">
<stop offset="0.01"/>
<stop offset="0.13" stop-opacity="0.69"/>
<stop offset="0.25" stop-opacity="0.32"/>
<stop offset="1" stop-opacity="0"/>
</linearGradient>
<linearGradient id="paint6_linear" x1="227.48" y1="225.261" x2="236.161" y2="202.993" gradientUnits="userSpaceOnUse">
<stop/>
<stop offset="1" stop-opacity="0"/>
</linearGradient>
</defs>
</svg>
