<svg width="514" height="440" viewBox="0 0 514 440" fill="none" xmlns="http://www.w3.org/2000/svg">
<g filter="url(#filter0_d)">
<path opacity="0.45" d="M247 329.527C333.636 329.527 403.868 325.369 403.868 320.239C403.868 315.11 333.636 310.952 247 310.952C160.364 310.952 90.1318 315.11 90.1318 320.239C90.1318 325.369 160.364 329.527 247 329.527Z" fill="#D4D4D4"/>
<path d="M388.379 95.376H105.61V298.214H388.379V95.376Z" fill="#D4D4D4"/>
<path d="M341.02 130.231H152.189V227.824H341.02V130.231Z" fill="#F2F2F2"/>
<path d="M341.02 233.802H152.189V256.203H341.02V233.802Z" fill="#F2F2F2"/>
<path d="M341.02 130.231H152.189V175.48H341.02V130.231Z" fill="#62A2FF"/>
<path d="M189.592 196.014C202.474 196.014 212.916 185.571 212.916 172.689C212.916 159.807 202.474 149.364 189.592 149.364C176.71 149.364 166.267 159.807 166.267 172.689C166.267 185.571 176.71 196.014 189.592 196.014Z" fill="#24285B"/>
<path d="M226.284 200.773H160.562V207.706H226.284V200.773Z" fill="#E6E6E6"/>
<path d="M204.492 213.705H160.562V220.638H204.492V213.705Z" fill="#E6E6E6"/>
<path d="M212.774 262.557H151.783V290.895H212.774V262.557Z" fill="#F2F2F2"/>
<path d="M277.095 262.557H216.104V290.895H277.095V262.557Z" fill="#F2F2F2"/>
<path d="M341.415 262.557H280.424V290.895H341.415V262.557Z" fill="#F2F2F2"/>
<path d="M333.244 181.651H283.418V190.34H333.244V181.651Z" fill="#E6E6E6"/>
<path d="M330.2 242.754H162.907V246.712H330.2V242.754Z" fill="#E6E6E6"/>
<path d="M215.241 249.453C217.595 249.453 219.504 247.544 219.504 245.19C219.504 242.835 217.595 240.927 215.241 240.927C212.886 240.927 210.978 242.835 210.978 245.19C210.978 247.544 212.886 249.453 215.241 249.453Z" fill="#62A2FF"/>
<path d="M388.379 90.4639H105.61V112.408H388.379V90.4639Z" fill="#24285B"/>
<path d="M217.829 97.0918H152.189V105.78H217.829V97.0918Z" fill="#E6E6E6"/>
<path opacity="0.2" d="M307.332 105.435C309.54 105.435 311.331 103.644 311.331 101.436C311.331 99.227 309.54 97.4365 307.332 97.4365C305.123 97.4365 303.333 99.227 303.333 101.436C303.333 103.644 305.123 105.435 307.332 105.435Z" fill="white"/>
<path opacity="0.2" d="M322.11 105.435C324.319 105.435 326.109 103.644 326.109 101.436C326.109 99.227 324.319 97.4365 322.11 97.4365C319.901 97.4365 318.111 99.227 318.111 101.436C318.111 103.644 319.901 105.435 322.11 105.435Z" fill="white"/>
<path opacity="0.2" d="M336.888 105.435C339.097 105.435 340.887 103.644 340.887 101.436C340.887 99.227 339.097 97.4365 336.888 97.4365C334.68 97.4365 332.889 99.227 332.889 101.436C332.889 103.644 334.68 105.435 336.888 105.435Z" fill="white"/>
<path opacity="0.2" d="M351.677 105.435C353.885 105.435 355.676 103.644 355.676 101.436C355.676 99.227 353.885 97.4365 351.677 97.4365C349.468 97.4365 347.678 99.227 347.678 101.436C347.678 103.644 349.468 105.435 351.677 105.435Z" fill="white"/>
<path d="M308.235 253.341C308.235 253.341 314.66 256.589 312.204 260.344C309.747 264.1 304.398 256.843 304.398 256.843L308.235 253.341Z" fill="#F4A28C"/>
<path d="M322.922 188.989C323.095 188.338 323.094 187.653 322.918 187.003C322.742 186.353 322.399 185.76 321.921 185.285C321.444 184.81 320.85 184.468 320.199 184.296C319.548 184.123 318.863 184.124 318.213 184.3C306.029 187.644 295.331 195.004 287.854 205.189C286.514 206.995 285.245 208.762 284.048 210.467C280.066 216.135 278.449 223.132 279.54 229.973C280.632 236.814 284.346 242.96 289.894 247.108L303.729 257.461L309.199 252.457L298.105 241.851C296.679 240.494 295.543 238.861 294.766 237.052C293.99 235.242 293.59 233.294 293.59 231.325C293.59 229.356 293.99 227.408 294.766 225.598C295.543 223.789 296.679 222.156 298.105 220.799L319.898 200.154L322.922 188.989Z" fill="#62A2FF"/>
<path opacity="0.46" d="M322.922 188.989C323.095 188.338 323.094 187.653 322.918 187.003C322.742 186.353 322.399 185.76 321.921 185.285C321.444 184.81 320.85 184.468 320.199 184.296C319.548 184.123 318.863 184.124 318.213 184.3C306.029 187.644 295.331 195.004 287.854 205.189C286.514 206.995 285.245 208.762 284.048 210.467C280.066 216.135 278.449 223.132 279.54 229.973C280.632 236.814 284.346 242.96 289.894 247.108L303.729 257.461L309.199 252.457L298.105 241.851C296.679 240.494 295.543 238.861 294.766 237.052C293.99 235.242 293.59 233.294 293.59 231.325C293.59 229.356 293.99 227.408 294.766 225.598C295.543 223.789 296.679 222.156 298.105 220.799L319.898 200.154L322.922 188.989Z" fill="white"/>
<path d="M335.731 170.263C334.628 172.404 333.819 174.685 333.326 177.043C333.286 177.327 333.302 177.616 333.373 177.894C333.445 178.171 333.571 178.432 333.743 178.661C333.916 178.89 334.132 179.083 334.379 179.229C334.626 179.374 334.899 179.47 335.183 179.509C336.091 179.69 337.031 179.605 337.892 179.265C338.752 178.925 339.496 178.344 340.035 177.591L342.674 174.546C343.138 173.888 343.388 173.103 343.388 172.298C343.388 171.493 343.138 170.707 342.674 170.05C341.08 167.532 336.827 167.857 335.731 170.263Z" fill="#F4A28C"/>
<path d="M341.344 173.47L341.973 187.649L334.127 187.446L336.827 177.205L341.344 173.47Z" fill="#F4A28C"/>
<path d="M334.605 172.749L332.849 173.835C332.75 173.897 332.669 173.983 332.613 174.085C332.556 174.188 332.527 174.302 332.527 174.419C332.527 174.535 332.556 174.65 332.613 174.752C332.669 174.854 332.75 174.94 332.849 175.002L334.259 175.926L334.605 172.749Z" fill="#F4A28C"/>
<path opacity="0.31" d="M336.188 179.55C337.184 179.422 338.121 179.002 338.878 178.342C338.349 180.328 337.087 182.04 335.346 183.133L336.188 179.55Z" fill="#CE8172"/>
<path d="M318.598 313.408C318.598 313.408 317.441 316.605 314.538 316.849C311.635 317.093 310.884 319.894 313.523 320.665C316.162 321.437 322.831 318.057 322.831 318.057L322.648 313.885L318.598 313.408Z" fill="#62A2FF"/>
<path d="M357.747 313.408C357.747 313.408 358.904 316.605 361.807 316.849C364.71 317.093 365.451 319.894 362.822 320.665C360.193 321.437 353.514 318.057 353.514 318.057L353.707 313.885L357.747 313.408Z" fill="#62A2FF"/>
<path d="M323.328 183.498C336.201 183.736 348.908 186.455 360.751 191.506C362.567 192.275 364.206 193.407 365.568 194.834C366.929 196.26 367.984 197.95 368.667 199.8C369.349 201.65 369.646 203.62 369.538 205.589C369.43 207.558 368.92 209.484 368.039 211.248L347.678 251.848L309.92 249.615C305.6 233.774 303.747 217.361 304.429 200.956C304.711 196.167 306.837 191.674 310.361 188.419C313.884 185.164 318.532 183.4 323.328 183.498V183.498Z" fill="#62A2FF"/>
<path d="M347.678 251.869L358.955 313.987H353.321L339.172 280.258C334.163 268.316 325.335 258.371 314.071 251.98L309.93 249.636L347.678 251.869Z" fill="#24285B"/>
<path d="M309.93 249.636L315.756 313.987H323.257C323.257 313.987 321.501 265.561 335.031 255.259L309.93 249.636Z" fill="#24285B"/>
<path opacity="0.08" d="M350.175 194.491C350.175 194.491 340.532 200.693 343.567 219.755C344.45 225.328 344.089 231.027 342.51 236.444C340.93 241.862 338.172 246.862 334.432 251.088L347.627 251.869C347.627 251.869 356.102 234.178 358.376 230.422C360.65 226.667 350.175 194.491 350.175 194.491Z" fill="black"/>
<path d="M348.216 200.267C348.216 191.629 358.975 187.64 364.75 194.065C369.787 199.528 372.998 206.425 373.936 213.797C376.24 232.757 373.702 274.148 373.702 274.148H366.841C366.841 274.148 362.203 232.777 352.083 213.797C349.709 209.67 348.381 205.025 348.216 200.267V200.267Z" fill="#62A2FF"/>
<path opacity="0.46" d="M348.216 200.267C348.216 191.629 358.975 187.64 364.75 194.065C369.787 199.528 372.998 206.425 373.936 213.797C376.24 232.757 373.702 274.148 373.702 274.148H366.841C366.841 274.148 362.203 232.777 352.083 213.797C349.709 209.67 348.381 205.025 348.216 200.267V200.267Z" fill="white"/>
<path d="M376.148 286.125V283.181C376.149 282.113 375.728 281.088 374.977 280.328C374.227 279.568 373.207 279.134 372.139 279.121H368.384C367.316 279.134 366.296 279.568 365.546 280.328C364.795 281.088 364.374 282.113 364.375 283.181V286.317" stroke="#24285B" stroke-width="2.03" stroke-miterlimit="10"/>
<path d="M355.493 303.593H384.116V284.947H355.493V303.593Z" fill="#FFD200"/>
<path opacity="0.08" d="M384.116 293.697C384.116 293.697 373.388 302.903 355.493 300.193V303.594H384.116V293.697Z" fill="black"/>
<path d="M372.515 274.148C372.515 274.148 374.545 280.979 371.865 280.979C369.186 280.979 365.897 282.289 367.958 274.148H372.515Z" fill="#F4A28C"/>
<path d="M341.639 178.647L338.939 177.196L338.665 175.754C338.288 175.191 338.086 174.529 338.086 173.851C338.086 173.173 338.288 172.511 338.665 171.948C338.665 171.948 333.468 169.421 334.686 167.259C335.904 165.097 339.761 162.184 343.456 164.944C347.15 167.705 349.058 172.699 341.639 178.647Z" fill="#24285B"/>
<path d="M338.583 175.49C338.583 175.49 339.243 173.957 340.35 174.556C341.456 175.155 340.512 177.367 338.858 176.921L338.583 175.49Z" fill="#F4A28C"/>
<path d="M344.308 186.117C339.678 184.802 334.908 184.042 330.098 183.854C330.098 183.854 323.501 210.244 328.697 231.487C328.738 231.487 336.137 204.722 344.308 186.117Z" fill="white"/>
<path d="M344.308 186.117C344.308 186.117 344.572 182.92 342.278 182.808C341.034 182.721 339.783 182.831 338.573 183.133C338.573 183.133 331.915 177.916 330.128 183.853C334.891 184.365 339.623 185.121 344.308 186.117V186.117Z" fill="#62A2FF"/>
<path opacity="0.77" d="M344.308 186.117C344.308 186.117 344.572 182.92 342.278 182.808C341.034 182.721 339.783 182.831 338.573 183.133C338.573 183.133 331.915 177.916 330.128 183.853C334.891 184.365 339.623 185.121 344.308 186.117V186.117Z" fill="white"/>
<path d="M339.66 185.123C339.66 185.123 340.411 182.616 338.837 182.311C337.264 182.007 335.792 180.971 335.478 184.189C335.163 187.406 338.35 187.731 339.66 185.123Z" fill="#24285B"/>
<path d="M338.614 186.391C338.614 186.391 333.62 204.082 333.539 215.45L328.707 231.487C327.315 225.774 326.633 219.91 326.677 214.029C326.677 214.029 331.844 190.766 335.467 185.325L338.614 186.391Z" fill="#24285B"/>
<path opacity="0.58" d="M130.995 307.531C130.995 307.531 140.811 304.892 142.983 295.778C142.983 295.778 127.758 292.651 127.311 308.323L130.995 307.531Z" fill="#62A2FF"/>
<path opacity="0.73" d="M129.798 306.557C129.798 306.557 136.69 295.757 130.711 285.607C130.711 285.607 119.13 292.895 124.205 306.557H129.798Z" fill="#62A2FF"/>
<path d="M128.032 306.557C128.032 306.557 124.459 295.108 113.538 292.896C113.538 292.896 111.447 300.305 120.562 306.557H128.032Z" fill="#62A2FF"/>
<path d="M135.147 306.323L133.097 319.914H120.582L118.795 306.323H135.147Z" fill="#24285B"/>
</g>
<defs>
<filter id="filter0_d" x="-46" y="-33" width="606" height="506" filterUnits="userSpaceOnUse" color-interpolation-filters="sRGB">
<feFlood flood-opacity="0" result="BackgroundImageFix"/>
<feColorMatrix in="SourceAlpha" type="matrix" values="0 0 0 0 0 0 0 0 0 0 0 0 0 0 0 0 0 0 127 0"/>
<feOffset dx="10" dy="10"/>
<feGaussianBlur stdDeviation="50"/>
<feColorMatrix type="matrix" values="0 0 0 0 0.391667 0 0 0 0 0.391667 0 0 0 0 0.391667 0 0 0 0.25 0"/>
<feBlend mode="normal" in2="BackgroundImageFix" result="effect1_dropShadow"/>
<feBlend mode="normal" in="SourceGraphic" in2="effect1_dropShadow" result="shape"/>
</filter>
</defs>
</svg>
