<svg width="574" height="507" viewBox="0 0 574 507" fill="none" xmlns="http://www.w3.org/2000/svg">
<g filter="url(#filter0_d)">
<path opacity="0.18" d="M100.229 317.075C102.265 329.602 114.707 387.856 160.156 400.25C194.515 409.629 291.045 377.516 346.026 393.687C456.692 426.218 476.962 338.877 470.779 315.286C466.47 298.84 461.153 282.345 461.01 265.176C460.868 247.217 467.165 229.552 467.85 211.46C469.59 165.678 437.41 120.732 393.53 107.596C374.744 101.983 359.381 96.2475 339.777 96.0858C299.987 95.7434 205.558 96.0858 159.043 163.747C150.73 175.837 138.659 184.883 129.384 196.259C117.018 211.479 108.781 229.866 103.806 248.881C97.9032 271.119 96.6853 294.341 100.229 317.075Z" fill="#459FFF"/>
<path d="M335.02 331.99H262.546L275.369 295.824H324.205L335.02 331.99Z" fill="#459FFF"/>
<path d="M335.02 331.99H262.546L275.369 295.824H324.205L335.02 331.99Z" fill="url(#paint0_linear)"/>
<path d="M395.737 164.526H207.937C200.75 164.526 194.924 170.352 194.924 177.539V296.376C194.924 303.563 200.75 309.389 207.937 309.389H395.737C402.924 309.389 408.75 303.563 408.75 296.376V177.539C408.75 170.352 402.924 164.526 395.737 164.526Z" fill="#459FFF"/>
<path d="M408.75 177.53V281.765H194.971V177.53C194.971 174.081 196.341 170.774 198.78 168.335C201.218 165.896 204.526 164.526 207.974 164.526H395.747C399.195 164.526 402.503 165.896 404.941 168.335C407.38 170.774 408.75 174.081 408.75 177.53V177.53Z" fill="#473F47"/>
<path d="M405.535 180.012V278.284H198.167V180.012C198.188 176.684 199.529 173.5 201.895 171.16C204.262 168.819 207.462 167.515 210.79 167.532H392.912C396.241 167.515 399.44 168.819 401.807 171.16C404.174 173.5 405.515 176.684 405.535 180.012V180.012Z" fill="white"/>
<path opacity="0.18" d="M405.535 180.012V278.284H198.167V180.012C198.188 176.684 199.529 173.5 201.895 171.16C204.262 168.819 207.462 167.515 210.79 167.532H392.912C396.241 167.515 399.44 168.819 401.807 171.16C404.174 173.5 405.515 176.684 405.535 180.012V180.012Z" fill="#459FFF"/>
<path d="M294.241 141.411H210.676V200.444H294.241V141.411Z" fill="#459FFF"/>
<path d="M372.584 175.057C372.46 173.278 372.584 171.452 372.394 169.682C372.1 167.131 371.271 164.67 369.959 162.462C368.648 160.254 366.884 158.348 364.784 156.869C360.531 153.924 355.346 152.641 350.211 153.264C341.888 154.215 334.896 159.923 330.892 167.123C326.335 175.314 330.597 182.02 334.278 189.449C337.037 195.004 335.41 201.938 331.833 207.008C329.027 210.975 324.88 214.78 325.232 219.631C325.451 222.58 327.334 225.101 329.151 227.431C330.369 228.991 331.729 230.646 333.65 231.093C334.619 231.269 335.611 231.269 336.58 231.093C338.751 230.787 340.901 230.352 343.02 229.79C345.075 229.239 347.186 228.554 349.298 228.839C352.875 229.296 355.519 232.311 357.583 235.25C359.647 238.19 361.683 241.462 364.965 242.927C367.457 244.049 370.311 243.945 373.031 243.716C380.974 243.06 389.392 241.215 394.852 235.412C396.059 234.079 397.168 232.661 398.172 231.17C398.786 230.387 399.283 229.518 399.646 228.592C400.598 225.824 399.076 222.884 397.363 220.459C395.651 218.033 393.559 215.703 393.311 212.792C393.083 210.509 393.996 208.293 394.262 206.029C394.843 201.71 393.159 197.325 390.458 193.891C387.66 190.551 384.307 187.719 380.546 185.52C377.692 183.732 374.648 181.877 373.316 178.862C372.849 177.647 372.601 176.358 372.584 175.057Z" fill="#FC682D"/>
<path d="M367.914 183.646C368.542 185.549 368.865 187.594 369.959 189.306C371.291 191.475 373.555 192.863 375.8 194.062C377.011 194.602 378.108 195.367 379.034 196.316C379.678 197.141 380.13 198.1 380.356 199.123C380.682 200.467 380.762 201.859 380.594 203.232C380.323 204.375 380.249 205.555 380.375 206.723C380.708 208.178 381.897 209.244 382.934 210.318C384.999 212.265 386.394 214.816 386.919 217.605C387.3 220.401 386.168 223.512 383.695 224.882C382.798 225.343 381.835 225.663 380.841 225.833C379.244 226.148 377.625 226.345 375.999 226.423C374.84 226.51 373.675 226.413 372.546 226.137C371.17 225.645 369.884 224.929 368.741 224.016L353.598 213.248C351.838 212.166 350.314 210.739 349.118 209.053C348.288 207.527 347.738 205.865 347.491 204.145C346.663 199.969 346.026 195.498 347.643 191.56C348.899 188.478 351.391 186.091 353.807 183.798L359.943 177.996C361.721 176.312 363.12 175.57 364.699 177.634C366.092 179.449 367.178 181.48 367.914 183.646Z" fill="url(#paint1_linear)"/>
<path d="M378.463 238.751C383.495 244.391 385.587 251.335 389.402 257.775C389.851 258.696 390.537 259.481 391.39 260.049C392.788 260.81 394.529 260.277 395.937 259.535C407.266 253.485 408.303 236.182 419.413 229.743C421.991 228.259 424.921 227.479 427.479 225.938C428.431 225.367 429.458 224.349 429.078 223.303C428.903 222.981 428.662 222.701 428.37 222.481C428.078 222.261 427.741 222.107 427.384 222.028C424.459 221.018 421.355 220.632 418.272 220.896C416.892 221.02 414.971 220.896 414.819 219.498C414.857 219.096 414.857 218.692 414.819 218.29C414.514 217.282 412.831 217.653 412.412 218.623C411.994 219.593 412.307 220.696 412.269 221.752C412.079 223.405 411.441 224.974 410.424 226.29C408.026 229.987 405.402 233.532 402.567 236.905C394.539 246.418 392.512 231.246 386.168 228.078C385.564 227.828 384.919 227.695 384.265 227.688C378.615 227.301 372.958 227.187 367.295 227.346C369.302 228.953 376.655 236.734 378.463 238.751Z" fill="#F4DBBD"/>
<path d="M362.273 203.631C362.273 203.631 378.71 211.041 379.68 212.981C380.65 214.922 379.68 270.283 379.68 270.283H321.731L325.061 211.945L342.012 205.001L362.273 203.631Z" fill="#459FFF"/>
<path d="M321.722 270.293H379.68C379.68 270.293 380.632 214.931 379.68 212.972C378.729 211.012 362.273 203.631 362.273 203.631L342.021 204.991L325.07 211.935L323.463 239.949L321.722 270.293Z" fill="url(#paint2_linear)"/>
<path d="M379.68 212.953L393.482 230.532C390.705 238.741 379.68 249.157 379.68 249.157V212.953Z" fill="#459FFF"/>
<path d="M379.68 228.925L388.308 239.531L379.68 249.186V228.925Z" fill="url(#paint3_linear)"/>
<path d="M361.854 195.755C361.293 198.742 362.159 201.016 362.282 203.755C362.454 207.817 358.154 214.161 356.442 217.871C355.89 219.07 355.234 220.373 354.026 220.915C353.171 221.226 352.253 221.321 351.353 221.191C350.012 221.225 348.683 220.921 347.491 220.306C345.931 219.355 345.255 217.453 344.713 215.683C343.829 212.83 341.584 208.311 342.126 205.372C342.297 204.421 343.153 203.47 343.391 202.442C343.616 201.114 343.69 199.764 343.61 198.419C343.543 191.265 361.854 195.755 361.854 195.755Z" fill="#F4DBBD"/>
<path d="M361.854 195.755C361.854 195.755 359.533 208.197 352.142 207.474C350.125 207.352 348.202 206.581 346.659 205.276C345.117 203.972 344.037 202.203 343.581 200.235L361.854 195.755Z" fill="#E0BE99"/>
<path d="M362.501 193.606C362.052 195.595 361.274 197.495 360.199 199.227C357.174 203.65 350.306 205.011 345.76 202.081C343.311 200.321 341.417 197.899 340.3 195.099C337.64 189.235 336.751 182.722 337.741 176.36C338.002 173.876 338.951 171.514 340.48 169.539C343.172 166.429 347.767 165.62 351.895 165.839C355.633 166.039 359.505 166.971 362.311 169.359C363.825 170.696 364.948 172.418 365.563 174.342C366.177 176.266 366.26 178.321 365.802 180.288C364.746 184.721 363.709 189.173 362.501 193.606Z" fill="#F4DBBD"/>
<path d="M275.826 210.671C275.211 210.076 274.449 209.656 273.619 209.453C272.779 209.347 271.935 209.283 271.089 209.263C269.348 209.063 267.521 208.14 265.952 208.92C265.424 209.227 264.988 209.671 264.692 210.206C264.395 210.74 264.249 211.344 264.268 211.955C264.316 213.175 264.666 214.365 265.286 215.417C267.911 220.411 271.773 222.076 276.311 224.749C278.698 226.157 280.363 229.505 282.018 231.836L288.02 240.149C290.475 243.545 292.967 246.989 296.248 249.604C296.782 250.068 297.394 250.432 298.056 250.679C299.261 250.968 300.528 250.841 301.651 250.318C306.408 248.482 310.641 245.001 314.75 241.995C316.652 240.587 318.621 239.141 320.533 237.724C321.361 237.105 322.902 236.316 323.435 235.384C323.728 234.789 323.899 234.143 323.939 233.481C324.662 227.869 323.663 222.152 323.806 216.492C317.546 223.645 310.317 231.208 301.927 235.821C301.678 235.989 301.39 236.09 301.09 236.116C300.786 236.091 300.492 235.993 300.234 235.831C293.279 232.125 287.154 227.036 282.237 220.877C280.421 218.345 278.829 215.659 277.481 212.849C277.051 212.038 276.492 211.302 275.826 210.671V210.671Z" fill="#F4DBBD"/>
<path d="M365.764 181.858C366.151 181.652 366.592 181.572 367.027 181.628C367.461 181.684 367.868 181.874 368.19 182.172C368.376 182.416 368.506 182.699 368.57 182.999C368.868 184.703 368.511 186.456 367.571 187.908C367.357 188.328 367.063 188.703 366.706 189.011C365.979 189.469 365.129 189.695 364.271 189.658C364.079 189.696 363.882 189.696 363.69 189.658C363.536 189.587 363.4 189.483 363.291 189.353C363.017 189.01 362.816 188.615 362.7 188.191C362.583 187.768 362.555 187.325 362.615 186.89C362.796 184.93 363.919 182.666 365.764 181.858Z" fill="#F4DBBD"/>
<path d="M337.113 189.287C337.498 189.497 337.94 189.58 338.375 189.526C338.81 189.471 339.217 189.281 339.539 188.982C339.726 188.739 339.856 188.456 339.919 188.155C340.222 186.451 339.865 184.696 338.92 183.247C338.704 182.825 338.41 182.447 338.055 182.134C337.329 181.673 336.479 181.447 335.62 181.487C335.424 181.462 335.226 181.482 335.039 181.544C334.884 181.611 334.746 181.716 334.64 181.848C334.366 182.192 334.165 182.587 334.049 183.011C333.933 183.434 333.904 183.877 333.965 184.312C334.145 186.224 335.277 188.488 337.113 189.287Z" fill="#F4DBBD"/>
<path d="M325.061 211.945L311.43 229.124C314.198 237.334 323.434 247.749 323.434 247.749L325.061 211.945Z" fill="#459FFF"/>
<path d="M367.276 186.195C367.036 186.797 366.647 187.327 366.144 187.736C365.923 187.918 365.65 188.025 365.364 188.04C365.078 188.055 364.795 187.979 364.556 187.822C364.467 187.763 364.4 187.676 364.365 187.575C364.33 187.41 364.354 187.239 364.432 187.089L364.546 186.785C364.574 186.697 364.616 186.613 364.67 186.538C364.879 186.262 365.307 186.309 365.621 186.138C365.935 185.967 366.059 185.529 366.23 185.187C366.289 185.045 366.388 184.923 366.514 184.836C366.641 184.748 366.79 184.698 366.943 184.692C367.088 184.723 367.22 184.8 367.317 184.911C367.415 185.023 367.474 185.163 367.485 185.311C367.501 185.619 367.429 185.926 367.276 186.195V186.195Z" fill="#E0BE99"/>
<path d="M335.22 185.587C335.458 186.19 335.848 186.721 336.352 187.128C336.574 187.311 336.848 187.418 337.135 187.435C337.423 187.453 337.708 187.378 337.95 187.223C338.039 187.16 338.106 187.07 338.14 186.966C338.17 186.805 338.147 186.638 338.074 186.491L337.959 186.186C337.934 186.097 337.892 186.013 337.836 185.939C337.626 185.663 337.198 185.701 336.885 185.53C336.571 185.359 336.447 184.921 336.276 184.579C336.214 184.438 336.115 184.318 335.989 184.23C335.863 184.143 335.715 184.092 335.562 184.084C335.417 184.109 335.284 184.183 335.185 184.294C335.087 184.405 335.029 184.545 335.02 184.693C334.998 185.004 335.067 185.315 335.22 185.587V185.587Z" fill="#E0BE99"/>
<path d="M362.273 203.631L366.135 205.419L364.232 223.283L353.997 227.221C353.997 227.221 358.287 214.132 362.273 203.631Z" fill="url(#paint4_linear)"/>
<path d="M360.96 224.549L362.263 231.398L349.859 245.257L353.997 227.269L360.96 224.549Z" fill="url(#paint5_linear)"/>
<path d="M341.878 205.105L338.016 206.884L335.81 223.283L346.007 227.221C346.007 227.221 342.012 210.718 341.878 205.105Z" fill="url(#paint6_linear)"/>
<path d="M339.053 224.549L337.741 231.398L350.145 245.257L346.007 227.269L339.053 224.549Z" fill="url(#paint7_linear)"/>
<path d="M334.041 270.075L372.299 263.255L379.68 228.925V267.136V270.284L334.041 270.075Z" fill="url(#paint8_linear)"/>
<path d="M348.746 168.987C349.222 171.841 349.698 175.018 351.885 177.016C353.125 178.056 354.576 178.816 356.137 179.241C359.712 180.416 363.432 181.091 367.191 181.249C367.74 178.79 367.734 176.239 367.172 173.783C366.61 171.326 365.507 169.027 363.943 167.051C362.378 165.076 360.393 163.475 358.131 162.365C355.869 161.255 353.387 160.664 350.868 160.635C344.314 160.455 348.052 164.716 348.746 168.987Z" fill="#FC682D"/>
<path d="M405.535 266.992H198.139V278.293H405.535V266.992Z" fill="white"/>
<path d="M354.882 335.195C353.519 336.561 352.54 338.261 352.043 340.124C351.545 341.988 351.547 343.95 352.049 345.813C352.55 347.675 353.533 349.373 354.899 350.735C356.264 352.098 357.964 353.076 359.828 353.573V356.084H227.608C224.848 356.085 222.159 355.214 219.923 353.597C217.688 351.979 216.019 349.697 215.156 347.076C214.708 345.743 214.48 344.345 214.481 342.938C214.48 341.214 214.818 339.507 215.478 337.913C216.137 336.32 217.104 334.873 218.323 333.654C219.542 332.434 220.99 331.467 222.583 330.808C224.176 330.149 225.884 329.81 227.608 329.812H359.828V332.323C357.954 332.826 356.247 333.817 354.882 335.195V335.195Z" fill="#459FFF"/>
<path d="M359.828 353.573V356.084H227.608C224.848 356.085 222.159 355.214 219.923 353.597C217.688 351.979 216.019 349.697 215.156 347.076C220.179 347.961 251.978 353.031 269.681 342.938L352.599 347.362C353.259 348.874 354.252 350.218 355.504 351.294C356.755 352.369 358.234 353.148 359.828 353.573V353.573Z" fill="url(#paint9_linear)"/>
<path d="M354.882 335.195C353.519 336.561 352.54 338.261 352.043 340.124C351.545 341.988 351.547 343.95 352.049 345.813C352.55 347.675 353.533 349.373 354.899 350.735C356.264 352.098 357.965 353.076 359.828 353.573V353.944H280.667C279.198 353.987 277.735 353.735 276.365 353.203C274.995 352.67 273.745 351.868 272.69 350.844C271.636 349.82 270.797 348.595 270.225 347.241C269.652 345.887 269.357 344.432 269.357 342.962C269.357 341.492 269.652 340.037 270.225 338.683C270.797 337.329 271.636 336.104 272.69 335.08C273.745 334.056 274.995 333.254 276.365 332.722C277.735 332.189 279.198 331.937 280.667 331.98H359.828V332.342C357.956 332.839 356.25 333.824 354.882 335.195V335.195Z" fill="white"/>
<path d="M435.308 362.59C433.946 363.956 432.966 365.656 432.469 367.519C431.972 369.383 431.974 371.345 432.475 373.208C432.976 375.07 433.959 376.768 435.325 378.13C436.691 379.493 438.391 380.471 440.255 380.968V383.479H308.034C305.277 383.481 302.59 382.613 300.354 380.999C298.119 379.385 296.449 377.108 295.583 374.49C295.134 373.157 294.906 371.759 294.907 370.353C294.906 368.628 295.245 366.921 295.904 365.328C296.563 363.734 297.53 362.287 298.749 361.068C299.968 359.848 301.416 358.881 303.009 358.222C304.602 357.563 306.31 357.224 308.034 357.226H440.255V359.737C438.383 360.234 436.676 361.219 435.308 362.59V362.59Z" fill="#459FFF"/>
<path d="M440.255 380.968V383.479H308.034C305.277 383.481 302.59 382.613 300.354 380.999C298.119 379.386 296.449 377.108 295.583 374.49C300.605 375.375 332.404 380.445 350.107 370.353L433.025 374.776C433.688 376.285 434.681 377.625 435.933 378.697C437.185 379.769 438.662 380.545 440.255 380.968V380.968Z" fill="url(#paint10_linear)"/>
<path d="M435.308 362.59C433.945 363.956 432.966 365.656 432.468 367.519C431.971 369.383 431.973 371.345 432.475 373.208C432.976 375.07 433.959 376.768 435.324 378.13C436.69 379.493 438.39 380.471 440.254 380.968V381.32H361.093C359.624 381.363 358.161 381.111 356.79 380.579C355.42 380.046 354.171 379.244 353.116 378.22C352.062 377.196 351.223 375.971 350.651 374.617C350.078 373.263 349.783 371.808 349.783 370.338C349.783 368.868 350.078 367.413 350.651 366.059C351.223 364.705 352.062 363.48 353.116 362.456C354.171 361.432 355.42 360.63 356.79 360.098C358.161 359.565 359.624 359.313 361.093 359.356H440.254V359.718C438.38 360.221 436.673 361.212 435.308 362.59V362.59Z" fill="white"/>
<path d="M269.081 208.863L253.224 170.928L271.088 209.262L269.081 208.863Z" fill="white"/>
<path d="M408.997 285.95C407.657 286.553 406.431 287.384 405.373 288.404C404.845 288.914 404.43 289.529 404.153 290.209C403.876 290.888 403.744 291.618 403.765 292.352C403.908 294.131 405.183 295.596 406.524 296.756C408.055 298.107 409.92 299.515 410.043 301.512C411.137 300.694 412.136 299.743 413.268 298.972C415.247 297.622 417.577 296.899 419.755 295.9C421.934 294.901 424.093 293.493 425.13 291.334C425.69 289.969 426.012 288.518 426.081 287.044C426.304 285.469 426.346 283.873 426.205 282.288C426.056 280.693 425.356 279.2 424.226 278.065C422.507 276.747 420.481 275.889 418.338 275.572C417.133 275.634 415.97 276.041 414.989 276.744C414.007 277.447 413.248 278.417 412.802 279.539C412.355 280.728 412.564 282.079 412.127 283.268C411.575 284.657 410.234 285.322 408.997 285.95Z" fill="#FC682D"/>
<path d="M359.695 357.873C359.266 357.864 358.838 357.929 358.43 358.063C358.226 358.134 358.047 358.26 357.912 358.429C357.777 358.597 357.693 358.8 357.669 359.014C357.686 359.224 357.755 359.425 357.87 359.601C357.984 359.777 358.141 359.922 358.325 360.023C358.677 360.251 359.086 360.384 359.438 360.622C359.735 360.868 360.054 361.088 360.389 361.278C360.992 361.459 361.637 361.436 362.225 361.212C364.966 360.544 367.803 360.367 370.606 360.688C370.877 360.722 371.152 360.722 371.424 360.688C371.823 360.573 372.186 360.358 372.479 360.064C372.772 359.769 372.985 359.405 373.098 359.005C373.659 357.302 373.825 355.493 373.583 353.716C373.58 353.517 373.531 353.322 373.44 353.145C373.327 353.007 373.184 352.897 373.022 352.822C370.368 351.509 368.912 354.135 366.962 355.419C364.793 356.852 362.289 357.697 359.695 357.873V357.873Z" fill="#FFBBAB"/>
<path d="M423.874 318.835C423.874 318.835 424.54 328.765 415.665 331.762C406.79 334.758 390.886 332.314 390.886 332.314C390.886 332.314 384.484 344.575 377.939 350.387L373.754 354.525C372.872 354.738 371.945 354.658 371.113 354.298C370.281 353.937 369.588 353.316 369.141 352.527C369.141 352.527 381.507 327.881 383.171 326.035C385.06 323.763 387.584 322.107 390.42 321.279L408.131 315.705L423.874 318.835Z" fill="#473F47"/>
<path d="M364.642 286.303L374.144 306.478L391.704 306.354L391.561 304.832L375.409 304.652L366.468 285.561L364.642 286.303Z" fill="#473F47"/>
<path d="M411.118 273.261C410.795 273.813 410.119 274.136 409.901 274.736C409.682 275.335 410.148 276.229 410.405 276.962C410.776 277.979 410.662 279.121 411.013 280.148C411.075 280.37 411.201 280.569 411.375 280.719C411.538 280.83 411.723 280.905 411.917 280.938C412.677 281.091 413.456 281.136 414.229 281.071C414.38 281.041 414.537 281.061 414.676 281.128C414.789 281.228 414.86 281.367 414.875 281.518C415.32 283.456 415.287 285.474 414.78 287.396C414.619 288.034 414.438 288.804 414.904 289.299C415.073 289.452 415.28 289.557 415.503 289.603C416.968 289.955 418.357 288.871 419.365 287.701C420.248 286.684 421.008 285.567 421.629 284.372C421.823 284.04 421.955 283.676 422.019 283.297C422.046 282.806 421.979 282.315 421.819 281.851C421.4 280.251 421.145 278.613 421.058 276.962C420.954 274.85 421.106 272.652 420.288 270.693C420.055 270.019 419.607 269.441 419.013 269.047C418.303 268.709 417.511 268.58 416.73 268.676C415.199 268.733 413.506 268.943 412.459 270.075C412.164 270.398 411.527 272.576 411.118 273.261Z" fill="#FFBBAB"/>
<path d="M421.896 283.43C421.896 283.43 415.57 286.702 413.658 289.271C411.746 291.839 408.626 293.732 409.853 298.593C411.08 303.453 409.587 310.873 409.587 310.873C409.587 310.873 412.336 319.52 419.099 321.707C425.862 323.895 423.998 323.201 423.998 323.201C423.998 323.201 427.584 307.173 428.992 302.711C430.4 298.25 428.022 282.717 421.896 283.43Z" fill="#459FFF"/>
<path d="M413.154 269.855C413.28 270.898 413.776 271.86 414.552 272.566C415.304 273.261 416.227 273.746 417.007 274.412C417.418 274.72 417.745 275.126 417.959 275.593C418.174 276.059 418.268 276.572 418.234 277.085C418.532 276.966 418.863 276.955 419.168 277.054C419.474 277.153 419.736 277.356 419.908 277.627C419.988 277.818 420.013 278.028 419.981 278.233C419.949 278.438 419.861 278.63 419.727 278.787C419.589 278.941 419.418 279.062 419.227 279.141C419.036 279.22 418.83 279.256 418.624 279.244C419.423 279.571 420.108 280.127 420.593 280.842C421.135 281.641 421.401 282.592 421.896 283.429C422.507 284.275 423.271 284.998 424.15 285.56C424.544 285.826 424.87 286.181 425.101 286.597C425.282 287.244 425.501 287.879 425.758 288.5C426.32 289.292 426.923 290.054 427.565 290.782C428.434 292.054 428.931 293.543 429.001 295.082C428.959 294.626 428.959 294.168 429.001 293.712C429.16 293.446 429.312 293.17 429.458 292.885C429.701 292.387 429.89 291.864 430.019 291.325C430.202 290.09 430.237 288.839 430.124 287.596C430.124 284.932 432.635 279.919 430.619 277.636C429.815 276.964 428.96 276.356 428.06 275.82C426.281 274.345 426.034 271.748 424.911 269.732C424.413 268.844 423.744 268.064 422.942 267.437C422.141 266.81 421.222 266.348 420.241 266.079C417.615 265.328 412.802 266.155 413.154 269.855Z" fill="#FC682D"/>
<path d="M419.461 291.762C419.461 291.762 415.466 302.568 414.705 303.358C413.944 304.147 422.4 308.923 422.4 308.923C422.4 308.923 427.927 298.411 427.67 293.865C427.413 289.318 422.571 287.472 419.461 291.762Z" fill="#459FFF"/>
<path d="M422.362 307.458C422.362 307.458 422.067 310.939 417.796 310.873L398.819 310.607C397.525 309.941 395.756 309.836 394.795 308.704C394.329 308.19 394.091 307.506 393.654 306.973C393.049 306.306 392.233 305.869 391.342 305.736C390.46 305.61 389.566 305.587 388.679 305.67C388.505 305.469 388.409 305.212 388.409 304.947C388.409 304.681 388.505 304.425 388.679 304.224C389.051 303.838 389.533 303.576 390.058 303.472C392.243 302.925 394.556 303.268 396.489 304.424C397.048 304.821 397.66 305.141 398.305 305.375C398.781 305.472 399.268 305.497 399.751 305.451C405.221 305.194 410.624 304.034 416.093 303.786C417.376 303.658 418.671 303.794 419.898 304.186C420.54 304.495 421.098 304.954 421.527 305.523C421.955 306.092 422.242 306.756 422.362 307.458V307.458Z" fill="#FFBBAB"/>
<path d="M361.341 308.618H358.649V357.873H361.341V308.618Z" fill="white"/>
<path d="M391.704 308.618H389.012V357.873H391.704V308.618Z" fill="white"/>
<path d="M393.188 306.478H355.491V310.758H393.188V306.478Z" fill="#459FFF"/>
<path d="M393.188 306.478H355.491V310.758H393.188V306.478Z" fill="url(#paint11_linear)"/>
<path d="M424.635 331.172H400.103C399.525 331.172 399.057 331.64 399.057 332.218V336.489C399.057 337.067 399.525 337.536 400.103 337.536H424.635C425.213 337.536 425.681 337.067 425.681 336.489V332.218C425.681 331.64 425.213 331.172 424.635 331.172Z" fill="#473F47"/>
<path d="M404.279 337.535H399.78L397.535 358.358H402.034L404.279 337.535Z" fill="#473F47"/>
<path d="M427.166 358.358L424.188 337.535H419.689L423.427 358.358H427.166Z" fill="#473F47"/>
<path d="M433.795 296.252H429.762L420.649 331.333H424.683L433.795 296.252Z" fill="#473F47"/>
<path d="M197.416 337.535H221.948C222.526 337.535 222.994 337.067 222.994 336.489V332.218C222.994 331.64 222.526 331.171 221.948 331.171H197.416C196.838 331.171 196.369 331.64 196.369 332.218V336.489C196.369 337.067 196.838 337.535 197.416 337.535Z" fill="#473F47"/>
<path d="M217.772 337.535H222.271L224.516 358.358H220.017L217.772 337.535Z" fill="#473F47"/>
<path d="M194.886 358.358L197.863 337.535H202.362L198.624 358.358H194.886Z" fill="#473F47"/>
<path d="M188.255 296.252H192.289L201.401 331.333H197.368L188.255 296.252Z" fill="#473F47"/>
<path d="M309.803 362.6C308.441 363.966 307.461 365.665 306.964 367.529C306.467 369.393 306.469 371.355 306.97 373.217C307.471 375.08 308.454 376.778 309.82 378.14C311.186 379.502 312.886 380.481 314.75 380.978V383.489H182.529C179.772 383.491 177.085 382.623 174.849 381.009C172.614 379.395 170.944 377.118 170.078 374.5C169.63 373.167 169.401 371.769 169.402 370.362C169.401 368.638 169.74 366.931 170.399 365.337C171.058 363.744 172.025 362.297 173.244 361.077C174.464 359.858 175.911 358.891 177.504 358.232C179.098 357.573 180.805 357.234 182.529 357.235H314.75V359.747C312.878 360.244 311.171 361.229 309.803 362.6V362.6Z" fill="#459FFF"/>
<path d="M314.75 380.978V383.489H182.529C179.772 383.491 177.085 382.623 174.849 381.009C172.614 379.395 170.944 377.118 170.078 374.5C175.1 375.385 206.9 380.455 224.602 370.362L307.52 374.786C308.183 376.295 309.177 377.635 310.428 378.707C311.68 379.779 313.157 380.555 314.75 380.978V380.978Z" fill="url(#paint12_linear)"/>
<path d="M309.803 362.6C308.441 363.965 307.461 365.665 306.964 367.529C306.467 369.393 306.469 371.354 306.97 373.217C307.471 375.08 308.454 376.778 309.82 378.14C311.186 379.502 312.886 380.481 314.75 380.978V381.32H235.589C234.119 381.363 232.656 381.111 231.286 380.579C229.916 380.046 228.666 379.244 227.612 378.22C226.557 377.196 225.719 375.971 225.146 374.617C224.574 373.263 224.279 371.808 224.279 370.338C224.279 368.868 224.574 367.413 225.146 366.059C225.719 364.705 226.557 363.48 227.612 362.456C228.666 361.432 229.916 360.63 231.286 360.098C232.656 359.565 234.119 359.313 235.589 359.356H314.75V359.718C312.875 360.223 311.168 361.218 309.803 362.6V362.6Z" fill="white"/>
<path d="M210.676 268.952L219.484 272.643L210.676 276.096V268.952Z" fill="#459FFF"/>
<path d="M398.201 271.463H223.051V273.812H398.201V271.463Z" fill="#459FFF"/>
<path d="M199.442 319.1C199.442 319.1 198.776 329.031 207.651 332.028C213.986 334.168 221.254 333.702 227.817 333.122C228.873 333.026 230.766 332.494 231.698 333.198C233.011 334.149 232.354 336.803 232.316 338.239C232.231 341.359 232.155 344.47 232.069 347.59C232.069 349.026 232.069 350.5 231.955 351.927C231.841 353.354 231.489 355.028 231.384 356.607C231.371 356.673 231.371 356.741 231.386 356.807C231.401 356.872 231.429 356.934 231.47 356.988C231.524 357.031 231.587 357.062 231.654 357.08C231.721 357.098 231.791 357.102 231.86 357.092L243.484 356.588C243.609 356.603 243.735 356.569 243.836 356.493C244.007 356.331 243.893 356.046 243.76 355.856C242.561 354.311 240.891 353.199 239.004 352.688C238.558 352.577 238.134 352.394 237.748 352.146C236.54 351.195 237.539 349.15 237.814 347.999L239.013 342.995L241.372 333.16C242.076 330.249 242.247 328.033 240.002 326.006C237.982 324.004 235.537 322.483 232.849 321.555L215.147 315.98L199.442 319.1Z" fill="#473F47"/>
<path d="M269.386 286.303L259.883 306.478L242.323 306.354L242.466 304.832L258.608 304.652L267.55 285.561L269.386 286.303Z" fill="#473F47"/>
<path d="M222.899 273.261C223.232 273.813 223.908 274.136 224.126 274.736C224.345 275.335 223.879 276.229 223.613 276.961C223.251 277.979 223.365 279.121 223.014 280.148C222.952 280.37 222.827 280.569 222.652 280.719C222.489 280.829 222.304 280.903 222.11 280.938C221.35 281.091 220.571 281.136 219.798 281.071C219.647 281.041 219.49 281.061 219.351 281.128C219.238 281.228 219.167 281.367 219.152 281.518C218.704 283.455 218.733 285.473 219.237 287.396C219.408 288.034 219.589 288.804 219.123 289.299C218.954 289.452 218.747 289.557 218.524 289.603C217.059 289.955 215.67 288.871 214.662 287.701C213.779 286.684 213.019 285.566 212.398 284.371C212.204 284.04 212.072 283.676 212.008 283.297C211.981 282.806 212.048 282.315 212.208 281.851C212.624 280.251 212.876 278.613 212.959 276.961C213.073 274.85 212.959 272.652 213.73 270.693C213.966 270.018 214.417 269.44 215.014 269.047C215.721 268.709 216.509 268.581 217.287 268.676C218.828 268.733 220.512 268.943 221.558 270.075C221.863 270.398 222.5 272.576 222.899 273.261Z" fill="#FFBBAB"/>
<path d="M212.093 283.468H212.226C215.023 284.162 219.094 286.711 220.007 289.546C221.158 293.104 221.91 297.888 221.082 301.57C220.521 304.071 219.18 306.326 218.428 308.78C217.791 310.806 217.525 312.956 216.688 314.906C215.643 317.173 213.883 319.035 211.679 320.207C209.475 321.378 206.947 321.795 204.483 321.393C203.176 321.171 201.944 320.629 200.897 319.814C199.948 318.931 199.215 317.841 198.754 316.628C198.294 315.416 198.119 314.114 198.243 312.823C198.523 310.242 199.2 307.72 200.25 305.346L204.607 293.979C205.663 291.258 208.222 282.697 212.093 283.468Z" fill="#459FFF"/>
<path d="M209.839 311.424C210.084 311.832 210.245 312.285 210.315 312.756C210.327 313.103 210.286 313.449 210.191 313.783C209.743 315.631 209.554 317.533 209.63 319.433C209.6 319.777 209.706 320.118 209.925 320.385C210.171 320.561 210.468 320.654 210.771 320.651C211.859 320.828 212.974 320.716 214.005 320.327C215.115 319.63 215.952 318.572 216.374 317.331C217.767 313.879 218.828 310.302 219.541 306.649C219.721 306.064 219.779 305.449 219.713 304.842C219.596 304.39 219.391 303.966 219.11 303.594C218.83 303.222 218.478 302.909 218.077 302.673C217.316 302.15 216.45 301.769 215.717 301.198C214.272 300.095 213.206 298.088 211.237 297.831C210.557 297.781 209.88 297.971 209.324 298.367C208.769 298.763 208.369 299.34 208.193 300C206.9 303.415 208.288 308.294 209.839 311.424Z" fill="url(#paint13_linear)"/>
<path d="M214.576 291.762C214.576 291.762 218.571 302.568 219.332 303.358C220.093 304.147 211.646 308.923 211.646 308.923C211.646 308.923 206.11 298.411 206.376 293.865C206.643 289.318 211.456 287.472 214.576 291.762Z" fill="#459FFF"/>
<path d="M211.665 307.458C211.665 307.458 211.96 310.939 216.221 310.873L235.246 310.607C236.53 309.941 238.299 309.836 239.27 308.704C239.726 308.19 239.964 307.506 240.411 306.973C241.016 306.306 241.832 305.869 242.723 305.736C243.605 305.61 244.499 305.587 245.386 305.67C245.558 305.468 245.653 305.212 245.653 304.947C245.653 304.682 245.558 304.425 245.386 304.224C245.012 303.84 244.532 303.579 244.007 303.472C241.822 302.925 239.509 303.268 237.576 304.424C237.017 304.821 236.405 305.141 235.76 305.375C235.284 305.472 234.797 305.497 234.314 305.451C228.844 305.194 223.441 304.034 217.972 303.786C216.689 303.66 215.395 303.796 214.167 304.186C213.517 304.489 212.95 304.945 212.515 305.515C212.079 306.085 211.788 306.751 211.665 307.458V307.458Z" fill="#FFBBAB"/>
<path d="M239.451 308.618H236.759V357.873H239.451V308.618Z" fill="white"/>
<path d="M269.823 308.618H267.131V357.873H269.823V308.618Z" fill="white"/>
<path d="M271.298 306.478H233.601V310.758H271.298V306.478Z" fill="#459FFF"/>
<path d="M271.298 306.478H233.601V310.758H271.298V306.478Z" fill="url(#paint14_linear)"/>
<path d="M221.606 264.624C221.148 263.921 220.532 263.335 219.807 262.914C219.081 262.492 218.267 262.247 217.43 262.198C216.868 262.114 216.296 262.151 215.75 262.305C215.204 262.459 214.697 262.728 214.262 263.092C213.92 263.435 213.663 263.863 213.311 264.196C212.293 265.147 210.724 265.033 209.506 265.613C208.406 266.185 207.56 267.149 207.137 268.315C206.724 269.474 206.493 270.69 206.453 271.92C206.317 273.044 206.378 274.184 206.633 275.287C206.877 276.103 207.306 276.851 207.887 277.473C208.468 278.095 209.185 278.574 209.982 278.873C210.36 278.963 210.71 279.146 210.999 279.406C211.228 279.663 211.304 280.034 211.523 280.3C212.065 280.966 213.149 280.719 213.825 280.195C214.411 279.577 215.08 279.042 215.813 278.607L213.91 276.029C213.666 275.772 213.527 275.433 213.52 275.078C213.578 274.872 213.703 274.692 213.875 274.566C214.048 274.44 214.258 274.376 214.471 274.383C214.9 274.422 215.304 274.599 215.622 274.888C215.898 275.116 216.317 275.373 216.574 275.106C216.652 275.023 216.699 274.916 216.707 274.802C216.916 273.527 215.756 272.262 216.098 270.997C216.125 270.882 216.188 270.779 216.279 270.702C216.413 270.631 216.568 270.611 216.716 270.645C217.474 270.768 218.246 270.788 219.009 270.702C221.415 270.255 222.804 266.688 221.606 264.624Z" fill="#473F47"/>
<path d="M218.162 291.468C218.162 291.934 218.162 292.524 217.677 292.638C217.486 292.67 217.291 292.643 217.116 292.562C216.387 292.305 215.697 291.954 215.061 291.515C215.225 295.451 215.763 299.363 216.669 303.196C216.707 303.415 216.791 303.622 216.916 303.805C217.053 303.937 217.216 304.038 217.395 304.104C217.573 304.169 217.763 304.197 217.953 304.186C218.89 304.234 219.827 304.098 220.711 303.786C218.352 299.867 218.248 294.892 219.579 290.526C219.859 289.896 219.932 289.193 219.789 288.519C219.527 288.052 219.17 287.645 218.74 287.326C218.311 287.006 217.819 286.781 217.296 286.664C217.011 288.1 218.048 290.003 218.162 291.468Z" fill="url(#paint15_linear)"/>
</g>
<defs>
<filter id="filter0_d" x="0.24707" y="0.0458984" width="573.531" height="505.956" filterUnits="userSpaceOnUse" color-interpolation-filters="sRGB">
<feFlood flood-opacity="0" result="BackgroundImageFix"/>
<feColorMatrix in="SourceAlpha" type="matrix" values="0 0 0 0 0 0 0 0 0 0 0 0 0 0 0 0 0 0 127 0"/>
<feOffset dx="2" dy="4"/>
<feGaussianBlur stdDeviation="50"/>
<feColorMatrix type="matrix" values="0 0 0 0 0.670833 0 0 0 0 0.670833 0 0 0 0 0.670833 0 0 0 0.25 0"/>
<feBlend mode="normal" in2="BackgroundImageFix" result="effect1_dropShadow"/>
<feBlend mode="normal" in="SourceGraphic" in2="effect1_dropShadow" result="shape"/>
</filter>
<linearGradient id="paint0_linear" x1="295.468" y1="287.311" x2="301.727" y2="371.665" gradientUnits="userSpaceOnUse">
<stop offset="0.01"/>
<stop offset="0.08" stop-opacity="0.69"/>
<stop offset="0.21" stop-opacity="0.32"/>
<stop offset="1" stop-opacity="0"/>
</linearGradient>
<linearGradient id="paint1_linear" x1="12061.4" y1="10829.6" x2="20266" y2="7543.7" gradientUnits="userSpaceOnUse">
<stop offset="0.01"/>
<stop offset="0.08" stop-opacity="0.69"/>
<stop offset="0.21" stop-opacity="0.32"/>
<stop offset="1" stop-opacity="0"/>
</linearGradient>
<linearGradient id="paint2_linear" x1="-143204" y1="20039.6" x2="-143650" y2="7605.51" gradientUnits="userSpaceOnUse">
<stop offset="0.01"/>
<stop offset="0.08" stop-opacity="0.69"/>
<stop offset="0.21" stop-opacity="0.32"/>
<stop offset="1" stop-opacity="0"/>
</linearGradient>
<linearGradient id="paint3_linear" x1="-18904.6" y1="4701.25" x2="-18569.3" y2="4653.34" gradientUnits="userSpaceOnUse">
<stop offset="0.01"/>
<stop offset="0.08" stop-opacity="0.69"/>
<stop offset="0.21" stop-opacity="0.32"/>
<stop offset="1" stop-opacity="0"/>
</linearGradient>
<linearGradient id="paint4_linear" x1="-27680.7" y1="5069.86" x2="-28204.4" y2="4787.1" gradientUnits="userSpaceOnUse">
<stop offset="0.01"/>
<stop offset="0.08" stop-opacity="0.69"/>
<stop offset="0.21" stop-opacity="0.32"/>
<stop offset="1" stop-opacity="0"/>
</linearGradient>
<linearGradient id="paint5_linear" x1="-28368.6" y1="4733.27" x2="-28780.3" y2="4561.73" gradientUnits="userSpaceOnUse">
<stop offset="0.01"/>
<stop offset="0.08" stop-opacity="0.69"/>
<stop offset="0.21" stop-opacity="0.32"/>
<stop offset="1" stop-opacity="0"/>
</linearGradient>
<linearGradient id="paint6_linear" x1="-5649.71" y1="4806.34" x2="-5136.26" y2="4558" gradientUnits="userSpaceOnUse">
<stop offset="0.01"/>
<stop offset="0.08" stop-opacity="0.69"/>
<stop offset="0.21" stop-opacity="0.32"/>
<stop offset="1" stop-opacity="0"/>
</linearGradient>
<linearGradient id="paint7_linear" x1="-7130.79" y1="4733.27" x2="-6719" y2="4561.76" gradientUnits="userSpaceOnUse">
<stop offset="0.01"/>
<stop offset="0.08" stop-opacity="0.69"/>
<stop offset="0.21" stop-opacity="0.32"/>
<stop offset="1" stop-opacity="0"/>
</linearGradient>
<linearGradient id="paint8_linear" x1="-110790" y1="7957.57" x2="-111624" y2="14975.1" gradientUnits="userSpaceOnUse">
<stop offset="0.01"/>
<stop offset="0.08" stop-opacity="0.69"/>
<stop offset="0.21" stop-opacity="0.32"/>
<stop offset="1" stop-opacity="0"/>
</linearGradient>
<linearGradient id="paint9_linear" x1="36728.9" y1="3480.61" x2="36771.9" y2="7455.38" gradientUnits="userSpaceOnUse">
<stop offset="0.01"/>
<stop offset="0.08" stop-opacity="0.69"/>
<stop offset="0.21" stop-opacity="0.32"/>
<stop offset="1" stop-opacity="0"/>
</linearGradient>
<linearGradient id="paint10_linear" x1="49042.8" y1="3881.54" x2="49085.7" y2="7850.55" gradientUnits="userSpaceOnUse">
<stop offset="0.01"/>
<stop offset="0.08" stop-opacity="0.69"/>
<stop offset="0.21" stop-opacity="0.32"/>
<stop offset="1" stop-opacity="0"/>
</linearGradient>
<linearGradient id="paint11_linear" x1="11289.5" y1="1154.96" x2="11289.8" y2="1426.15" gradientUnits="userSpaceOnUse">
<stop offset="0.01"/>
<stop offset="0.08" stop-opacity="0.69"/>
<stop offset="0.21" stop-opacity="0.32"/>
<stop offset="1" stop-opacity="0"/>
</linearGradient>
<linearGradient id="paint12_linear" x1="29829.3" y1="3881.55" x2="29872.1" y2="7850.56" gradientUnits="userSpaceOnUse">
<stop offset="0.01"/>
<stop offset="0.08" stop-opacity="0.69"/>
<stop offset="0.21" stop-opacity="0.32"/>
<stop offset="1" stop-opacity="0"/>
</linearGradient>
<linearGradient id="paint13_linear" x1="2231.97" y1="7105.14" x2="2860.99" y2="7066.37" gradientUnits="userSpaceOnUse">
<stop offset="0.01"/>
<stop offset="0.08" stop-opacity="0.69"/>
<stop offset="0.21" stop-opacity="0.32"/>
<stop offset="1" stop-opacity="0"/>
</linearGradient>
<linearGradient id="paint14_linear" x1="6342.04" y1="1223.28" x2="6342.17" y2="1338.39" gradientUnits="userSpaceOnUse">
<stop offset="0.01"/>
<stop offset="0.08" stop-opacity="0.69"/>
<stop offset="0.21" stop-opacity="0.32"/>
<stop offset="1" stop-opacity="0"/>
</linearGradient>
<linearGradient id="paint15_linear" x1="1451.85" y1="5357.56" x2="997.646" y2="5313.21" gradientUnits="userSpaceOnUse">
<stop offset="0.01"/>
<stop offset="0.08" stop-opacity="0.69"/>
<stop offset="0.21" stop-opacity="0.32"/>
<stop offset="1" stop-opacity="0"/>
</linearGradient>
</defs>
</svg>
