<svg width="514" height="438" viewBox="0 0 514 438" fill="none" xmlns="http://www.w3.org/2000/svg">
<g filter="url(#filter0_d)">
<path opacity="0.3" d="M255 333.52C341.389 333.52 411.421 324.581 411.421 313.555C411.421 302.528 341.389 293.59 255 293.59C168.61 293.59 98.5781 302.528 98.5781 313.555C98.5781 324.581 168.61 333.52 255 333.52Z" fill="#CCCCCC"/>
<path d="M382.189 110.058H166.604V259.77H382.189V110.058Z" fill="#CCCCCC"/>
<path d="M279.147 124.085H184.854V239.318H279.147V124.085Z" fill="#E6E6E6"/>
<g opacity="0.39">
<path opacity="0.39" d="M246.088 142.131H236.953V145.013H246.088V142.131Z" fill="#C9C9C9"/>
<path opacity="0.39" d="M272.031 142.131H249.194V145.013H272.031V142.131Z" fill="#C9C9C9"/>
<path opacity="0.39" d="M259.699 151.448H236.953V154.331H259.699V151.448Z" fill="#C9C9C9"/>
<path opacity="0.39" d="M272.032 151.448H262.623V154.331H272.032V151.448Z" fill="#C9C9C9"/>
<path opacity="0.39" d="M272.032 160.767H248.372V163.649H272.032V160.767Z" fill="#C9C9C9"/>
<path opacity="0.39" d="M245.814 160.767H236.953V163.649H245.814V160.767Z" fill="#C9C9C9"/>
<path opacity="0.39" d="M264.084 170.074H236.953V172.957H264.084V170.074Z" fill="#C9C9C9"/>
</g>
<path opacity="0.39" d="M228.458 142.131H192.567V181.696H228.458V142.131Z" fill="#C9C9C9"/>
<path d="M279.147 124.085H184.854V134.641H279.147V124.085Z" fill="#62A2FF"/>
<path opacity="0.39" d="M272.032 191.42H241.155V194.079H272.032V191.42Z" fill="#C9C9C9"/>
<path opacity="0.39" d="M237.501 191.42H192.567V194.079H237.501V191.42Z" fill="#C9C9C9"/>
<path opacity="0.39" d="M272.032 201.631H250.108V204.29H272.032V201.631Z" fill="#C9C9C9"/>
<path opacity="0.39" d="M245.723 201.631H192.567V204.29H245.723V201.631Z" fill="#C9C9C9"/>
<path opacity="0.39" d="M219.607 211.842H192.567V214.501H219.607V211.842Z" fill="#C9C9C9"/>
<path opacity="0.39" d="M272.032 211.842H226.915V214.501H272.032V211.842Z" fill="#C9C9C9"/>
<path opacity="0.39" d="M261.801 222.053H192.567V224.712H261.801V222.053Z" fill="#C9C9C9"/>
<path d="M215.983 153.205C215.983 153.205 217.313 159.569 216.734 163.985C216.678 164.412 216.538 164.823 216.322 165.196C216.106 165.569 215.819 165.895 215.477 166.156C215.134 166.418 214.744 166.609 214.327 166.719C213.911 166.828 213.477 166.855 213.05 166.796C210.837 166.471 207.975 165.396 206.808 162.066L204.25 156.636C203.842 155.499 203.797 154.262 204.123 153.098C204.448 151.934 205.127 150.901 206.067 150.14C209.325 147.115 215.415 149.267 215.983 153.205Z" fill="#F4A28C"/>
<path d="M204.676 157.62L203.834 178.925L215.608 178.549L211.487 163.203L204.676 157.62Z" fill="#F4A28C"/>
<path d="M214.4 153.652C212.413 153.964 210.397 154.046 208.391 153.895C209.07 154.707 209.497 155.699 209.622 156.75C209.746 157.801 209.562 158.865 209.092 159.813C208.651 160.735 207.905 161.476 206.979 161.909C206.054 162.342 205.007 162.44 204.017 162.188L203.134 153.875C202.972 152.691 203.131 151.484 203.596 150.382C204.06 149.281 204.812 148.324 205.773 147.613C206.609 146.996 207.484 146.433 208.391 145.928C210.665 144.689 214.349 145.867 216.308 143.999C216.505 143.812 216.747 143.679 217.01 143.614C217.274 143.549 217.55 143.553 217.811 143.627C218.072 143.701 218.309 143.841 218.5 144.035C218.69 144.228 218.827 144.468 218.897 144.73C219.567 147.207 219.587 151.236 216.339 153.023C215.733 153.34 215.077 153.552 214.4 153.652V153.652Z" fill="#FFD200"/>
<path d="M209.782 159.538C209.782 159.538 209.436 157.051 207.589 157.508C205.742 157.965 206.219 161.507 208.797 161.568L209.782 159.538Z" fill="#F4A28C"/>
<path d="M216.613 157.265L218.714 159.548C218.839 159.675 218.929 159.831 218.974 160.003C219.02 160.175 219.02 160.356 218.973 160.527C218.927 160.699 218.837 160.855 218.711 160.981C218.585 161.107 218.429 161.197 218.257 161.243L215.841 162.005L216.613 157.265Z" fill="#F4A28C"/>
<path opacity="0.31" d="M212.532 166.522C211.031 166.329 209.62 165.701 208.472 164.715C208.472 164.715 209.101 168.572 213.811 171.891L212.532 166.522Z" fill="#CE8172"/>
<path d="M206.635 175.606H214.4C215.057 175.606 215.708 175.736 216.315 175.987C216.922 176.239 217.474 176.607 217.938 177.072C218.403 177.537 218.772 178.088 219.023 178.695C219.275 179.303 219.404 179.953 219.404 180.61V181.727H201.642V180.61C201.642 179.953 201.771 179.303 202.023 178.695C202.274 178.088 202.643 177.537 203.107 177.072C203.572 176.607 204.124 176.239 204.731 175.987C205.338 175.736 205.988 175.606 206.646 175.606H206.635Z" fill="#62A2FF"/>
<path opacity="0.08" d="M373.755 151.733H296.808V245.753H373.755V151.733Z" fill="black"/>
<path d="M366.285 142.405H289.337V236.425H366.285V142.405Z" fill="#E6E6E6"/>
<g opacity="0.39">
<path opacity="0.39" d="M339.296 157.133H331.846V159.477H339.296V157.133Z" fill="#C9C9C9"/>
<path opacity="0.39" d="M360.469 157.133H341.833V159.477H360.469V157.133Z" fill="#C9C9C9"/>
<path opacity="0.39" d="M350.4 164.735H331.846V167.08H350.4V164.735Z" fill="#C9C9C9"/>
<path opacity="0.39" d="M360.459 164.735H352.785V167.08H360.459V164.735Z" fill="#C9C9C9"/>
<path opacity="0.39" d="M360.469 172.338H341.164V174.683H360.469V172.338Z" fill="#C9C9C9"/>
<path opacity="0.39" d="M339.072 172.338H331.846V174.683H339.072V172.338Z" fill="#C9C9C9"/>
<path opacity="0.39" d="M353.983 179.939H331.846V182.284H353.983V179.939Z" fill="#C9C9C9"/>
</g>
<path opacity="0.39" d="M324.923 157.133H295.63V189.42H324.923V157.133Z" fill="#C9C9C9"/>
<path d="M366.285 142.405H289.337V151.023H366.285V142.405Z" fill="#62A2FF"/>
<path opacity="0.39" d="M360.469 197.357H335.276V199.53H360.469V197.357Z" fill="#C9C9C9"/>
<path opacity="0.39" d="M332.302 197.357H295.63V199.53H332.302V197.357Z" fill="#C9C9C9"/>
<path opacity="0.39" d="M360.459 205.681H342.574V207.853H360.459V205.681Z" fill="#C9C9C9"/>
<path opacity="0.39" d="M339.001 205.681H295.63V207.853H339.001V205.681Z" fill="#C9C9C9"/>
<path opacity="0.39" d="M317.686 214.014H295.63V216.186H317.686V214.014Z" fill="#C9C9C9"/>
<path opacity="0.39" d="M360.459 214.014H323.645V216.186H360.459V214.014Z" fill="#C9C9C9"/>
<path opacity="0.39" d="M352.125 222.347H295.63V224.519H352.125V222.347Z" fill="#C9C9C9"/>
<path d="M316.651 165.802C317.279 168.855 317.498 171.978 317.301 175.089C317.251 175.456 317.129 175.81 316.942 176.13C316.756 176.45 316.508 176.73 316.213 176.955C315.918 177.179 315.581 177.343 315.223 177.437C314.865 177.532 314.491 177.555 314.124 177.505C312.932 177.417 311.79 176.988 310.836 176.267C309.881 175.547 309.155 174.567 308.744 173.445L306.501 168.776C306.159 167.794 306.127 166.732 306.408 165.732C306.69 164.732 307.271 163.842 308.074 163.183C310.947 160.544 316.123 162.422 316.651 165.802Z" fill="#F4A28C"/>
<path d="M306.907 169.617L306.187 187.958L316.326 187.644L312.784 174.418L306.907 169.617Z" fill="#F4A28C"/>
<path d="M317.189 169.293L318.996 171.252C319.099 171.363 319.171 171.498 319.208 171.645C319.244 171.792 319.242 171.946 319.202 172.092C319.163 172.238 319.087 172.372 318.981 172.481C318.876 172.589 318.745 172.67 318.6 172.714L316.57 173.373L317.189 169.293Z" fill="#F4A28C"/>
<path opacity="0.31" d="M313.677 177.28C312.391 177.111 311.181 176.571 310.196 175.728C310.196 175.728 310.734 179.047 314.784 181.899L313.677 177.28Z" fill="#CE8172"/>
<path d="M316.326 163.355C316.326 163.355 316.326 169.577 310.551 169.719C310.652 169.719 310.348 173.16 310.328 173.333C310.023 175.718 310.642 178.164 310.592 180.6C310.617 181.021 310.529 181.442 310.338 181.818C310.017 182.22 309.57 182.502 309.069 182.62C306.285 183.532 303.313 183.707 300.442 183.127C300.037 183.103 299.645 182.98 299.299 182.769C298.953 182.558 298.664 182.265 298.458 181.917C298.251 181.568 298.134 181.174 298.115 180.769C298.096 180.364 298.177 179.961 298.351 179.595C298.572 178.204 298.95 176.842 299.477 175.535C299.944 174.358 300.655 173.292 301.111 172.135C302.118 169.521 302.8 166.794 303.141 164.015C303.214 163.167 303.392 162.332 303.669 161.528C304.161 160.418 304.917 159.446 305.872 158.696C306.821 157.987 308.002 157.661 309.181 157.783C315.342 157.661 316.813 160.31 316.326 163.355Z" fill="#FFD200"/>
<path d="M311.302 171.262C311.302 171.262 311.007 169.13 309.414 169.485C307.82 169.841 308.237 172.926 310.429 172.957L311.302 171.262Z" fill="#F4A28C"/>
<path d="M318.691 189.572H303.223V189.288C303.223 187.942 303.757 186.651 304.709 185.7C305.661 184.748 306.952 184.213 308.298 184.213H313.687C315.033 184.213 316.324 184.748 317.276 185.7C318.228 186.651 318.762 187.942 318.762 189.288V189.572H318.691Z" fill="#62A2FF"/>
<path opacity="0.08" d="M162.635 183.858C163.353 183.547 164.088 183.279 164.838 183.056C168.509 182.077 172.295 181.596 176.094 181.625C182.184 181.452 189.106 181.706 194.872 183.847C200.332 185.877 203.55 190.952 205.519 196.18C206.138 197.814 206.412 198.981 208.473 198.697C215.286 197.746 221.727 195.008 227.138 190.76C232.021 186.903 236.273 181.716 242.292 180.183C242.762 180.037 243.264 180.037 243.734 180.183C244.535 180.488 244.82 181.482 244.891 182.335C245.019 185.393 244.185 188.414 242.505 190.973C240.834 193.509 238.935 195.887 236.832 198.078C230.589 205.051 224.652 212.531 216.532 217.363C215.291 217.926 214.248 218.849 213.537 220.012C212.086 223.24 213.476 254.867 213.537 260.175H176.997L160.108 216.744C157.063 208.969 149.958 197.459 155.611 189.399C157.382 186.925 159.817 185.004 162.635 183.858V183.858Z" fill="black"/>
<path opacity="0.58" d="M359.342 301.09C359.342 301.09 349.578 298.421 347.457 289.347C347.457 289.347 362.58 286.302 363.006 301.892L359.342 301.09Z" fill="#62A2FF"/>
<path opacity="0.73" d="M360.56 300.126C360.56 300.126 353.749 289.347 359.748 279.268C359.748 279.268 371.238 286.565 366.132 300.146L360.56 300.126Z" fill="#62A2FF"/>
<path d="M362.286 300.127C362.286 300.127 365.889 288.748 376.78 286.597C376.78 286.597 378.81 293.986 369.675 300.157L362.286 300.127Z" fill="#62A2FF"/>
<path d="M355.211 299.872L357.19 313.402L369.644 313.453L371.481 299.943L355.211 299.872Z" fill="#24285B"/>
<path d="M121.162 262.449C121.162 262.449 121.984 274.629 127.739 271.432C133.494 268.235 126.288 262.449 126.288 262.449H121.162Z" fill="#F4A28C"/>
<path d="M138.914 183.574C138.914 183.574 98.1518 212.552 120.208 262.45H126.298C126.298 262.45 123.101 226.285 138.914 209.112C154.728 191.938 138.914 183.574 138.914 183.574Z" fill="#62A2FF"/>
<path opacity="0.2" d="M138.914 183.574C138.914 183.574 98.1518 212.552 120.208 262.45H126.298C126.298 262.45 123.101 226.285 138.914 209.112C154.728 191.938 138.914 183.574 138.914 183.574Z" fill="white"/>
<path d="M150.039 167.933L153.51 178.347L145.268 183.574L142.305 165.527L150.039 167.933Z" fill="#F4A28C"/>
<path d="M139.889 159.295C140.222 158.511 140.747 157.823 141.416 157.295C142.085 156.767 142.876 156.416 143.717 156.275C144.557 156.133 145.42 156.205 146.225 156.485C147.03 156.765 147.752 157.242 148.323 157.874C151.074 160.818 154.413 165.497 150.638 168.024C144.882 171.922 139.604 164.644 139.604 164.644C139.173 162.872 139.272 161.012 139.889 159.295Z" fill="#F4A28C"/>
<path d="M144.832 161.853C144.832 161.853 142.954 160.29 142.102 162.513C141.249 164.736 144.568 165.822 145.553 164.695C146.537 163.569 144.832 161.853 144.832 161.853Z" fill="#F4A28C"/>
<path d="M149.173 232.286L108.915 242.662L116.149 270.732L156.407 260.356L149.173 232.286Z" fill="#FFD200"/>
<path opacity="0.08" d="M129.8 236.749L136.245 255.72L135.9 265.068L145.147 262.713L149.257 245.864L138.052 234.598L129.8 236.749Z" fill="black"/>
<path d="M135.656 188.73C136.9 185.974 138.722 183.518 140.998 181.528C143.275 179.539 145.953 178.063 148.851 177.2C160.016 173.84 180.651 177.515 186.934 187.989C195.541 202.321 182.945 247.874 182.945 247.874L145.38 250.726C145.38 250.726 124.654 213.405 135.656 188.73Z" fill="#62A2FF"/>
<path d="M182.955 247.813L178.012 312.479H170.187L163.203 262.237L145.908 250.727L182.955 247.813Z" fill="#24285B"/>
<path d="M145.908 250.727L135.118 312.479H143.502L161.62 261.181L145.908 250.727Z" fill="#24285B"/>
<path opacity="0.08" d="M152.11 176.164C152.11 176.164 134.52 232.842 185.33 236.597L182.935 247.813L145.38 250.726C145.38 250.726 132.124 229.918 132.693 200.686C132.693 200.686 133.007 186.233 143.188 179.838C145.866 177.993 148.908 176.74 152.11 176.164V176.164Z" fill="black"/>
<path d="M137.077 312.347L132.002 316.072C131.799 316.205 131.646 316.401 131.565 316.63C131.485 316.859 131.482 317.108 131.557 317.339C131.632 317.569 131.781 317.769 131.981 317.907C132.18 318.045 132.42 318.113 132.662 318.102H141.127C141.42 318.102 141.702 317.985 141.909 317.778C142.117 317.57 142.233 317.289 142.233 316.995V312.377L137.077 312.347Z" fill="#62A2FF"/>
<path d="M177.028 312.347L181.788 316.072C181.986 316.21 182.134 316.41 182.209 316.639C182.284 316.869 182.282 317.117 182.205 317.346C182.127 317.575 181.977 317.772 181.777 317.908C181.578 318.045 181.339 318.113 181.098 318.102H175.069C174.215 318.102 173.397 317.763 172.793 317.159C172.19 316.556 171.851 315.738 171.851 314.884V312.377L177.028 312.347Z" fill="#62A2FF"/>
<path d="M140.102 166.847C140.102 166.847 141.939 170.176 144.974 169.141C148.009 168.105 145.827 160.94 145.827 160.94C145.827 160.94 149.501 155.641 148.973 151.449C148.887 150.953 148.644 150.497 148.28 150.148C147.917 149.799 147.451 149.575 146.951 149.509C146.452 149.444 145.944 149.539 145.503 149.782C145.061 150.025 144.709 150.403 144.497 150.861C144.15 151.501 143.641 152.04 143.022 152.422C142.402 152.805 141.693 153.019 140.965 153.043C135.798 153.611 131.058 161.772 140.102 166.847Z" fill="#24285B"/>
<path d="M176.5 179.595C176.5 179.595 201.093 193.419 208.757 193.419C216.42 193.419 235.543 178.996 235.543 178.996L239.603 187.421C239.603 187.421 223.363 212.735 208.848 210.766C194.334 208.796 171.872 196.139 171.872 196.139L176.5 179.595Z" fill="#62A2FF"/>
<path d="M235.542 179.027C235.542 179.027 239.125 171.647 240.313 171.739C241.501 171.83 241.044 174.205 241.044 174.205C241.044 174.205 244.88 169.912 245.977 170.551C247.073 171.191 247.164 180.782 239.582 187.451L235.542 179.027Z" fill="#F4A28C"/>
<path d="M382.189 96.6289H166.604V110.057H382.189V96.6289Z" fill="#24285B"/>
<path d="M186.629 106.861C188.575 106.861 190.152 105.284 190.152 103.338C190.152 101.393 188.575 99.8164 186.629 99.8164C184.684 99.8164 183.107 101.393 183.107 103.338C183.107 105.284 184.684 106.861 186.629 106.861Z" fill="white"/>
<path d="M197.114 106.861C199.06 106.861 200.636 105.284 200.636 103.338C200.636 101.393 199.06 99.8164 197.114 99.8164C195.169 99.8164 193.592 101.393 193.592 103.338C193.592 105.284 195.169 106.861 197.114 106.861Z" fill="#62A2FF"/>
<path d="M206.99 106.861C208.935 106.861 210.512 105.284 210.512 103.338C210.512 101.393 208.935 99.8164 206.99 99.8164C205.045 99.8164 203.468 101.393 203.468 103.338C203.468 105.284 205.045 106.861 206.99 106.861Z" fill="#FFD200"/>
<path opacity="0.2" d="M366.275 124.085H291.256V132.347H366.275V124.085Z" fill="white"/>
</g>
<defs>
<filter id="filter0_d" x="-46" y="-42" width="606" height="506" filterUnits="userSpaceOnUse" color-interpolation-filters="sRGB">
<feFlood flood-opacity="0" result="BackgroundImageFix"/>
<feColorMatrix in="SourceAlpha" type="matrix" values="0 0 0 0 0 0 0 0 0 0 0 0 0 0 0 0 0 0 127 0"/>
<feOffset dx="2" dy="4"/>
<feGaussianBlur stdDeviation="50"/>
<feColorMatrix type="matrix" values="0 0 0 0 0.516667 0 0 0 0 0.516667 0 0 0 0 0.516667 0 0 0 0.25 0"/>
<feBlend mode="normal" in2="BackgroundImageFix" result="effect1_dropShadow"/>
<feBlend mode="normal" in="SourceGraphic" in2="effect1_dropShadow" result="shape"/>
</filter>
</defs>
</svg>
