<svg width="973" height="765" viewBox="0 0 973 765" fill="none" xmlns="http://www.w3.org/2000/svg">
<g filter="url(#filter0_d)">
<path d="M473.46 654.318L114 441.878C102.56 435.478 92.7402 424.898 103.9 417.978L464.64 209.978C470.06 206.618 478.28 204.418 483.78 207.618L861 426.698C872.44 433.338 874.5 451.898 863 458.558L520.84 653.978C513.653 658.147 505.504 660.372 497.195 660.431C488.887 660.491 480.706 658.384 473.46 654.318V654.318Z" fill="#DD6F31"/>
<path d="M295.74 424.978C304.58 419.558 346.62 392.778 355.3 387.138C370.18 377.478 389.18 363.478 389.18 363.478L294.4 318.938L214.88 371.158C229.28 378.698 272.7 430.738 279.9 434.758C283.12 432.858 292.58 426.918 295.74 424.978Z" fill="url(#paint0_linear)"/>
<path d="M506.18 552.517C536.18 536.377 628.38 462.397 630.18 457.197L529 391.997L382.14 469.617C413.48 486.037 462.84 525.697 506.18 552.517Z" fill="url(#paint1_linear)"/>
<path d="M567 373.697L529 391.997C527.572 392.688 526.358 393.754 525.489 395.081C524.619 396.408 524.126 397.946 524.062 399.531C523.999 401.117 524.367 402.69 525.127 404.082C525.888 405.474 527.012 406.634 528.38 407.437L618.5 459.997C620.449 461.135 622.762 461.477 624.956 460.951C627.151 460.426 629.058 459.074 630.28 457.177L652.18 423.177" fill="#56403D"/>
<path d="M757.98 276.258L447.6 97.4776C446.07 96.5608 444.324 96.0697 442.541 96.055C440.758 96.0404 439.003 96.5027 437.459 97.3942C435.915 98.2856 434.637 99.5738 433.758 101.125C432.879 102.677 432.431 104.435 432.46 106.218V296.218C432.46 297.585 432.821 298.927 433.506 300.111C434.191 301.294 435.175 302.276 436.36 302.958L766.72 493.658C767.292 493.988 767.94 494.161 768.601 494.161C769.261 494.161 769.91 493.987 770.481 493.657C771.053 493.326 771.528 492.851 771.857 492.279C772.187 491.707 772.36 491.058 772.36 490.398V301.118C772.358 296.076 771.027 291.124 768.503 286.76C765.979 282.395 762.349 278.773 757.98 276.258V276.258Z" fill="#62A2FF"/>
<path d="M453 114.258L747 283.478C750.14 285.284 752.749 287.886 754.565 291.021C756.38 294.156 757.337 297.715 757.34 301.338V437.478C757.341 438.782 756.998 440.064 756.348 441.194C755.697 442.325 754.76 443.265 753.632 443.919C752.503 444.573 751.223 444.92 749.918 444.923C748.614 444.926 747.331 444.586 746.2 443.938L446.38 271.938C445.239 271.291 444.293 270.351 443.638 269.215C442.984 268.079 442.646 266.788 442.66 265.478V120.258C442.656 119.046 442.972 117.854 443.576 116.804C444.179 115.753 445.048 114.879 446.096 114.271C447.145 113.663 448.334 113.341 449.546 113.339C450.758 113.337 451.949 113.653 453 114.258V114.258Z" fill="white"/>
<path d="M579.834 370.613C581.569 370.279 582.974 369.999 582.972 369.988C582.97 369.977 581.562 370.239 579.826 370.574C578.091 370.908 576.686 371.187 576.688 371.198C576.69 371.209 578.098 370.947 579.834 370.613Z" fill="#AB643C"/>
<path d="M735.02 291.077C736.787 291.077 738.22 289.519 738.22 287.597C738.22 285.675 736.787 284.117 735.02 284.117C733.253 284.117 731.82 285.675 731.82 287.597C731.82 289.519 733.253 291.077 735.02 291.077Z" fill="#659FE4"/>
<path d="M724.82 285.997C726.587 285.997 728.02 284.439 728.02 282.517C728.02 280.595 726.587 279.037 724.82 279.037C723.053 279.037 721.62 280.595 721.62 282.517C721.62 284.439 723.053 285.997 724.82 285.997Z" fill="#C5E9FF"/>
<path d="M456.44 149.377L527.28 187.257C530.68 189.077 533.72 183.897 530.3 182.077L459.48 144.197C456.08 142.377 453.04 147.557 456.46 149.377H456.44Z" fill="#00A99D"/>
<path d="M179.3 480.418C188.14 474.991 196.913 469.458 205.62 463.818C220.48 454.158 226.8 452.298 240.62 440.758L181.32 414.758L120.52 445.718C134.92 453.258 172.12 476.418 179.3 480.418C182.52 478.538 176.12 482.378 179.3 480.418Z" fill="url(#paint2_linear)"/>
<path d="M210.84 332.338C183.52 332.338 161.36 339.578 161.36 348.518H260.32C260.32 339.478 238.18 332.338 210.84 332.338Z" fill="#0A1D23"/>
<path d="M161.52 349.758L161.36 348.498C161.364 348.923 161.418 349.346 161.52 349.758V349.758Z" fill="#06489E"/>
<path d="M260.32 348.519L260.12 349.939C260.248 349.476 260.315 348.999 260.32 348.519V348.519Z" fill="#06489E"/>
<path d="M210.84 364.678C236.7 364.678 257.92 358.198 260.12 349.918L260.32 348.498H161.36L161.52 349.758C163.48 358.098 184.8 364.678 210.84 364.678Z" fill="#0A1D23"/>
<path d="M229.76 264.998H218.62V379.838H229.76V264.998Z" fill="#25B000"/>
<path d="M224.2 267.359C227.27 267.359 229.76 266.302 229.76 264.999C229.76 263.695 227.27 262.639 224.2 262.639C221.129 262.639 218.64 263.695 218.64 264.999C218.64 266.302 221.129 267.359 224.2 267.359Z" fill="#25B000"/>
<path d="M254.502 286.923L243.587 284.694L220.613 397.213L231.528 399.441L254.502 286.923Z" fill="#FF8F02"/>
<path d="M254.493 286.901C254.754 285.624 252.526 284.09 249.518 283.476C246.509 282.862 243.859 283.399 243.598 284.676C243.337 285.953 245.565 287.486 248.574 288.101C251.582 288.715 254.233 288.178 254.493 286.901Z" fill="#FF8F02"/>
<path d="M197.4 351.038L187.24 356.858C187.033 356.977 186.787 357.009 186.557 356.947C186.326 356.886 186.13 356.735 186.01 356.528C185.891 356.321 185.859 356.075 185.92 355.844C185.982 355.614 186.133 355.417 186.34 355.298L196.74 349.298C196.838 349.238 196.947 349.197 197.06 349.178L195.06 338.178L184.8 344.078C184.593 344.197 184.347 344.229 184.117 344.167C183.886 344.106 183.69 343.955 183.57 343.748C183.451 343.541 183.419 343.295 183.48 343.064C183.542 342.834 183.693 342.637 183.9 342.518L194.3 336.518C194.416 336.45 194.546 336.409 194.68 336.398L192.8 326.218L182.8 331.958C182.593 332.077 182.347 332.109 182.117 332.047C181.886 331.986 181.69 331.835 181.57 331.628C181.451 331.421 181.419 331.175 181.48 330.944C181.542 330.714 181.693 330.517 181.9 330.398L192.3 324.398H192.5L190.4 313.058L180.4 318.778C180.193 318.897 179.947 318.929 179.717 318.867C179.486 318.806 179.29 318.655 179.17 318.448C179.051 318.241 179.019 317.995 179.08 317.764C179.142 317.534 179.293 317.337 179.5 317.218L189.9 311.218H190.06L188.06 300.138L177.9 305.958C177.693 306.077 177.447 306.109 177.217 306.047C176.986 305.986 176.79 305.835 176.67 305.628C176.551 305.421 176.519 305.175 176.58 304.944C176.642 304.714 176.793 304.517 177 304.398L187.4 298.398C187.498 298.338 187.607 298.297 187.72 298.278L185.94 288.658L175.76 294.478C175.553 294.597 175.307 294.629 175.077 294.567C174.846 294.506 174.65 294.355 174.53 294.148C174.411 293.941 174.379 293.695 174.44 293.464C174.502 293.234 174.653 293.037 174.86 292.918L185.26 286.918C185.364 286.856 185.48 286.815 185.6 286.798L183.82 277.198L173.66 282.998C173.453 283.117 173.207 283.149 172.977 283.087C172.746 283.026 172.55 282.875 172.43 282.668C172.311 282.461 172.279 282.215 172.34 281.984C172.402 281.754 172.553 281.557 172.76 281.438L183.16 275.438C183.242 275.44 183.322 275.454 183.4 275.478L181.4 264.918L171.4 270.658C171.193 270.777 170.947 270.809 170.717 270.747C170.486 270.686 170.29 270.535 170.17 270.328C170.051 270.121 170.019 269.875 170.08 269.644C170.142 269.414 170.293 269.217 170.5 269.098L180.9 263.098H181.1L180.18 258.178L158.18 271.858C158.18 271.858 173.86 359.158 174.18 359.338C183.34 364.118 200 364.678 200 364.678L197.4 351.038Z" fill="#62A2FF"/>
<path d="M170.48 269.139C170.273 269.258 170.122 269.455 170.061 269.685C169.999 269.916 170.031 270.162 170.15 270.369C170.27 270.576 170.466 270.727 170.697 270.788C170.928 270.85 171.173 270.818 171.38 270.699L181.38 264.959L181 263.099H180.8L170.48 269.139Z" fill="#CA4300"/>
<path d="M172.68 281.478C172.473 281.597 172.322 281.794 172.26 282.024C172.198 282.255 172.231 282.501 172.35 282.708C172.469 282.914 172.666 283.065 172.897 283.127C173.127 283.189 173.373 283.157 173.58 283.038L183.74 277.238L183.4 275.478C183.295 275.493 183.193 275.527 183.1 275.578L172.68 281.478Z" fill="#CA4300"/>
<path d="M174.78 292.998C174.573 293.118 174.422 293.314 174.36 293.545C174.298 293.776 174.331 294.022 174.45 294.228C174.569 294.435 174.766 294.586 174.997 294.648C175.227 294.71 175.473 294.678 175.68 294.558L185.86 288.738L185.52 286.938C185.4 286.956 185.284 286.996 185.18 287.058L174.78 292.998Z" fill="#CA4300"/>
<path d="M177 304.398C176.793 304.517 176.642 304.714 176.58 304.945C176.518 305.175 176.55 305.421 176.67 305.628C176.789 305.835 176.986 305.986 177.216 306.048C177.447 306.11 177.693 306.077 177.9 305.958L188.06 300.138L187.72 298.338C187.607 298.358 187.498 298.398 187.4 298.458L177 304.398Z" fill="#CA4300"/>
<path d="M179.46 317.238C179.253 317.357 179.102 317.554 179.04 317.784C178.978 318.015 179.01 318.261 179.13 318.468C179.249 318.675 179.446 318.826 179.676 318.887C179.907 318.949 180.153 318.917 180.36 318.798L190.36 313.078L190.02 311.218H189.86L179.46 317.238Z" fill="#CA4300"/>
<path d="M181.86 330.458C181.653 330.578 181.502 330.774 181.44 331.005C181.378 331.236 181.41 331.482 181.53 331.688C181.649 331.895 181.846 332.046 182.076 332.108C182.307 332.17 182.553 332.138 182.76 332.018L192.76 326.278L192.42 324.438H192.22L181.86 330.458Z" fill="#CA4300"/>
<path d="M194.3 336.577L183.9 342.577C183.693 342.696 183.542 342.893 183.48 343.124C183.419 343.354 183.451 343.6 183.57 343.807C183.69 344.014 183.886 344.165 184.117 344.227C184.348 344.289 184.593 344.256 184.8 344.137L195 338.237L194.66 336.457C194.533 336.471 194.41 336.512 194.3 336.577V336.577Z" fill="#CA4300"/>
<path d="M186.34 355.278C186.133 355.397 185.982 355.594 185.92 355.824C185.859 356.055 185.891 356.301 186.01 356.508C186.13 356.715 186.326 356.866 186.557 356.928C186.787 356.989 187.033 356.957 187.24 356.838L197.4 351.018L197.06 349.218C196.947 349.237 196.838 349.278 196.74 349.338L186.34 355.278Z" fill="#CA4300"/>
<path d="M243.58 284.677C243.58 284.677 244.14 287.597 248.56 288.097C252.98 288.597 254.56 286.897 254.56 286.897L253.12 264.897L243.58 284.677Z" fill="#FFD8BD"/>
<path d="M253 264.998L248.6 274.138C249.228 274.821 250.075 275.265 250.994 275.393C251.914 275.52 252.849 275.324 253.64 274.838L253 264.998Z" fill="#653200"/>
<path d="M218.62 264.318C218.62 264.318 219.64 267.119 224.08 266.919C228.52 266.719 229.74 264.799 229.74 264.799L224.88 243.479L218.62 264.318Z" fill="#FFD8BD"/>
<path d="M224.88 243.479L221.98 253.198C222.711 253.746 223.608 254.028 224.522 253.995C225.435 253.962 226.31 253.617 227 253.018L224.88 243.479Z" fill="#653200"/>
<path d="M210.84 364.678C184.84 364.678 163.48 358.098 161.52 349.758C162.82 359.758 171.7 428.398 172.04 428.798C172.04 428.798 176.58 448.158 210.84 448.138C239.98 448.138 248.3 433.498 248.3 433.498L260.12 349.918C257.92 358.198 236.7 364.678 210.84 364.678Z" fill="#173743"/>
<path d="M301.6 185.798L283.86 195.258L332.28 240.858L374.98 254.258L389.18 234.978" fill="#FFE8BC"/>
<path d="M368.44 244.558L384.9 235.178L301.6 185.798L303.56 184.658L389.18 234.978V363.478L370.5 374.118L363.38 366.678" fill="#62A2FF"/>
<path opacity="0.42" d="M368.44 244.558L384.9 235.178L301.6 185.798L303.56 184.658L389.18 234.978V363.478L370.5 374.118L363.38 366.678" fill="#1371A5"/>
<path d="M283.86 195.258L370.5 245.758V374.118L282.5 321.518L283.86 195.258Z" fill="#62A2FF"/>
<path d="M367.24 237.338L361.94 240.698V268.058L358.58 263.758L356.22 266.418V237.438L361.18 233.878L367.24 237.338Z" fill="#E85858"/>
<path d="M277.36 222.658L261.54 231.098L304.7 271.738L342.74 283.698L355.42 266.518" fill="#FFE8BC"/>
<path d="M336.92 275.038L351.6 266.698L277.36 222.658L279.1 221.658L355.42 266.518V381.038L338.76 390.518L332.42 383.898" fill="#62A2FF"/>
<path opacity="0.42" d="M336.92 275.038L351.6 266.698L277.36 222.658L279.1 221.658L355.42 266.518V381.038L338.76 390.518L332.42 383.898" fill="#1371A5"/>
<path d="M261.54 231.098L338.76 276.118V390.518L260.32 343.638L261.54 231.098Z" fill="#62A2FF"/>
<path d="M335.84 268.618L331.14 271.598V295.978L328.14 292.158L326.04 294.518V268.698L330.44 265.538L335.84 268.618Z" fill="#E85858"/>
<path d="M370.86 539.478C370.86 539.478 369.92 546.798 371 547.238C372.954 548.421 375.262 548.881 377.52 548.538C380.742 547.493 384.021 546.632 387.34 545.958C391.34 545.378 401.7 546.598 403.48 543.838C405.26 541.078 403.48 535.338 403.48 535.338" fill="#FFE0DE"/>
<path d="M403.46 535.379C402.66 530.919 396.06 532.779 392.96 530.759C387.26 527.079 386.96 518.979 387.48 512.919L374.8 508.519L372.3 523.079L370.86 539.559C371.501 540.46 372.35 541.194 373.336 541.695C374.322 542.197 375.414 542.452 376.52 542.439L384.98 540.559C390.36 540.059 404.02 538.499 403.46 535.379Z" fill="#56403D"/>
<path d="M388.54 548.178C388.54 548.178 387.6 555.498 388.68 555.938C390.634 557.121 392.941 557.581 395.2 557.238C398.422 556.194 401.7 555.332 405.02 554.658C409.02 554.078 419.38 555.298 421.16 552.538C422.94 549.778 421.16 544.038 421.16 544.038" fill="#FFE0DE"/>
<path d="M421.14 543.998C420.34 539.538 413.74 541.398 410.64 539.378C404.94 535.698 404.64 527.598 405.16 521.538L392.48 517.138L389.98 531.698L388.54 548.178C389.18 549.08 390.03 549.813 391.016 550.314C392.001 550.816 393.094 551.071 394.2 551.058L402.66 549.178C408.04 548.678 421.7 547.138 421.14 543.998Z" fill="#56403D"/>
<path d="M370.22 499.478L367 516.578C367 516.578 371.92 521.638 388.5 521.038C405.08 520.438 388.5 490.758 388.5 490.758" fill="#E85B5B"/>
<path d="M348.7 548.137C361.734 548.137 372.3 544.215 372.3 539.377C372.3 534.539 361.734 530.617 348.7 530.617C335.666 530.617 325.1 534.539 325.1 539.377C325.1 544.215 335.666 548.137 348.7 548.137Z" fill="#56403D"/>
<path d="M344.72 500.158L345.64 535.458H352.68V500.158" fill="#56403D"/>
<path d="M394.08 449.218C387.013 450.765 379.887 451.958 372.7 452.798C372.541 452.813 372.386 452.86 372.246 452.935C372.105 453.011 371.98 453.114 371.88 453.238C371.053 450.758 370.347 448.231 369.76 445.658C369.44 444.198 367.2 444.818 367.52 446.278C368.843 452.111 370.808 457.779 373.38 463.178C374.02 464.538 376.02 463.358 375.38 461.998C374.32 459.738 373.38 457.458 372.52 455.118H372.68C380.067 454.252 387.4 453.025 394.68 451.438C396.16 451.138 395.54 448.898 394.08 449.218Z" fill="#008074"/>
<path d="M375 465.597C373.114 468.736 370.69 471.519 367.84 473.817C366.68 474.757 368.34 476.397 369.48 475.457C372.475 473.026 375.02 470.088 377 466.777C377.077 466.646 377.128 466.501 377.15 466.35C377.171 466.199 377.162 466.045 377.124 465.898C377.086 465.75 377.019 465.611 376.928 465.489C376.836 465.368 376.721 465.265 376.59 465.187C376.459 465.11 376.313 465.059 376.162 465.038C376.011 465.016 375.858 465.025 375.71 465.063C375.562 465.101 375.424 465.168 375.302 465.26C375.18 465.351 375.077 465.466 375 465.597V465.597Z" fill="#008074"/>
<path d="M360.52 458.037C360.52 458.037 379.02 443.197 391.3 441.437C403.58 439.677 410 453.017 409.12 461.937C408.24 470.857 378.84 475.737 378.84 475.737" fill="#EDBAB9"/>
<path d="M370.38 462.978C372.78 460.758 404.18 446.098 415.24 452.798C426.3 459.498 425.6 464.438 424.2 472.598C422.8 480.758 412.2 524.598 412.2 524.598C404.171 527.682 395.362 528.096 387.08 525.778L390.18 493.158L348.34 470.318" fill="#FF7E7B"/>
<path d="M347.5 410.497C349.16 411.717 363.5 413.437 366.5 420.057C369.5 426.677 374.06 460.737 374.06 460.737C374.06 460.737 365.46 473.557 350.56 468.997C346.14 467.637 323.22 425.737 322.56 421.397C321 410.077 347.5 410.497 347.5 410.497Z" fill="#FCCA4C"/>
<path d="M319.22 484.118C318.496 482.398 317.901 480.626 317.44 478.818C313.92 465.038 311.62 413.298 334.88 415.418C360.4 417.718 351.78 481.618 377.64 479.658C403.5 477.698 414.1 484.418 403.52 494.438C382.38 514.458 332.18 514.918 319.22 484.118Z" fill="#62A2FF"/>
<path d="M356.66 392.037C356.82 393.077 358.66 407.897 354.28 411.237C349.9 414.577 340.04 406.697 339.8 402.777C339.56 398.857 336.22 390.777 340.42 388.657C344.62 386.537 355.48 384.717 356.66 392.037Z" fill="#FFE0DE"/>
<path d="M353 381.638L352.5 381.318C346.88 378.018 337.62 378.838 332.96 383.578C331.705 384.937 330.618 386.441 329.72 388.058C329.038 389.256 328.283 390.412 327.46 391.518C327.361 397.474 329.626 403.228 333.76 407.518C337.783 410.066 342.419 411.483 347.18 411.618C349.02 406.118 346.36 399.858 348.98 394.338C350.251 391.865 352.304 389.882 354.82 388.698C354.929 386.216 354.296 383.757 353 381.638Z" fill="#E0902F"/>
<path d="M351.26 402.279C350.975 401.462 350.521 400.714 349.929 400.083C349.336 399.453 348.618 398.954 347.82 398.619C346.36 398.019 344.36 397.839 343.48 399.439C341.48 402.979 346.32 405.439 348.88 406.439C350.08 406.899 350.6 404.959 349.42 404.439L349 404.279H349.14C349.265 404.287 349.39 404.269 349.508 404.226C349.625 404.184 349.733 404.117 349.823 404.03C349.913 403.944 349.985 403.839 350.032 403.724C350.08 403.608 350.103 403.484 350.1 403.359C350.76 403.599 351.56 403.119 351.26 402.279Z" fill="#FFE0DE"/>
<path d="M390.2 396.117L431.46 421.957L424.62 451.057L386.08 424.737L390.2 396.117Z" fill="#62A2FF"/>
<path d="M386.08 424.718C386.08 424.718 365 435.218 365.26 435.478C365.52 435.738 402.5 463.478 402.5 463.478L424.62 451.118L386.08 424.718Z" fill="#3129A3"/>
<path d="M395 446.938C395 446.938 400.6 441.918 401.44 441.518C402.084 441.395 402.748 441.423 403.38 441.6C404.012 441.777 404.593 442.098 405.08 442.538C405.98 443.378 407.24 443.078 408.24 444.158C409.24 445.238 411.78 449.038 411.06 450.038C410.34 451.038 408.32 448.618 407.64 448.038C406.96 447.458 407.64 450.038 406.68 451.578C405.72 453.118 399.9 454.578 398.34 454.278" fill="#FFE0DE"/>
<path d="M367.44 424.718C367.44 424.718 374.3 448.138 378.32 448.218C382.34 448.298 394.96 444.038 394.96 444.038C394.96 444.038 400.4 449.598 399.78 453.118C399.16 456.638 376.8 469.118 367.46 466.838C358.12 464.558 353.6 432.278 353.8 431.658C354 431.038 367.44 424.718 367.44 424.718Z" fill="#FCCA4C"/>
<path d="M391.32 432.938C390.232 432.116 389.089 431.368 387.9 430.698C386.86 430.218 385.9 429.678 384.98 429.158C384.571 428.899 384.114 428.726 383.636 428.65C383.158 428.574 382.669 428.597 382.2 428.718C380.186 430.204 378.25 431.793 376.4 433.478C375.28 434.278 374.14 435.058 372.96 435.798C372.754 435.923 372.601 436.118 372.527 436.348C372.454 436.577 372.465 436.825 372.56 437.047C372.655 437.268 372.827 437.448 373.044 437.553C373.26 437.658 373.508 437.681 373.74 437.618C374.32 437.478 374.88 437.298 375.44 437.098C375.416 437.451 375.416 437.805 375.44 438.158C375.216 439.377 375.444 440.635 376.08 441.698C376.146 441.832 376.242 441.948 376.36 442.038L375.62 442.318C374.42 442.758 374.94 444.698 376.16 444.318L383.04 441.798C384.711 441.366 386.237 440.496 387.46 439.278C387.623 439.123 387.728 438.917 387.759 438.695C387.79 438.472 387.746 438.246 387.633 438.052C387.519 437.858 387.344 437.707 387.135 437.625C386.926 437.543 386.695 437.533 386.48 437.598C385.98 437.718 385.5 437.878 385.02 438.038C386.12 436.538 387.8 434.738 388.38 435.238C389.037 435.735 389.832 436.017 390.655 436.046C391.478 436.075 392.29 435.848 392.98 435.398C394.06 434.318 392.14 433.478 391.32 432.938Z" fill="#FFE0DE"/>
<path d="M376.36 433.678C376.36 433.678 369.22 434.618 363.88 434.758C361.7 437.718 359.72 440.758 357.88 443.958C358.28 445.958 358.44 447.958 358.88 449.958C358.933 450.343 358.933 450.733 358.88 451.118C368.38 449.558 378.5 445.638 379.32 443.538C380.6 440.178 376.36 433.678 376.36 433.678Z" fill="#FCCA4C"/>
<path d="M337.46 387.477C337.268 386.653 336.847 385.9 336.246 385.306C335.644 384.711 334.886 384.299 334.06 384.117C329.1 382.797 322.56 385.817 321.08 390.937C320.499 393.679 321.03 396.54 322.556 398.891C324.082 401.242 326.479 402.892 329.22 403.477C330.592 403.598 331.974 403.435 333.28 402.997C334.586 402.559 335.787 401.856 336.808 400.933C337.83 400.009 338.65 398.884 339.216 397.629C339.782 396.373 340.083 395.014 340.1 393.637C340.091 392.486 339.853 391.349 339.4 390.291C338.947 389.234 338.287 388.277 337.46 387.477V387.477Z" fill="#CC781D"/>
<path d="M507.98 572.438C507.98 573.278 507.32 583.318 508.44 584.438C509.56 585.558 512.44 591.278 516.14 591.538C519.84 591.798 523.16 591.058 523.84 594.958C524.52 598.858 503.2 600.178 503.2 600.178C503.2 600.178 500.96 591.258 500 591.518C499.04 591.778 499 601.478 499 601.478L495 602.318L491 599.678L492.6 582.558L495.18 568.018" fill="#3129A3"/>
<path d="M523.96 586.797C523.44 592.797 523.74 600.957 529.44 604.637C532.56 606.637 539.14 604.797 539.94 609.257C540.64 613.158 519.32 614.597 519.32 614.597C519.32 614.597 517.02 605.677 516.06 605.957C515.1 606.237 515.2 615.818 515.2 615.818L511.2 616.697L507.2 614.077L508.7 596.957L511.2 582.397" fill="#3129A3"/>
<path d="M489 564.698L485.86 581.818C485.86 581.818 490.78 586.878 507.36 586.278C523.94 585.678 507.36 555.998 507.36 555.998" fill="#EDBAB9"/>
<path d="M467.52 613.398C480.554 613.398 491.12 609.476 491.12 604.638C491.12 599.8 480.554 595.878 467.52 595.878C454.486 595.878 443.92 599.8 443.92 604.638C443.92 609.476 454.486 613.398 467.52 613.398Z" fill="#56403D"/>
<path d="M463.54 565.397L464.46 600.697H471.5V565.397" fill="#56403D"/>
<path d="M513 514.457C505.934 516.004 498.807 517.197 491.62 518.037C491.461 518.052 491.307 518.099 491.166 518.175C491.025 518.25 490.901 518.353 490.8 518.477C489.974 515.997 489.267 513.471 488.68 510.897C488.36 509.437 486.12 510.057 486.44 511.517C487.763 517.35 489.729 523.018 492.3 528.417C492.94 529.777 494.94 528.597 494.3 527.237C493.24 524.977 492.3 522.697 491.44 520.357H491.6C498.987 519.491 506.32 518.264 513.6 516.677C515 516.377 514.38 514.137 513 514.457Z" fill="#008074"/>
<path d="M493.82 530.838C491.934 533.977 489.511 536.759 486.66 539.058C485.5 539.998 487.16 541.638 488.3 540.698C491.295 538.266 493.84 535.328 495.82 532.018C495.898 531.886 495.949 531.741 495.97 531.59C495.991 531.439 495.983 531.285 495.944 531.138C495.906 530.99 495.84 530.851 495.748 530.73C495.656 530.608 495.542 530.505 495.41 530.428C495.279 530.35 495.134 530.299 494.983 530.278C494.832 530.257 494.678 530.265 494.53 530.303C494.383 530.341 494.244 530.408 494.122 530.5C494 530.592 493.898 530.706 493.82 530.838V530.838Z" fill="#008074"/>
<path d="M479.34 523.277C479.34 523.277 497.84 508.437 510.12 506.677C522.4 504.917 528.82 518.257 527.94 527.177C527.06 536.097 497.66 540.977 497.66 540.977" fill="#EDBAB9"/>
<path d="M489.2 528.218C491.6 525.998 523 511.338 534.06 518.038C545.12 524.738 544.42 529.678 543.02 537.838C541.62 545.998 531.02 589.838 531.02 589.838C522.991 592.922 514.182 593.336 505.9 591.018L509 558.478L467 535.618" fill="#FFE0DE"/>
<path d="M466.32 475.758C467.98 476.978 482.32 478.698 485.32 485.318C488.32 491.938 492.88 525.998 492.88 525.998C492.88 525.998 484.28 538.818 469.38 534.258C464.96 532.898 442.04 490.998 441.38 486.658C439.8 475.318 466.32 475.758 466.32 475.758Z" fill="#006D29"/>
<path d="M438.04 549.357C437.316 547.637 436.721 545.866 436.26 544.057C432.74 530.277 430.44 478.537 453.7 480.657C479.22 482.957 470.6 546.857 496.46 544.897C522.32 542.937 532.92 549.657 522.34 559.677C501.2 579.697 451 580.157 438.04 549.357Z" fill="#62A2FF"/>
<path d="M475.48 457.277C475.64 458.317 477.48 473.137 473.1 476.477C468.72 479.817 458.86 471.937 458.62 468.017C458.38 464.097 455.04 456.017 459.24 453.897C463.44 451.777 474.3 449.957 475.48 457.277Z" fill="#FFE0DE"/>
<path d="M471.3 446.578C465.68 443.278 456.42 444.098 451.76 448.838C450.506 450.198 449.418 451.702 448.52 453.318C447.838 454.517 447.083 455.672 446.26 456.778C446.161 462.735 448.426 468.488 452.56 472.778C457.266 475.812 462.838 477.217 468.42 476.778C467.94 474.778 467.52 472.778 467.2 470.778C466.68 467.518 465.9 463.538 468.32 460.778C468.727 460.276 469.268 459.9 469.881 459.695C470.494 459.489 471.153 459.463 471.78 459.618L471.94 459.518L476.74 459.818C477.588 457.327 477.504 454.612 476.504 452.178C475.504 449.743 473.655 447.754 471.3 446.578V446.578Z" fill="#E0902F"/>
<path d="M448.42 455.478C443.08 445.878 426.9 450.598 425.7 460.758C425.206 465.618 426.508 470.491 429.36 474.458C433.2 479.258 433.36 489.958 426.72 497.758C420.08 505.558 425.5 514.938 433.2 518.258C440.9 521.578 457.58 521.478 457 507.998C456.42 494.518 440.16 477.298 440.4 467.998C440.64 458.698 450 463.998 450 463.998" fill="#E0902F"/>
<path d="M451 455.857C451 454.797 450.578 453.779 449.828 453.029C449.078 452.279 448.061 451.857 447 451.857C445.947 451.883 444.944 452.312 444.199 453.057C443.455 453.802 443.025 454.805 443 455.857C442.856 457.46 442.816 459.07 442.88 460.677C442.88 461.738 443.301 462.756 444.051 463.506C444.801 464.256 445.819 464.677 446.88 464.677C447.941 464.677 448.958 464.256 449.708 463.506C450.458 462.756 450.88 461.738 450.88 460.677C450.816 459.07 450.856 457.46 451 455.857V455.857Z" fill="#3129A3"/>
<path d="M470.08 467.478C469.795 466.661 469.341 465.913 468.749 465.283C468.156 464.652 467.438 464.153 466.64 463.818C465.18 463.218 463.18 463.038 462.3 464.638C460.3 468.178 465.14 470.638 467.7 471.638C468.9 472.098 469.42 470.158 468.24 469.638L467.82 469.478H467.96C468.085 469.486 468.21 469.468 468.328 469.426C468.445 469.383 468.553 469.316 468.643 469.23C468.733 469.143 468.805 469.039 468.852 468.923C468.9 468.807 468.923 468.683 468.92 468.558C469.58 468.838 470.38 468.358 470.08 467.478Z" fill="#FFE0DE"/>
<path d="M509.02 461.357L550.28 487.197L543.44 516.297L504.9 489.977L509.02 461.357Z" fill="#62A2FF"/>
<path d="M504.9 489.979C504.9 489.979 483.84 500.479 484.08 500.759C484.32 501.039 521.32 528.659 521.32 528.659L543.44 516.299L504.9 489.979Z" fill="#3129A3"/>
<path d="M513.76 512.178C513.76 512.178 519.36 507.158 520.2 506.758C520.844 506.635 521.508 506.663 522.14 506.84C522.771 507.017 523.353 507.338 523.84 507.778C524.74 508.618 526 508.318 527 509.398C528 510.478 530.54 514.278 529.82 515.278C529.1 516.278 527.08 513.858 526.4 513.278C525.72 512.698 526.4 515.278 525.44 516.818C524.48 518.358 518.66 519.818 517.1 519.518" fill="#FFE0DE"/>
<path d="M486.26 489.979C486.26 489.979 493.12 513.479 497.12 513.479C501.12 513.479 513.76 509.299 513.76 509.299C513.76 509.299 519.2 514.858 518.58 518.378C517.96 521.898 495.6 534.378 486.26 532.098C476.92 529.818 472.4 497.539 472.6 496.919C472.8 496.299 486.26 489.979 486.26 489.979Z" fill="#006D29"/>
<path d="M510.14 498.178C509.051 497.356 507.909 496.608 506.72 495.938C505.68 495.458 504.72 494.918 503.8 494.398C503.391 494.139 502.934 493.966 502.456 493.89C501.977 493.815 501.489 493.838 501.02 493.958C498.997 495.469 497.055 497.085 495.2 498.798C494.08 499.598 492.94 500.378 491.76 501.118C491.554 501.243 491.4 501.439 491.327 501.668C491.253 501.897 491.265 502.145 491.36 502.367C491.455 502.588 491.627 502.768 491.843 502.873C492.06 502.978 492.307 503.001 492.54 502.938C493.12 502.798 493.68 502.618 494.24 502.418C494.216 502.771 494.216 503.125 494.24 503.478C494.016 504.697 494.244 505.955 494.88 507.018C494.946 507.152 495.042 507.268 495.16 507.358L494.42 507.638C493.22 508.078 493.74 510.018 494.96 509.638L501.84 507.118C503.511 506.686 505.036 505.816 506.26 504.598C506.422 504.443 506.528 504.238 506.559 504.015C506.59 503.793 506.546 503.566 506.432 503.372C506.319 503.178 506.144 503.028 505.935 502.945C505.726 502.863 505.495 502.854 505.28 502.918C504.78 503.038 504.3 503.198 503.82 503.358C504.92 501.858 506.6 500.058 507.18 500.558C507.837 501.055 508.631 501.338 509.455 501.366C510.278 501.395 511.09 501.169 511.78 500.718C512.88 499.478 511 498.678 510.14 498.178Z" fill="#FFE0DE"/>
<path d="M495.18 498.918C495.18 498.918 488.04 499.858 482.7 499.998C480.52 502.958 478.54 505.998 476.7 509.198C477.1 511.198 477.26 513.198 477.7 515.198C477.753 515.583 477.753 515.973 477.7 516.358C487.2 514.798 497.32 510.878 498.14 508.778C499.42 505.478 495.18 498.918 495.18 498.918Z" fill="#006D29"/>
<path d="M587.4 239.038L576.62 236.938L576.46 237.358C575.835 236.992 575.162 236.715 574.46 236.538C573.428 236.248 572.325 236.362 571.374 236.856C570.423 237.35 569.696 238.187 569.34 239.198C569.033 240.01 569.033 240.906 569.34 241.718C568.996 242.073 568.728 242.492 568.549 242.953C568.37 243.413 568.286 243.904 568.3 244.398C568.296 245.453 568.697 246.469 569.42 247.238C569.08 247.845 568.946 248.546 569.04 249.235C569.134 249.924 569.45 250.564 569.94 251.058C571.237 252.136 572.809 252.829 574.48 253.058C577.32 258.618 584.2 265.958 586.3 264.798C589.04 263.278 593.02 256.098 593.02 256.098L587.4 239.038Z" fill="#E89C89"/>
<path d="M584.6 242.858L535.44 171.138L533.5 171.978L586.4 257.558" fill="#935A4E"/>
<path d="M596.88 254.658C596.88 254.658 595 239.478 592.16 237.758C589.32 236.038 580.02 232.198 578.28 234.218C576.54 236.238 574.94 240.218 576.62 241.798C578.3 243.378 581.54 239.478 581.54 239.478L584.36 241.478C584.36 241.478 580.68 244.658 580.9 252.238C581.149 256.959 583.104 261.429 586.4 264.818L596.88 254.658Z" fill="#FFB7A2"/>
<path d="M635.38 325.718L630.64 254.658C628.64 256.398 622.04 296.658 618.76 324.058C624.32 324.358 629.84 325.018 635.38 325.718Z" fill="#27D9D3"/>
<path d="M743.8 253.838L745 251.678C744.589 251.431 744.28 251.045 744.129 250.59C743.979 250.135 743.997 249.641 744.18 249.198C745.2 246.858 746.28 244.558 747.36 242.238C747.294 241.955 747.294 241.66 747.36 241.378C748.774 236.168 749.367 230.77 749.12 225.378C748.66 221.058 747.36 216.918 746.94 212.598C746.78 211.058 748.56 210.598 749.7 211.018C750.684 211.492 751.459 212.31 751.88 213.318C753.217 215.263 754.073 217.497 754.38 219.838C754.478 218.832 754.727 217.848 755.12 216.918C755.413 215.744 755.7 214.571 755.98 213.398C756.391 211.535 757.008 209.724 757.82 207.998C758.64 206.378 760.48 205.638 761.4 206.698C762.8 208.298 761.4 211.198 761.18 213.058C760.96 214.918 760.62 216.558 760.14 218.438C760.86 216.698 762.34 213.658 763.3 211.558C764.04 209.938 766.14 204.658 768.46 205.378C770.78 206.098 769.68 209.698 769.04 211.378L767.22 216.278C766.68 217.738 766.08 219.638 765.46 220.978C765.46 220.978 767.9 217.418 769.12 215.518C770.1 214.018 771.12 211.838 773.34 212.498C774.76 212.938 774.66 215.038 774 216.298C772.24 219.638 770.28 222.838 768.24 225.978C769.56 224.758 770.82 223.498 772.24 222.318C772.537 222.117 772.882 221.999 773.24 221.978C773.598 221.956 773.955 222.031 774.273 222.194C774.592 222.358 774.861 222.604 775.053 222.907C775.244 223.21 775.35 223.559 775.36 223.918C775.377 224.266 775.279 224.611 775.08 224.898L758.2 249.158C756.548 253.016 754.226 256.55 751.34 259.598C749.72 261.298 747.12 258.718 748.76 257.018L748.98 256.758C748.918 256.669 748.865 256.575 748.82 256.478C748.547 256.415 748.29 256.295 748.066 256.126C747.842 255.957 747.656 255.743 747.52 255.498H747.4C747.223 255.617 747.027 255.705 746.82 255.758C746.53 256.069 746.141 256.268 745.719 256.322C745.298 256.376 744.871 256.281 744.512 256.053C744.153 255.825 743.886 255.478 743.756 255.074C743.626 254.669 743.641 254.232 743.8 253.838Z" fill="#FFB7A2"/>
<path d="M756.8 221.317C758.228 222.452 759.354 223.922 760.076 225.597C760.798 227.272 761.095 229.1 760.94 230.917C760.94 231.737 759.58 231.757 759.64 230.917C759.793 229.268 759.528 227.607 758.871 226.087C758.214 224.567 757.186 223.236 755.88 222.217C755.22 221.717 756.14 220.817 756.8 221.317Z" fill="#42342D"/>
<path d="M758.58 219.339C759.513 215.939 760.293 212.499 760.92 209.019C761.06 208.199 762.32 208.539 762.16 209.359C761.533 212.825 760.753 216.265 759.82 219.679C759.775 219.843 759.666 219.983 759.518 220.067C759.37 220.152 759.194 220.174 759.03 220.129C758.866 220.083 758.726 219.975 758.641 219.827C758.557 219.679 758.535 219.503 758.58 219.339V219.339Z" fill="#42342D"/>
<path d="M764.04 222.198C765.788 218.412 767.213 214.484 768.3 210.458C768.345 210.294 768.454 210.154 768.602 210.07C768.75 209.985 768.926 209.963 769.09 210.008C769.255 210.053 769.394 210.162 769.479 210.31C769.563 210.458 769.585 210.634 769.54 210.798C768.419 214.914 766.953 218.928 765.16 222.798C764.8 223.618 763.7 222.958 764.04 222.198Z" fill="#42342D"/>
<path d="M766.06 227.278C768.816 224.099 771.149 220.576 773 216.798C773.36 216.058 774.48 216.798 774.12 217.458C772.22 221.33 769.826 224.94 767 228.198C766.42 228.838 765.5 227.918 766.06 227.278Z" fill="#42342D"/>
<path d="M707.64 381.298C702.906 365.464 696.664 350.12 689 335.478L637.96 334.998C636.84 341.958 634.84 348.758 633.6 355.818C632.265 363.32 631.769 370.947 632.12 378.558C646.54 386.678 665.48 397.698 679.18 405.578L717.18 427.378C713.96 412.258 711.86 396.238 707.64 381.298Z" fill="#159E97"/>
<path d="M691.64 289.778C690.893 278.578 689.847 267.391 688.5 256.218C682.12 248.318 673.36 242.218 663.74 240.938C654.12 239.658 640.1 242.178 633.54 249.918C627.34 257.298 628.38 267.918 628.76 276.778C628.98 282.178 629.26 287.578 629.56 292.978C632.38 307.478 636.46 321.698 637.32 336.498C651.5 343.138 672.9 339.738 688.92 335.418C689.86 320.198 691 304.998 691.64 289.778Z" fill="#27D9D3"/>
<path d="M665 242.418C672.657 242.803 680.094 245.114 686.62 249.138C691.58 252.378 694.42 257.618 699.78 260.298C706.98 263.918 717.54 263.878 723.46 257.778C726.655 254.282 729.66 250.617 732.46 246.798C734.68 243.958 743.8 229.158 748.6 230.978C754.22 233.098 762.32 240.978 762.6 245.478C762.88 249.978 739.16 296.838 718.14 300.138C705.03 301.887 691.725 298.939 680.58 291.818" fill="#27D9D3"/>
<path d="M670.16 234.198V247.618C664.884 249.255 659.236 249.255 653.96 247.618V235.478" fill="#FCAA97"/>
<path d="M629.66 295.477C629.66 295.477 600.44 253.697 596.88 254.697C593.32 255.697 582.04 261.277 582.88 265.797C583.72 270.317 606.76 336.757 638.18 332.897" fill="#27D9D3"/>
<path d="M670.46 239.878C669.407 242.425 667.895 244.757 666 246.758C664 249.018 661.12 248.278 658 248.458L660.12 264.838L674.3 244.838L670.46 239.878Z" fill="#159E97"/>
<path d="M657.92 248.458L651 263.658L649.92 249.478L654.54 240.278C654.54 240.278 653 248.038 657.92 248.458Z" fill="#159E97"/>
<path d="M642.12 203.478C641.18 203.718 635.24 243.678 651.82 243.998C668.4 244.318 671.6 231.278 672.1 227.998C672.6 224.718 667.32 214.518 665.7 210.718C664.08 206.918 646.18 202.378 642.12 203.478Z" fill="#FFB7A2"/>
<path d="M640.06 199.338C645.06 190.318 664.42 188.258 677.88 200.618C681.357 204.278 683.303 209.13 683.32 214.178C682.972 219.176 681.308 223.993 678.498 228.141C675.689 232.289 671.832 235.621 667.32 237.798C667.32 237.798 667.32 237.798 667.32 237.638C667.32 237.478 667.32 237.138 667.46 236.898C667.6 236.658 667.46 236.538 667.56 236.358C668.98 229.378 668.66 220.578 665.36 214.358C662.06 208.138 655.36 206.358 648.86 205.258C646.754 204.706 644.573 204.49 642.4 204.618L640.26 214.878C638.675 212.606 637.808 209.909 637.773 207.139C637.737 204.368 638.534 201.651 640.06 199.338V199.338Z" fill="#EDB033"/>
<path d="M702.416 205.157C702.905 198.127 697.603 192.032 690.573 191.542C683.543 191.053 677.447 196.356 676.958 203.386C676.469 210.416 681.771 216.512 688.801 217.001C695.832 217.49 701.927 212.187 702.416 205.157Z" fill="#EDB033"/>
<path d="M640.18 211.638H655.9L657.36 206.918L658.72 212.778L663.2 213.058C663.2 213.058 663.42 237.198 666.86 237.738C670.3 238.278 675.12 227.898 675.64 221.738C676.16 215.578 672.82 202.598 661.48 199.078C647.2 194.758 640.84 200.458 640.18 211.638Z" fill="#EDB033"/>
<path d="M631 271.358C631.12 269.998 629 270.018 628.9 271.358C626.74 294.778 637 316.858 637.74 340.078C637.74 341.438 639.9 341.438 639.84 340.078C639 316.858 628.78 294.758 631 271.358Z" fill="#159E97"/>
<path d="M695.76 296.637C691.106 295.762 686.789 293.601 683.3 290.397C682.3 289.477 680.8 290.977 681.8 291.897C685.549 295.361 690.19 297.709 695.2 298.677C696.52 298.937 697 296.897 695.76 296.637Z" fill="#159E97"/>
<path d="M456.44 174.218L527.28 212.098C530.68 213.918 533.72 208.738 530.3 206.918L459.48 169.038C456.08 167.218 453.04 172.398 456.46 174.218H456.44Z" fill="#00A99D"/>
<path d="M456.44 198.198L527.28 236.077C530.68 237.897 533.72 232.717 530.3 230.897L459.48 193.018C456.08 191.198 453.04 196.378 456.46 198.198H456.44Z" fill="#00A99D"/>
<path d="M479.645 269.401C487.142 266.884 490.011 255.285 486.052 243.494C482.093 231.704 472.806 224.186 465.309 226.704C457.811 229.221 454.943 240.82 458.901 252.61C462.86 264.401 472.147 271.919 479.645 269.401Z" fill="#62A2FF"/>
<path d="M519.408 291.667C526.906 289.15 529.774 277.551 525.816 265.76C521.857 253.969 512.57 246.452 505.072 248.969C497.575 251.487 494.706 263.086 498.665 274.876C502.624 286.667 511.911 294.184 519.408 291.667Z" fill="#62A2FF"/>
</g>
<defs>
<filter id="filter0_d" x="-11" y="-18" width="1000" height="802.956" filterUnits="userSpaceOnUse" color-interpolation-filters="sRGB">
<feFlood flood-opacity="0" result="BackgroundImageFix"/>
<feColorMatrix in="SourceAlpha" type="matrix" values="0 0 0 0 0 0 0 0 0 0 0 0 0 0 0 0 0 0 127 0"/>
<feOffset dx="2" dy="4"/>
<feGaussianBlur stdDeviation="50"/>
<feColorMatrix type="matrix" values="0 0 0 0 0.275 0 0 0 0 0.275 0 0 0 0 0.275 0 0 0 0.38 0"/>
<feBlend mode="normal" in2="BackgroundImageFix" result="effect1_dropShadow"/>
<feBlend mode="normal" in="SourceGraphic" in2="effect1_dropShadow" result="shape"/>
</filter>
<linearGradient id="paint0_linear" x1="271.74" y1="399.038" x2="326.82" y2="341.358" gradientUnits="userSpaceOnUse">
<stop stop-color="#DD6F31"/>
<stop offset="1" stop-color="#532A12"/>
</linearGradient>
<linearGradient id="paint1_linear" x1="50267.9" y1="35293.9" x2="52994.3" y2="22653.6" gradientUnits="userSpaceOnUse">
<stop stop-color="#DD6F31"/>
<stop offset="1" stop-color="#532A12"/>
</linearGradient>
<linearGradient id="paint2_linear" x1="4523.39" y1="13163.5" x2="5546.41" y2="11221.3" gradientUnits="userSpaceOnUse">
<stop stop-color="#DD6F31"/>
<stop offset="1" stop-color="#532A12"/>
</linearGradient>
</defs>
</svg>
