<svg width="40" height="40" viewBox="0 0 40 40" fill="none" xmlns="http://www.w3.org/2000/svg">
<circle cx="20" cy="20" r="19.5" stroke="#0069D9"/>
<path d="M18.0469 19.4453H19.2031C19.7865 19.4401 20.2474 19.2891 20.5859 18.9922C20.9297 18.6953 21.1016 18.2656 21.1016 17.7031C21.1016 17.1615 20.9583 16.7422 20.6719 16.4453C20.3906 16.1432 19.9583 15.9922 19.375 15.9922C18.8646 15.9922 18.4453 16.1406 18.1172 16.4375C17.7891 16.7292 17.625 17.112 17.625 17.5859H15.7266C15.7266 17.0026 15.8802 16.4714 16.1875 15.9922C16.5 15.513 16.9323 15.1406 17.4844 14.875C18.0417 14.6042 18.6641 14.4688 19.3516 14.4688C20.487 14.4688 21.3776 14.7552 22.0234 15.3281C22.6745 15.8958 23 16.6875 23 17.7031C23 18.2135 22.8359 18.6953 22.5078 19.1484C22.1849 19.5964 21.7656 19.9349 21.25 20.1641C21.875 20.3776 22.349 20.7135 22.6719 21.1719C23 21.6302 23.1641 22.1771 23.1641 22.8125C23.1641 23.8333 22.8125 24.6458 22.1094 25.25C21.4115 25.8542 20.4922 26.1562 19.3516 26.1562C18.2578 26.1562 17.362 25.8646 16.6641 25.2812C15.9661 24.6979 15.6172 23.9219 15.6172 22.9531H17.5156C17.5156 23.4531 17.6823 23.8594 18.0156 24.1719C18.3542 24.4844 18.8073 24.6406 19.375 24.6406C19.9635 24.6406 20.4271 24.4844 20.7656 24.1719C21.1042 23.8594 21.2734 23.4062 21.2734 22.8125C21.2734 22.2135 21.0964 21.7526 20.7422 21.4297C20.388 21.1068 19.862 20.9453 19.1641 20.9453H18.0469V19.4453Z" fill="#0069D9"/>
</svg>
