<svg width="40" height="40" viewBox="0 0 40 40" fill="none" xmlns="http://www.w3.org/2000/svg">
<circle cx="20" cy="20" r="19.5" stroke="#0069D9"/>
<path d="M23.5 26H15.8516V24.6953L19.6406 20.5625C20.1875 19.9531 20.5755 19.4453 20.8047 19.0391C21.0391 18.6276 21.1562 18.2161 21.1562 17.8047C21.1562 17.263 21.0026 16.8255 20.6953 16.4922C20.3932 16.1589 19.9844 15.9922 19.4688 15.9922C18.8542 15.9922 18.3776 16.1797 18.0391 16.5547C17.7005 16.9297 17.5312 17.4427 17.5312 18.0938H15.6328C15.6328 17.401 15.7891 16.7786 16.1016 16.2266C16.4193 15.6693 16.8698 15.237 17.4531 14.9297C18.0417 14.6224 18.7188 14.4688 19.4844 14.4688C20.5885 14.4688 21.4583 14.7474 22.0938 15.3047C22.7344 15.8568 23.0547 16.6224 23.0547 17.6016C23.0547 18.1693 22.8932 18.7656 22.5703 19.3906C22.2526 20.0104 21.7292 20.7161 21 21.5078L18.2188 24.4844H23.5V26Z" fill="#0069D9"/>
</svg>
