<svg width="40" height="40" viewBox="0 0 40 40" fill="none" xmlns="http://www.w3.org/2000/svg">
<circle cx="20" cy="20" r="19.5" stroke="#0069D9"/>
<path d="M16.3594 20.3594L16.9766 14.625H23.0859V16.2656H18.5547L18.2422 18.9844C18.7682 18.6823 19.362 18.5312 20.0234 18.5312C21.1068 18.5312 21.9479 18.8776 22.5469 19.5703C23.151 20.263 23.4531 21.1953 23.4531 22.3672C23.4531 23.5234 23.1198 24.4453 22.4531 25.1328C21.7865 25.8151 20.8724 26.1562 19.7109 26.1562C18.6693 26.1562 17.8047 25.862 17.1172 25.2734C16.4349 24.6797 16.0651 23.8984 16.0078 22.9297H17.8438C17.9167 23.4818 18.1146 23.9062 18.4375 24.2031C18.7604 24.4948 19.1823 24.6406 19.7031 24.6406C20.2865 24.6406 20.7396 24.4323 21.0625 24.0156C21.3906 23.599 21.5547 23.0312 21.5547 22.3125C21.5547 21.6198 21.375 21.0729 21.0156 20.6719C20.6562 20.2656 20.1615 20.0625 19.5312 20.0625C19.1875 20.0625 18.8958 20.1094 18.6562 20.2031C18.4167 20.2917 18.1562 20.4688 17.875 20.7344L16.3594 20.3594Z" fill="#0069D9"/>
</svg>
