<svg width="30" height="24" viewBox="0 0 30 24" fill="none" xmlns="http://www.w3.org/2000/svg">
<path d="M9.75005 16.5C9.63802 16.5 9.52599 16.5164 9.41912 16.5511C8.81162 16.7484 8.17271 16.875 7.50006 16.875C6.8274 16.875 6.1885 16.7484 5.58053 16.5511C5.47366 16.5164 5.36209 16.5 5.25006 16.5C2.34101 16.5 -0.015393 18.8662 7.57254e-05 21.779C0.00663821 23.0099 1.01867 23.9999 2.25007 23.9999H12.75C13.9814 23.9999 14.9935 23.0099 15 21.779C15.0155 18.8662 12.6591 16.5 9.75005 16.5ZM7.50006 15C9.98536 15 12 12.9853 12 10.5C12 8.01467 9.98536 5.99999 7.50006 5.99999C5.01475 5.99999 3.00007 8.01467 3.00007 10.5C3.00007 12.9853 5.01475 15 7.50006 15ZM27.75 0H9.75005C8.50927 0 7.50006 1.04297 7.50006 2.32453V4.49999C8.59787 4.49999 9.61411 4.8178 10.5 5.33436V2.99999H27V16.5H24V13.5H18V16.5H14.4263C15.3216 17.2823 15.9788 18.3154 16.2868 19.5H27.75C28.9908 19.5 30 18.457 30 17.1754V2.32453C30 1.04297 28.9908 0 27.75 0Z" fill="#616161"/>
</svg>
