<svg width="592" height="470" viewBox="0 0 592 470" fill="none" xmlns="http://www.w3.org/2000/svg">
<g filter="url(#filter0_d)">
<path d="M288.032 361.971L105.616 254.158C99.8103 250.9 94.8266 245.54 100.49 242.039L283.566 136.479C286.317 134.773 290.488 133.657 293.279 135.281L484.769 246.464C490.575 249.834 491.621 259.253 485.784 262.633L312.108 361.798C308.457 363.92 304.315 365.052 300.093 365.082C295.87 365.113 291.713 364.04 288.032 361.971V361.971Z" fill="#2A8178"/>
<path d="M440.292 223.21L402.676 245.083L449.732 275.411L486.099 252.411C473.889 243.601 452.716 231.766 440.292 223.21Z" fill="url(#paint0_linear)"/>
<path d="M265.905 332.262L304.546 357.19L439.805 280.04L396.921 256.086" fill="url(#paint1_linear)"/>
<path d="M399.185 259.669V263.607L397.195 266.043" fill="#ADCEE1"/>
<path d="M319.995 211.69L396.921 259.395C397.624 259.832 398.201 260.444 398.596 261.171C398.991 261.898 399.19 262.715 399.174 263.542C399.157 264.369 398.926 265.178 398.503 265.889C398.079 266.6 397.479 267.188 396.759 267.596L280.034 333.622C278.402 334.544 276.557 335.022 274.683 335.006C272.809 334.989 270.972 334.481 269.356 333.531L192.774 288.516C187.212 283.948 187.628 275.321 192.774 274.975L308.88 211.467C310.581 210.498 312.512 210.008 314.468 210.047C316.425 210.086 318.334 210.654 319.995 211.69V211.69Z" fill="#88D3D8"/>
<path d="M319.994 208.422L396.921 256.127C397.624 256.563 398.201 257.175 398.596 257.902C398.991 258.629 399.19 259.446 399.174 260.274C399.157 261.101 398.926 261.91 398.503 262.62C398.079 263.331 397.478 263.92 396.759 264.328L280.034 330.354C278.402 331.276 276.557 331.753 274.683 331.737C272.809 331.721 270.972 331.213 269.356 330.262L192.774 285.247C191.877 284.726 191.132 283.978 190.614 283.079C190.096 282.179 189.824 281.159 189.824 280.121C189.824 279.084 190.096 278.064 190.614 277.164C191.132 276.265 191.877 275.517 192.774 274.996L308.88 208.219C310.579 207.247 312.509 206.753 314.465 206.789C316.422 206.825 318.332 207.389 319.994 208.422V208.422Z" fill="white"/>
<path d="M316.858 201.885C316.858 201.885 284.916 98.8015 285.119 98.8015C285.322 98.8015 284.104 94.2239 278.41 96.7715L155.798 168.948C155.798 168.948 149.85 171.354 151.017 176.896C152.184 182.438 182.249 277.787 182.249 277.787C182.871 278.699 183.77 279.389 184.813 279.754C185.856 280.119 186.988 280.141 188.044 279.817C191.779 278.66 313.985 207.67 313.985 207.67C315.114 207.258 316.042 206.428 316.577 205.351C317.111 204.274 317.212 203.034 316.858 201.885V201.885Z" fill="#053855"/>
<path d="M283.079 106.282L157.534 179.464L183.568 266.896L310.738 195.876L283.079 106.282Z" fill="#5CABFF"/>
<path d="M324.724 219.333L352.85 236.842C353.349 237.152 353.759 237.586 354.04 238.102C354.32 238.619 354.462 239.199 354.451 239.786C354.439 240.374 354.276 240.948 353.976 241.453C353.675 241.959 353.249 242.377 352.738 242.668L251.786 300.218C250.277 301.088 248.565 301.547 246.823 301.547C245.081 301.547 243.369 301.088 241.86 300.218C235.364 296.432 224.199 289.622 217.358 285.43C216.745 285.057 216.241 284.531 215.893 283.904C215.546 283.277 215.367 282.571 215.375 281.854C215.383 281.137 215.578 280.435 215.94 279.816C216.302 279.197 216.818 278.683 217.439 278.325C237.861 266.449 304.475 227.707 319.05 219.252C319.914 218.747 320.899 218.488 321.899 218.503C322.899 218.517 323.876 218.804 324.724 219.333V219.333Z" fill="#5CABFF"/>
<path d="M323.212 266.895L287.941 286.728C287.405 287.034 286.959 287.474 286.647 288.006C286.335 288.538 286.168 289.142 286.163 289.759C286.158 290.375 286.315 290.982 286.618 291.519C286.921 292.056 287.36 292.504 287.89 292.818L308.626 304.998C309.339 305.411 310.148 305.628 310.971 305.628C311.794 305.628 312.603 305.411 313.316 304.998L349.409 284.424C349.851 284.164 350.218 283.794 350.472 283.348C350.727 282.903 350.861 282.4 350.861 281.887C350.861 281.374 350.727 280.87 350.472 280.425C350.218 279.98 349.851 279.609 349.409 279.349L327.84 266.916C327.137 266.511 326.34 266.297 325.529 266.293C324.717 266.289 323.919 266.497 323.212 266.895V266.895Z" fill="#5CABFF"/>
<path opacity="0.1" d="M324.724 219.333L352.85 236.842C353.349 237.152 353.759 237.586 354.04 238.102C354.32 238.619 354.462 239.199 354.451 239.786C354.439 240.374 354.276 240.948 353.976 241.453C353.675 241.959 353.249 242.377 352.738 242.668L251.786 300.218C250.277 301.088 248.565 301.547 246.823 301.547C245.081 301.547 243.369 301.088 241.86 300.218C235.364 296.432 224.199 289.622 217.358 285.43C216.745 285.057 216.241 284.531 215.893 283.904C215.546 283.277 215.367 282.571 215.375 281.854C215.383 281.137 215.578 280.435 215.94 279.816C216.302 279.197 216.818 278.683 217.439 278.325C237.861 266.449 304.475 227.707 319.05 219.252C319.914 218.747 320.899 218.488 321.899 218.503C322.899 218.517 323.876 218.804 324.724 219.333V219.333Z" fill="#053855"/>
<path opacity="0.1" d="M323.212 266.895L287.941 286.728C287.405 287.034 286.959 287.474 286.647 288.006C286.335 288.538 286.168 289.142 286.163 289.759C286.158 290.375 286.315 290.982 286.618 291.519C286.921 292.056 287.36 292.504 287.89 292.818L308.626 304.998C309.339 305.411 310.148 305.628 310.971 305.628C311.794 305.628 312.603 305.411 313.316 304.998L349.409 284.424C349.851 284.164 350.218 283.794 350.472 283.348C350.727 282.903 350.861 282.4 350.861 281.887C350.861 281.374 350.727 280.87 350.472 280.425C350.218 279.98 349.851 279.609 349.409 279.349L327.84 266.916C327.137 266.511 326.34 266.297 325.529 266.293C324.717 266.289 323.919 266.497 323.212 266.895V266.895Z" fill="#053855"/>
<path opacity="0.32" d="M261.561 262.978L300.212 287.907L322.339 273.108L282.744 253.498" fill="url(#paint2_linear)"/>
<path d="M179.731 212.695L261.946 164.776C262.24 164.606 262.568 164.504 262.907 164.48C263.245 164.456 263.585 164.51 263.899 164.637C264.214 164.765 264.495 164.962 264.721 165.215C264.947 165.468 265.113 165.769 265.205 166.096V166.096C265.335 166.567 265.306 167.068 265.122 167.522C264.939 167.975 264.611 168.355 264.19 168.603L182.188 217.089C181.897 217.261 181.57 217.363 181.233 217.389C180.897 217.415 180.558 217.364 180.244 217.24C179.93 217.115 179.649 216.921 179.421 216.672C179.193 216.422 179.025 216.124 178.93 215.8L178.767 215.242C178.623 214.771 178.639 214.265 178.813 213.803C178.988 213.342 179.311 212.952 179.731 212.695V212.695Z" fill="white"/>
<path d="M221.154 201.865L182.787 224.195C182.359 224.444 182.027 224.829 181.843 225.289C181.659 225.749 181.634 226.257 181.772 226.732L181.934 227.29C182.023 227.624 182.188 227.932 182.417 228.191C182.645 228.449 182.931 228.651 183.251 228.78C183.571 228.909 183.917 228.962 184.261 228.934C184.605 228.906 184.938 228.799 185.233 228.62L223.448 206.036C223.837 205.806 224.156 205.473 224.369 205.074C224.582 204.675 224.681 204.225 224.655 203.773V203.722C224.636 203.323 224.514 202.935 224.3 202.597C224.085 202.26 223.787 201.983 223.434 201.796C223.08 201.609 222.684 201.516 222.284 201.528C221.885 201.54 221.495 201.656 221.154 201.865Z" fill="white"/>
<path d="M266.068 176.327L227.701 198.657C227.273 198.907 226.941 199.292 226.757 199.751C226.573 200.211 226.548 200.719 226.686 201.195L226.848 201.753C226.943 202.077 227.111 202.375 227.339 202.624C227.567 202.874 227.849 203.068 228.163 203.192C228.477 203.316 228.815 203.367 229.152 203.341C229.489 203.315 229.815 203.213 230.106 203.042L268.321 180.458C268.711 180.228 269.029 179.895 269.242 179.496C269.455 179.097 269.554 178.646 269.529 178.195V178.144C269.5 177.754 269.372 177.378 269.157 177.051C268.943 176.724 268.648 176.457 268.302 176.276C267.956 176.094 267.569 176.003 267.178 176.012C266.787 176.021 266.405 176.13 266.068 176.327V176.327Z" fill="white"/>
<path d="M226.391 212.573L188.024 234.903C187.596 235.152 187.264 235.538 187.08 235.997C186.897 236.457 186.871 236.965 187.009 237.44L187.171 237.999C187.267 238.323 187.435 238.621 187.662 238.87C187.89 239.12 188.172 239.314 188.486 239.438C188.8 239.562 189.138 239.613 189.475 239.587C189.812 239.561 190.138 239.459 190.429 239.288L228.644 216.704C229.03 216.485 229.35 216.165 229.57 215.779C229.79 215.394 229.901 214.956 229.893 214.512V214.461C229.879 214.059 229.76 213.667 229.548 213.325C229.336 212.984 229.038 212.703 228.683 212.512C228.329 212.321 227.931 212.226 227.529 212.237C227.127 212.248 226.734 212.364 226.391 212.573Z" fill="white"/>
<path d="M277.973 167.689C281.279 170.536 283.778 174.2 285.22 178.316C287.768 185.34 281.404 196.83 281.404 196.83L271.508 189.004" fill="#FF8F6F"/>
<path d="M279.07 260.633L281.76 259.172L281.079 255.335C281.079 255.335 277.08 255.711 276.725 257.142" fill="#003B94"/>
<path d="M278.055 260.572C277.446 260.207 276.816 259.872 276.197 259.557C274.644 258.705 272.401 257.832 271.447 256.238C271.255 255.92 271.165 255.55 271.186 255.179C271.208 254.808 271.341 254.452 271.569 254.158C272.98 252.452 276.055 255.254 277.659 253.366C277.973 252.99 278.115 247.083 278.115 247.083L284.104 248.697C284.104 248.697 285.119 260.572 285.007 261.313C284.896 262.054 282.835 262.755 282.835 262.755C282.225 262.634 281.641 262.407 281.11 262.085C280.48 261.628 281.049 256.056 280.257 256.837C279.465 257.619 279.11 260.664 279.11 260.664C278.756 260.679 278.401 260.648 278.055 260.572V260.572Z" fill="#5CABFF"/>
<path d="M267.61 266.367L270.3 264.886L269.62 261.049C269.62 261.049 265.621 261.424 265.266 262.856" fill="#003B94"/>
<path d="M266.596 266.276C265.987 265.911 265.357 265.576 264.738 265.261C263.185 264.409 260.942 263.536 259.988 261.942C259.796 261.624 259.706 261.254 259.727 260.883C259.749 260.512 259.882 260.156 260.11 259.862C261.521 258.156 264.596 260.958 266.2 259.07C266.514 258.694 266.656 252.787 266.656 252.787L272.645 254.401C272.645 254.401 273.66 266.276 273.548 267.017C273.437 267.758 271.376 268.459 271.376 268.459C270.766 268.338 270.182 268.111 269.651 267.789C269.021 267.332 269.59 261.76 268.798 262.541C268.006 263.323 267.651 266.368 267.651 266.368C267.297 266.383 266.942 266.352 266.596 266.276Z" fill="#5CABFF"/>
<path d="M287.119 227.707L288.854 251.306C288.854 251.306 286.053 255.183 276.624 253.031L276.532 237.116" fill="#EE6300"/>
<path d="M276.197 232.427C276.4 234.457 276.197 256.868 276.197 256.868C276.197 256.868 273.588 261.75 262.241 256.868L262.373 237.857" fill="#EE6300"/>
<path d="M288.002 235.542C287.23 236.07 286.987 233.33 286.154 233.796C283.211 235.489 280.09 236.851 276.847 237.856H276.776C276.699 237.819 276.615 237.798 276.529 237.793C276.444 237.789 276.358 237.802 276.278 237.831C276.197 237.86 276.124 237.906 276.061 237.964C275.998 238.022 275.948 238.093 275.913 238.171C273.914 238.76 271.88 239.221 269.823 239.551C267.174 239.978 264.981 238.019 262.261 237.877C262.261 227.463 262.261 197.784 266.646 191.512L279.74 187.106C279.8 188.192 286.114 195.5 285.961 204.361C285.789 214.4 287.098 223.88 287.322 227.016C287.352 227.706 287.971 234.974 288.002 235.542Z" fill="#EE6300"/>
<path d="M265.418 179.585L266.626 191.542C266.626 191.542 276.421 191.938 280.643 189.025V178.875" fill="#FF8F6F"/>
<path d="M248.751 168.512L249.766 169.872C249.232 168.763 248.761 167.624 248.356 166.462C248.081 165.67 249.371 165.356 249.624 166.147L249.766 166.553C249.645 166.134 249.53 165.711 249.421 165.284C249.404 165.126 249.445 164.967 249.537 164.836C249.628 164.706 249.764 164.612 249.918 164.574C250.073 164.536 250.237 164.555 250.378 164.627C250.52 164.7 250.631 164.822 250.69 164.97C250.973 166.076 251.312 167.166 251.705 168.238C251.489 167.288 251.333 166.325 251.238 165.356C251.157 164.523 252.466 164.554 252.547 165.356C252.656 166.459 252.853 167.552 253.136 168.624C253.136 168.252 253.17 167.879 253.238 167.507C253.248 167.415 253.277 167.325 253.325 167.244C253.372 167.164 253.436 167.094 253.512 167.04C253.512 166.898 253.593 166.746 253.644 166.604C253.696 166.461 253.796 166.34 253.927 166.262C254.058 166.185 254.211 166.155 254.362 166.177C254.513 166.2 254.651 166.274 254.753 166.387C254.855 166.5 254.915 166.645 254.923 166.797L255.004 171.74C255.242 172.252 255.553 172.727 255.927 173.151C255.295 173.593 254.685 174.067 254.1 174.572C253.577 175.021 253.079 175.499 252.608 176.003C252.189 175.482 251.783 174.947 251.39 174.399C251.344 174.357 251.303 174.31 251.269 174.257C250.098 172.525 248.887 170.833 247.635 169.182C247.148 168.482 248.254 167.822 248.751 168.512Z" fill="#FFB5A9"/>
<path d="M269.478 166.34C269.478 166.34 264.85 167.588 262.982 170.583C261.808 172.642 260.774 174.779 259.886 176.977L256.476 171.669C256.476 171.669 252.335 172.937 250.68 174.977C250.68 174.977 255.603 185.736 259.886 186.65C264.17 187.563 268.717 180.276 268.717 180.276C268.717 180.276 269.661 183.321 269.478 180.073" fill="#FF8F6F"/>
<path d="M266.849 180.286C267.848 178.87 268.435 177.204 268.544 175.475C268.544 173.506 267.448 172.095 266.352 170.572C265.207 169.084 264.316 167.417 263.713 165.639C263.165 163.883 262.87 162.056 262.495 160.25C262.482 160.169 262.451 160.093 262.403 160.026C262.403 157.864 263.185 155.834 265.53 154.951C271.62 152.678 273.883 159.478 274.665 162.29C275.446 165.101 275.68 167.081 278.024 167.679C280.369 168.278 282.764 170.927 281.495 173.962C280.227 176.997 281.739 175.596 283.668 177.434C285.596 179.271 286.033 182.123 283.617 183.869C281.201 185.615 268.158 187.259 266.676 186.406C266.155 186.044 265.792 185.495 265.661 184.874C265.495 183.251 265.917 181.624 266.849 180.286V180.286Z" fill="#007F68"/>
<path d="M407.741 157.083L398.281 162.128L424.103 186.437L446.869 193.593L454.451 183.311" fill="#FFE8BC"/>
<path d="M443.388 188.426L452.168 183.422L407.741 157.083L408.787 156.474L454.451 183.31V251.853L444.494 257.517L440.688 253.558" fill="#5CABFF"/>
<path opacity="0.42" d="M443.388 188.426L452.168 183.422L407.741 157.083L408.787 156.474L454.451 183.31V251.853L444.494 257.517L440.688 253.558" fill="#1371A5"/>
<path d="M398.282 162.127L444.495 189.065V257.517L397.551 229.462L398.282 162.127Z" fill="#5CABFF"/>
<path d="M442.748 184.569L439.927 186.355V200.951L438.13 198.657L436.872 200.078V184.619L439.511 182.731L442.748 184.569Z" fill="#E85858"/>
<path d="M379.291 153.236L369.831 158.291L395.653 182.6L418.429 189.756L426.001 179.474" fill="#FFE8BC"/>
<path d="M414.937 184.579L423.717 179.585L379.291 153.236L380.336 152.637L426.001 179.473V248.006L416.044 253.68L412.237 249.711" fill="#5CABFF"/>
<path opacity="0.42" d="M414.937 184.579L423.717 179.585L379.291 153.236L380.336 152.637L426.001 179.473V248.006L416.044 253.68L412.237 249.711" fill="#1371A5"/>
<path d="M369.831 158.291L416.044 185.229V253.681L369.1 225.626L369.831 158.291Z" fill="#5CABFF"/>
<path d="M414.298 180.733L411.477 182.519V197.115L409.68 194.821L408.421 196.242V180.783L411.06 178.896L414.298 180.733Z" fill="#E85858"/>
<path d="M179.91 189.183L178.068 190.31L178.94 195.522L177.288 196.533L175.024 183.006L178.368 180.959C179.465 180.288 180.371 180.12 181.084 180.455C181.798 180.789 182.265 181.62 182.487 182.945C182.639 183.85 182.611 184.703 182.405 185.505C182.201 186.299 181.853 187.028 181.359 187.692L184.438 192.024L184.459 192.145L182.689 193.228L179.91 189.183ZM177.752 188.424L179.45 187.385C180.008 187.044 180.41 186.579 180.657 185.991C180.903 185.396 180.968 184.752 180.852 184.059C180.731 183.334 180.491 182.863 180.133 182.645C179.779 182.424 179.314 182.484 178.737 182.823L176.994 183.89L177.752 188.424ZM188.624 189.801C187.618 190.416 186.727 190.467 185.949 189.952C185.175 189.429 184.663 188.418 184.412 186.919L184.366 186.64C184.198 185.637 184.183 184.659 184.321 183.707C184.463 182.747 184.743 181.896 185.161 181.155C185.58 180.414 186.091 179.859 186.697 179.488C187.659 178.899 188.474 178.882 189.143 179.435C189.816 179.986 190.286 181.061 190.553 182.659L190.706 183.569L186.088 186.395C186.275 187.196 186.579 187.734 186.999 188.009C187.424 188.282 187.895 188.259 188.414 187.942C189.141 187.497 189.663 186.717 189.98 185.601L191.03 186.239C190.847 187.013 190.547 187.712 190.128 188.337C189.713 188.953 189.212 189.441 188.624 189.801ZM186.993 181.304C186.558 181.57 186.241 182.003 186.044 182.602C185.851 183.198 185.782 183.906 185.838 184.725L188.862 182.875L188.834 182.708C188.672 181.973 188.435 181.49 188.123 181.258C187.809 181.02 187.433 181.035 186.993 181.304ZM191.533 182.192C191.272 180.631 191.321 179.229 191.679 177.986C192.041 176.733 192.648 175.846 193.501 175.324C194.307 174.831 195.007 174.843 195.602 175.359L195.505 174.302L196.935 173.427L198.566 183.173C198.787 184.493 198.671 185.71 198.22 186.827C197.773 187.94 197.059 188.797 196.08 189.396C195.561 189.713 195.028 189.869 194.48 189.863C193.937 189.861 193.496 189.69 193.156 189.352L193.68 187.536C194.306 188.061 194.976 188.105 195.69 187.668C196.216 187.346 196.598 186.887 196.834 186.292C197.072 185.703 197.125 185.015 196.993 184.228L196.88 183.55C196.544 184.554 195.995 185.29 195.233 185.756C194.406 186.262 193.65 186.209 192.967 185.596C192.288 184.981 191.81 183.846 191.533 182.192ZM193.147 181.42C193.316 182.43 193.592 183.138 193.977 183.544C194.365 183.941 194.816 183.983 195.33 183.669C195.97 183.277 196.379 182.596 196.558 181.627L195.818 177.204C195.39 176.626 194.856 176.533 194.216 176.925C193.693 177.244 193.336 177.788 193.142 178.555C192.953 179.319 192.955 180.274 193.147 181.42ZM201.941 181.445L200.355 182.417L198.672 172.364L200.259 171.393L201.941 181.445ZM198.137 169.813C198.079 169.466 198.107 169.132 198.221 168.809C198.34 168.484 198.543 168.234 198.83 168.058C199.117 167.882 199.359 167.861 199.554 167.994C199.749 168.127 199.875 168.367 199.933 168.714C199.99 169.055 199.96 169.388 199.841 169.713C199.722 170.032 199.518 170.279 199.231 170.455C198.944 170.631 198.703 170.655 198.509 170.528C198.318 170.392 198.194 170.154 198.137 169.813ZM207.179 175.229C207.112 174.826 206.943 174.592 206.673 174.525C206.407 174.455 205.99 174.505 205.423 174.675C204.857 174.844 204.372 174.916 203.969 174.889C203.085 174.829 202.557 174.282 202.384 173.247C202.239 172.38 202.374 171.498 202.791 170.601C203.207 169.705 203.811 169.014 204.604 168.529C205.448 168.012 206.179 167.892 206.797 168.17C207.419 168.445 207.809 169.056 207.968 170.004L206.381 170.975C206.308 170.541 206.135 170.252 205.861 170.105C205.586 169.953 205.261 169.991 204.887 170.22C204.538 170.433 204.272 170.722 204.089 171.087C203.909 171.45 203.852 171.823 203.916 172.207C203.974 172.554 204.122 172.761 204.358 172.828C204.595 172.894 205.041 172.836 205.697 172.653C206.352 172.464 206.878 172.398 207.277 172.455C207.678 172.503 207.995 172.664 208.228 172.938C208.466 173.209 208.63 173.614 208.72 174.153C208.871 175.057 208.731 175.952 208.298 176.838C207.865 177.718 207.221 178.419 206.368 178.942C205.789 179.296 205.248 179.463 204.745 179.443C204.243 179.423 203.822 179.23 203.482 178.864C203.143 178.498 202.922 178.015 202.822 177.414L204.363 176.471C204.474 176.99 204.685 177.315 204.994 177.447C205.303 177.572 205.673 177.502 206.104 177.239C206.522 176.983 206.822 176.677 207.002 176.32C207.181 175.958 207.24 175.594 207.179 175.229ZM210.482 162.442L210.891 164.886L212.139 164.123L212.418 165.795L211.171 166.558L212.11 172.17C212.174 172.554 212.273 172.801 212.407 172.91C212.544 173.011 212.749 172.977 213.023 172.809C213.206 172.697 213.386 172.553 213.563 172.377L213.855 174.123C213.518 174.487 213.181 174.771 212.846 174.977C211.627 175.723 210.857 175.139 210.537 173.225L209.584 167.53L208.422 168.241L208.142 166.569L209.304 165.857L208.895 163.414L210.482 162.442ZM218.182 171.711C217.176 172.327 216.285 172.377 215.507 171.863C214.733 171.34 214.221 170.328 213.97 168.83L213.924 168.551C213.756 167.547 213.741 166.57 213.879 165.618C214.021 164.657 214.301 163.807 214.719 163.066C215.138 162.325 215.649 161.769 216.255 161.399C217.217 160.81 218.032 160.792 218.701 161.346C219.374 161.897 219.844 162.971 220.111 164.569L220.264 165.48L215.646 168.306C215.833 169.106 216.137 169.644 216.557 169.92C216.982 170.192 217.453 170.17 217.972 169.853C218.699 169.408 219.221 168.627 219.538 167.511L220.588 168.149C220.405 168.923 220.105 169.623 219.686 170.248C219.271 170.864 218.77 171.352 218.182 171.711ZM216.551 163.215C216.116 163.481 215.799 163.914 215.602 164.512C215.409 165.108 215.34 165.816 215.396 166.636L218.42 164.785L218.392 164.618C218.23 163.884 217.993 163.401 217.681 163.168C217.368 162.93 216.991 162.945 216.551 163.215ZM224.585 158.779C224.368 158.857 224.148 158.965 223.926 159.1C223.199 159.545 222.776 160.242 222.656 161.189L223.806 168.064L222.219 169.035L220.537 158.983L222.052 158.055L222.28 159.156C222.517 158.048 222.975 157.286 223.654 156.87C223.88 156.732 224.075 156.661 224.237 156.657L224.585 158.779Z" fill="white"/>
<path d="M279.909 136.856C282.28 143.125 280.656 149.491 276.299 151.044C271.943 152.596 266.461 148.8 264.091 142.536C261.72 136.272 263.344 129.9 267.701 128.348C272.057 126.795 277.539 130.586 279.909 136.856Z" fill="#9AFC39"/>
<path d="M266.528 141.772L267.346 139.377L270.583 142.41L273.875 133.023L276.366 134.227L271.853 146.766L266.528 141.772Z" fill="white"/>
</g>
<defs>
<filter id="filter0_d" x="0" y="0" width="591.677" height="469.083" filterUnits="userSpaceOnUse" color-interpolation-filters="sRGB">
<feFlood flood-opacity="0" result="BackgroundImageFix"/>
<feColorMatrix in="SourceAlpha" type="matrix" values="0 0 0 0 0 0 0 0 0 0 0 0 0 0 0 0 0 0 127 0"/>
<feOffset dx="2" dy="4"/>
<feGaussianBlur stdDeviation="50"/>
<feColorMatrix type="matrix" values="0 0 0 0 0.275 0 0 0 0 0.275 0 0 0 0 0.275 0 0 0 0.38 0"/>
<feBlend mode="normal" in2="BackgroundImageFix" result="effect1_dropShadow"/>
<feBlend mode="normal" in="SourceGraphic" in2="effect1_dropShadow" result="shape"/>
</filter>
<linearGradient id="paint0_linear" x1="455.121" y1="264.602" x2="431.198" y2="229.31" gradientUnits="userSpaceOnUse">
<stop stop-color="#2A8178"/>
<stop offset="1" stop-color="#0F2D2A"/>
</linearGradient>
<linearGradient id="paint1_linear" x1="46312.9" y1="24934.6" x2="44808.6" y2="21116.2" gradientUnits="userSpaceOnUse">
<stop stop-color="#8AC4BE"/>
<stop offset="1" stop-color="#4FAAA1"/>
</linearGradient>
<linearGradient id="paint2_linear" x1="300.273" y1="279.878" x2="288.327" y2="262.887" gradientUnits="userSpaceOnUse">
<stop stop-color="white" stop-opacity="0"/>
<stop offset="1" stop-color="#17619E"/>
</linearGradient>
</defs>
</svg>
