<svg width="48" height="48" viewBox="0 0 48 48" fill="none" xmlns="http://www.w3.org/2000/svg">
<circle cx="24" cy="24" r="24" fill="#7BEF45"/>
<path d="M24.4255 33.085C28.1858 33.085 31.234 30.0368 31.234 26.2765C31.234 22.5163 28.1858 19.468 24.4255 19.468C20.6653 19.468 17.617 22.5163 17.617 26.2765C17.617 30.0368 20.6653 33.085 24.4255 33.085Z" stroke="white" stroke-linecap="round" stroke-linejoin="round"/>
<path d="M21.7021 26.2765C21.7021 30.0368 22.9214 33.085 24.4255 33.085C25.9296 33.085 27.1489 30.0368 27.1489 26.2765C27.1489 22.5163 25.9296 19.468 24.4255 19.468C22.9214 19.468 21.7021 22.5163 21.7021 26.2765Z" stroke="white" stroke-linecap="round" stroke-linejoin="round"/>
<path d="M17.617 26.2766H31.234" stroke="white" stroke-linecap="round" stroke-linejoin="round"/>
<path d="M15.0073 29.5762L10.7383 31.7257" stroke="white"/>
<path d="M11.5094 31.3656C10.8132 29.8751 9.04051 29.2311 7.54996 29.9273C6.05943 30.6235 5.41545 32.3961 6.11162 33.8867C6.80779 35.3773 8.58047 36.0212 10.071 35.325C11.5616 34.6288 12.2055 32.8561 11.5094 31.3656Z" fill="white"/>
<path d="M32.8311 29.5762L37.1001 31.7257" stroke="white"/>
<path d="M36.329 31.3656C37.0252 29.8751 38.7979 29.2311 40.2884 29.9273C41.7789 30.6235 42.4229 32.3961 41.7267 33.8867C41.0306 35.3773 39.2579 36.0212 37.7674 35.325C36.2768 34.6288 35.6329 32.8561 36.329 31.3656Z" fill="white"/>
<path d="M15.0638 20.3192L9.87161 16.4067" stroke="white"/>
<path d="M10.5519 16.9181C11.5404 15.603 11.2756 13.7357 9.96058 12.7472C8.64554 11.7588 6.77819 12.0235 5.78974 13.3386C4.80129 14.6536 5.06605 16.521 6.3811 17.5094C7.69614 18.4978 9.56349 18.2331 10.5519 16.9181Z" fill="white"/>
<path d="M32.9341 20.3787L38.0979 16.4287" stroke="white"/>
<path d="M37.4226 16.9465C38.4237 18.2519 40.2935 18.4987 41.599 17.4976C42.9044 16.4965 43.1511 14.6267 42.1501 13.3213C41.149 12.0158 39.2792 11.7691 37.9738 12.7702C36.6683 13.7713 36.4215 15.641 37.4226 16.9465Z" fill="white"/>
<path d="M24.6383 16.0713V10.0986" stroke="white"/>
<path d="M24.8511 10.9574C26.4962 10.9574 27.8298 9.62383 27.8298 7.97872C27.8298 6.33362 26.4962 5 24.8511 5C23.206 5 21.8723 6.33362 21.8723 7.97872C21.8723 9.62383 23.206 10.9574 24.8511 10.9574Z" fill="white"/>
</svg>
