<svg width="48" height="48" viewBox="0 0 48 48" fill="none" xmlns="http://www.w3.org/2000/svg">
<circle cx="24" cy="24" r="24" fill="#45EF9D"/>
<path d="M34.2422 35.6843L27.3984 29.989H18V34.489C18 34.9108 17.8516 35.2663 17.5547 35.5554C17.2578 35.8444 16.9062 35.989 16.5 35.989H15C14.5781 35.989 14.2227 35.8444 13.9336 35.5554C13.6445 35.2663 13.5 34.9108 13.5 34.489V29.989C13.0781 29.989 12.7227 29.8444 12.4336 29.5554C12.1445 29.2663 12 28.9108 12 28.489V19.489C12 19.0671 12.1445 18.7116 12.4336 18.4226C12.7227 18.1335 13.0781 17.989 13.5 17.989H27.3984L34.2422 12.2937C34.4141 12.1062 34.6445 12.0085 34.9336 12.0007C35.2227 11.9929 35.4727 12.0515 35.6836 12.1765C35.8945 12.3015 36 12.4577 36 12.6452V35.3562C36 35.5437 35.8945 35.6999 35.6836 35.8249C35.4727 35.9499 35.2227 36.0046 34.9336 35.989C34.6445 35.9733 34.4141 35.8718 34.2422 35.6843ZM23.25 17.989H20.25C20.4531 17.989 20.6289 18.0632 20.7773 18.2116C20.9258 18.3601 21 18.5358 21 18.739V29.239C21 29.4421 20.9258 29.6179 20.7773 29.7663C20.6289 29.9148 20.4531 29.989 20.25 29.989H23.25C23.0312 29.989 22.8516 29.9148 22.7109 29.7663C22.5703 29.6179 22.5 29.4421 22.5 29.239V18.739C22.5 18.5358 22.5703 18.3601 22.7109 18.2116C22.8516 18.0632 23.0312 17.989 23.25 17.989Z" fill="white"/>
</svg>
