<svg width="48" height="48" viewBox="0 0 48 48" fill="none" xmlns="http://www.w3.org/2000/svg">
<circle cx="24" cy="24" r="24" fill="#4589EF"/>
<path d="M14.9924 31.8847H17.9847C19.6374 31.8847 20.9771 33.2244 20.9771 34.877V35.8781C20.9771 36.0108 20.9284 36.1388 20.8401 36.2379C20.7519 36.3369 20.6303 36.4001 20.4985 36.4153L19.4514 36.5364C19.1653 36.5695 18.8852 36.6427 18.6195 36.7538C18.6195 36.7538 18.6195 36.7538 18.6195 36.7538C17.9428 37.0367 17.2167 37.1827 16.4833 37.1835C15.7498 37.1842 15.0235 37.0397 14.3462 36.7582L14.339 36.7552C14.0617 36.6399 13.7696 36.564 13.4713 36.5296L12.4789 36.4152C12.347 36.4 12.2254 36.3368 12.1371 36.2378C12.0488 36.1387 12 36.0106 12 35.8779V34.877C12 33.2244 13.3397 31.8847 14.9924 31.8847V31.8847ZM16.4186 23.9003H16.5585C17.7747 23.9003 18.7486 24.9087 18.7063 26.1242L18.6363 28.1352C18.5961 29.2923 17.6464 30.2096 16.4886 30.2096C15.3308 30.2096 14.381 29.2923 14.3408 28.1352L14.2708 26.1242C14.2286 24.9087 15.2024 23.9003 16.4186 23.9003ZM30.0153 31.5981H33.0076C34.6603 31.5981 36 32.9378 36 34.5905V35.5915C36 35.7242 35.9513 35.8523 35.863 35.9513C35.7748 36.0504 35.6532 36.1135 35.5214 36.1288L34.4743 36.2499C34.1882 36.283 33.9081 36.3561 33.6424 36.4672C32.9657 36.7501 32.2396 36.8962 31.5062 36.8969C30.7727 36.8977 30.0464 36.7531 29.3691 36.4716L29.3619 36.4687C29.0846 36.3534 28.7925 36.2774 28.4942 36.2431L27.5017 36.1286C27.3699 36.1134 27.2483 36.0503 27.16 35.9512C27.0717 35.8522 27.0229 35.7241 27.0229 35.5914V34.5905C27.0229 32.9378 28.3626 31.5981 30.0153 31.5981V31.5981ZM31.4415 23.6138H31.5814C32.7976 23.6138 33.7714 24.6221 33.7292 25.8376L33.6592 27.8486C33.619 29.0058 32.6692 29.9231 31.5114 29.9231C30.3536 29.9231 29.4039 29.0058 29.3637 27.8486L29.2937 25.8376C29.2514 24.6221 30.2253 23.6138 31.4415 23.6138Z" stroke="white" stroke-width="1.5" stroke-linecap="round" stroke-linejoin="round"/>
<path d="M23.7319 20.5472L20.7866 23.4529L17.9196 20.5472H14.1736C13.6999 20.5472 13.3158 20.1631 13.3158 19.6894V13.6457C13.3158 13.1719 13.6999 12.7878 14.1736 12.7878H27.5256C27.9994 12.7878 28.3835 13.1719 28.3835 13.6457V19.6894C28.3835 20.1631 27.9994 20.5472 27.5256 20.5472H23.7319Z" stroke="#E2F0FF" stroke-width="1.5" stroke-linecap="round" stroke-linejoin="round"/>
<path d="M30.3624 18.0273L30.392 21.0334L24.3492 18.0273H20.4738C19.9837 18.0273 19.5863 17.63 19.5863 17.1399V10.8874C19.5863 10.3973 19.9837 10 20.4738 10H34.2871C34.7773 10 35.1746 10.3973 35.1746 10.8874V17.1399C35.1746 17.63 34.7773 18.0273 34.2871 18.0273H30.3624Z" stroke="white" stroke-width="1.5" stroke-linecap="round" stroke-linejoin="round"/>
</svg>
