<svg width="48" height="48" viewBox="0 0 48 48" fill="none" xmlns="http://www.w3.org/2000/svg">
<circle cx="24" cy="24" r="24" fill="#EFA145"/>
<path d="M12.8571 28.7144L35.1429 28.7144C35.6162 28.7144 36 28.3306 36 27.8572V15.8572C36 15.3838 35.6162 15.0001 35.1429 15.0001L12.8571 15.0001C12.3838 15.0001 12 15.3838 12 15.8572V27.8572C12 28.3306 12.3838 28.7144 12.8571 28.7144Z" stroke="white" stroke-width="1.5" stroke-linejoin="round"/>
<path d="M15.4286 33.8571H32.5714M13.7143 31.2856H34.2857H13.7143Z" stroke="white" stroke-width="1.5" stroke-linecap="round" stroke-linejoin="round"/>
<path d="M24 26.143C26.3669 26.143 28.2857 24.2242 28.2857 21.8572C28.2857 19.4903 26.3669 17.5715 24 17.5715C21.6331 17.5715 19.7143 19.4903 19.7143 21.8572C19.7143 24.2242 21.6331 26.143 24 26.143Z" stroke="white" stroke-width="1.5" stroke-linecap="round" stroke-linejoin="round"/>
<path d="M12 24.4286C12.5628 24.4286 13.1201 24.5394 13.6401 24.7548C14.16 24.9702 14.6325 25.2859 15.0305 25.6838C15.4284 26.0818 15.7441 26.5542 15.9595 27.0742C16.1749 27.5942 16.2857 28.1515 16.2857 28.7143M36 19.2857C34.8634 19.2857 33.7733 18.8342 32.9695 18.0305C32.1658 17.2267 31.7143 16.1366 31.7143 15L36 19.2857ZM12 19.2857C12.5628 19.2857 13.1201 19.1749 13.6401 18.9595C14.16 18.7441 14.6325 18.4284 15.0305 18.0305C15.4284 17.6325 15.7441 17.16 15.9595 16.6401C16.1749 16.1201 16.2857 15.5628 16.2857 15L12 19.2857ZM36 24.4286C34.8634 24.4286 33.7733 24.8801 32.9695 25.6838C32.1658 26.4876 31.7143 27.5776 31.7143 28.7143L36 24.4286Z" stroke="white" stroke-width="1.5" stroke-linecap="round" stroke-linejoin="round"/>
</svg>
