<svg width="48" height="48" viewBox="0 0 48 48" fill="none" xmlns="http://www.w3.org/2000/svg">
<circle cx="24" cy="24" r="24" fill="#EF4545"/>
<path d="M26.3466 25.9462C26.2447 25.5281 26.0053 25.1564 25.6669 24.8905C25.3285 24.6247 24.9107 24.4802 24.4803 24.4802H13.9201L13.776 24.486C13.2933 24.5225 12.8421 24.74 12.5128 25.095C12.1834 25.4499 12.0003 25.9161 12 26.4003V28.8003L12.0048 29.0384C12.1642 32.8824 16.1771 34.0805 19.2002 34.0805C20.4962 34.0805 21.9727 33.8597 23.2505 33.3067L22.0927 32.1479C21.7779 31.8329 21.6011 31.4058 21.6011 30.9604C21.6011 30.515 21.7779 30.0879 22.0927 29.7728L25.4528 26.4128C25.7053 26.1593 26.0192 26.0038 26.3457 25.9462H26.3466Z" fill="white"/>
<path d="M27.3441 29.2727L27.8279 28.7879C28.0195 28.5963 28.162 28.3612 28.2431 28.1027C28.3242 27.8442 28.3416 27.5699 28.2938 27.3032C28.246 27.0365 28.1344 26.7854 27.9685 26.5711C27.8027 26.3569 27.5874 26.186 27.3412 26.0729C27.2775 25.5427 27.0667 25.0408 26.7325 24.6242L26.6116 24.4812L33.1205 24.4802C34.1324 24.4802 34.9619 25.2636 35.0348 26.2563L35.0406 26.4003V28.3443L33.1081 26.4128C32.9537 26.2499 32.7682 26.1197 32.5627 26.0297C32.3571 25.9397 32.1356 25.8918 31.9113 25.8888C31.6869 25.8859 31.4642 25.9279 31.2564 26.0123C31.0485 26.0968 30.8596 26.2221 30.701 26.3808C30.5423 26.5394 30.417 26.7283 30.3326 26.9361C30.2481 27.144 30.2061 27.3667 30.2091 27.5911C30.212 27.8154 30.2599 28.0369 30.3499 28.2425C30.4399 28.448 30.5701 28.6335 30.733 28.7879L31.2245 29.2804H27.3441V29.2727Z" fill="white"/>
<path d="M27.3364 32.6406H27.3604V32.6646L27.3364 32.6406Z" fill="white"/>
<path d="M24.4804 17.2801C24.4803 16.5867 24.3437 15.9 24.0782 15.2594C23.8128 14.6187 23.4238 14.0366 22.9334 13.5463C22.443 13.056 21.8608 12.6671 21.2201 12.4018C20.5794 12.1365 19.8927 11.9999 19.1993 12C18.5058 12.0001 17.8191 12.1367 17.1785 12.4021C16.5378 12.6676 15.9558 13.0566 15.4654 13.547C14.9751 14.0374 14.5862 14.6196 14.3209 15.2603C14.0556 15.901 13.9191 16.5876 13.9191 17.2811C13.9193 18.6816 14.4757 20.0247 15.4661 21.0149C16.4565 22.0051 17.7997 22.5614 19.2002 22.5612C20.6007 22.5611 21.9438 22.0046 22.934 21.0142C23.9243 20.0238 24.4805 18.6806 24.4804 17.2801Z" fill="white"/>
<path d="M34.0806 18.2403C34.0806 17.0945 33.6254 15.9957 32.8153 15.1855C32.0051 14.3753 30.9062 13.9202 29.7605 13.9202C28.6147 13.9202 27.5159 14.3753 26.7057 15.1855C25.8955 15.9957 25.4404 17.0945 25.4404 18.2403C25.4404 19.386 25.8955 20.4849 26.7057 21.2951C27.5159 22.1052 28.6147 22.5604 29.7605 22.5604C30.9062 22.5604 32.0051 22.1052 32.8153 21.2951C33.6254 20.4849 34.0806 19.386 34.0806 18.2403Z" fill="white"/>
<path d="M27.1492 28.1093C27.2199 28.0434 27.2767 27.9639 27.316 27.8756C27.3554 27.7873 27.3765 27.6919 27.3783 27.5953C27.38 27.4986 27.3622 27.4026 27.326 27.3129C27.2898 27.2233 27.2358 27.1418 27.1675 27.0734C27.0991 27.0051 27.0177 26.9512 26.928 26.915C26.8384 26.8787 26.7423 26.861 26.6456 26.8627C26.549 26.8644 26.4536 26.8855 26.3653 26.9249C26.277 26.9642 26.1975 27.021 26.1316 27.0917L22.7715 30.4518C22.6366 30.5868 22.5609 30.7698 22.5609 30.9606C22.5609 31.1514 22.6366 31.3344 22.7715 31.4694L26.1316 34.8295C26.1975 34.9003 26.277 34.957 26.3653 34.9964C26.4536 35.0357 26.549 35.0569 26.6456 35.0586C26.7423 35.0603 26.8384 35.0425 26.928 35.0063C27.0177 34.9701 27.0991 34.9162 27.1675 34.8478C27.2358 34.7794 27.2898 34.698 27.326 34.6083C27.3622 34.5187 27.38 34.4226 27.3783 34.326C27.3765 34.2293 27.3554 34.1339 27.316 34.0456C27.2767 33.9573 27.2199 33.8778 27.1492 33.8119L25.0179 31.6806H33.543L31.4117 33.8119C31.341 33.8778 31.2842 33.9573 31.2449 34.0456C31.2055 34.1339 31.1844 34.2293 31.1827 34.326C31.181 34.4226 31.1987 34.5187 31.235 34.6083C31.2712 34.698 31.3251 34.7794 31.3934 34.8478C31.4618 34.9162 31.5433 34.9701 31.6329 35.0063C31.7226 35.0425 31.8186 35.0603 31.9153 35.0586C32.0119 35.0569 32.1073 35.0357 32.1956 34.9964C32.2839 34.957 32.3634 34.9003 32.4293 34.8295L35.7894 31.4694C35.9243 31.3344 36 31.1514 36 30.9606C36 30.7698 35.9243 30.5868 35.7894 30.4518L32.4293 27.0917C32.3634 27.021 32.2839 26.9642 32.1956 26.9249C32.1073 26.8855 32.0119 26.8644 31.9153 26.8627C31.8186 26.861 31.7226 26.8787 31.6329 26.915C31.5433 26.9512 31.4618 27.0051 31.3934 27.0734C31.3251 27.1418 31.2712 27.2233 31.235 27.3129C31.1987 27.4026 31.181 27.4986 31.1827 27.5953C31.1844 27.6919 31.2055 27.7873 31.2449 27.8756C31.2842 27.9639 31.341 28.0434 31.4117 28.1093L33.543 30.2406H25.0179L27.1492 28.1093Z" fill="white"/>
</svg>
