<svg width="48" height="48" viewBox="0 0 48 48" fill="none" xmlns="http://www.w3.org/2000/svg">
<circle cx="24" cy="24" r="24" fill="#4589EF"/>
<path d="M20.6806 35.0423L22.7232 32.9997H29.872L35.489 25.3402L33.4465 23.8083L29.3614 27.8934H19.6594L16.5956 30.9572L20.6806 35.0423Z" fill="white"/>
<path d="M16.0845 29.936L12.5103 33.5103L18.1271 39.1271L21.7013 35.5528L16.0845 29.936Z" fill="white"/>
<path d="M20.425 34.2763L16.8507 37.8506L18.1275 39.1273L21.7017 35.5531L20.425 34.2763Z" fill="white"/>
<path d="M25.787 29.9361V27.8936H26.8082V30.9574H22.7232V29.9361H25.787Z" fill="white"/>
<path d="M15.5743 35.0424L17.1062 33.5105L18.6381 35.0424H15.5743Z" fill="white"/>
<path d="M25 7V10.5744" stroke="white" stroke-linejoin="round"/>
<path d="M21 6V9.57443" stroke="white" stroke-linejoin="round"/>
<path d="M29 6V9.57443" stroke="white" stroke-linejoin="round"/>
<path d="M35.7954 24.9318L33.7529 23.3999C33.6545 23.3262 33.5329 23.2904 33.4103 23.2991C33.2877 23.3079 33.1724 23.3605 33.0855 23.4474L29.15 27.3829H19.6594C19.524 27.3829 19.3941 27.4367 19.2984 27.5325L16.8509 29.98L16.446 29.575C16.3502 29.4793 16.2204 29.4255 16.085 29.4255C15.9496 29.4255 15.8197 29.4793 15.7239 29.575L12.1495 33.1495C12.0538 33.2452 12 33.3751 12 33.5105C12 33.6459 12.0538 33.7757 12.1495 33.8715L17.7665 39.4885C17.8622 39.5842 17.9921 39.638 18.1275 39.638C18.2629 39.638 18.3927 39.5842 18.4885 39.4885L22.0629 35.914C22.1587 35.8183 22.2124 35.6884 22.2124 35.553C22.2124 35.4176 22.1587 35.2877 22.0629 35.192L21.658 34.7871L22.9346 33.5105H29.8721C29.9523 33.5106 30.0314 33.4917 30.103 33.4555C30.1746 33.4193 30.2366 33.3668 30.2841 33.3021L35.9011 25.6426C35.9807 25.5341 36.0142 25.3986 35.9944 25.2655C35.9747 25.1324 35.9031 25.0125 35.7954 24.9318V24.9318ZM18.1275 38.4054L13.2326 33.5105L16.085 30.6581L20.9799 35.553L18.1275 38.4054ZM29.6132 32.4892H22.7232C22.5878 32.4892 22.4579 32.543 22.3622 32.6388L20.936 34.065L17.5729 30.702L19.8708 28.4041H26.2976V30.4467H22.7232V31.4679H26.8083C26.9437 31.4679 27.0736 31.4141 27.1693 31.3184C27.2651 31.2226 27.3189 31.0927 27.3189 30.9573V28.4041H29.3614C29.4968 28.4041 29.6267 28.3503 29.7224 28.2545L33.4945 24.4825L34.7782 25.4455L29.6132 32.4892Z" fill="white"/>
<path d="M25 14C24.0111 14 23.0444 14.2932 22.2222 14.8427C21.3999 15.3921 20.759 16.173 20.3806 17.0866C20.0022 18.0002 19.9031 19.0055 20.0961 19.9755C20.289 20.9454 20.7652 21.8363 21.4645 22.5355C22.1637 23.2348 23.0546 23.711 24.0245 23.9039C24.9945 24.0969 25.9998 23.9978 26.9134 23.6194C27.827 23.241 28.6079 22.6001 29.1573 21.7778C29.7068 20.9556 30 19.9889 30 19C30 17.6739 29.4732 16.4021 28.5355 15.4645C27.5979 14.5268 26.3261 14 25 14ZM26.8375 16.8125H27.5C27.5829 16.8125 27.6624 16.8454 27.721 16.904C27.7796 16.9626 27.8125 17.0421 27.8125 17.125C27.8125 17.2079 27.7796 17.2874 27.721 17.346C27.6624 17.4046 27.5829 17.4375 27.5 17.4375H26.9563V17.4969C26.9608 17.7473 26.9159 17.9962 26.824 18.2293C26.7322 18.4623 26.5952 18.6749 26.421 18.8549C26.2468 19.0349 26.0388 19.1788 25.8089 19.2782C25.579 19.3776 25.3317 19.4307 25.0813 19.4344H24.4563L26.5875 21.9531C26.6546 22.0323 26.6876 22.1349 26.6791 22.2383C26.6706 22.3417 26.6213 22.4376 26.5422 22.5047C26.463 22.5718 26.3605 22.6048 26.257 22.5963C26.1536 22.5878 26.0578 22.5385 25.9906 22.4594L23.3219 19.2937C23.2726 19.236 23.2413 19.1651 23.2317 19.0898C23.222 19.0145 23.2346 18.938 23.2677 18.8697C23.3009 18.8014 23.3532 18.7443 23.4183 18.7053C23.4834 18.6662 23.5585 18.647 23.6344 18.65H25.1063C25.4033 18.641 25.6846 18.5145 25.8885 18.2984C26.0924 18.0822 26.2022 17.7939 26.1938 17.4969V17.4344H23.3813C23.2984 17.4344 23.2189 17.4015 23.1603 17.3428C23.1017 17.2842 23.0688 17.2048 23.0688 17.1219C23.0688 17.039 23.1017 16.9595 23.1603 16.9009C23.2189 16.8423 23.2984 16.8094 23.3813 16.8094H25.9813C25.885 16.667 25.7557 16.55 25.6044 16.4683C25.4532 16.3867 25.2844 16.3429 25.1125 16.3406H23.3594C23.2558 16.3406 23.1564 16.2995 23.0832 16.2262C23.0099 16.153 22.9688 16.0536 22.9688 15.95C22.9688 15.8464 23.0099 15.747 23.0832 15.6738C23.1564 15.6005 23.2558 15.5594 23.3594 15.5594H27.5C27.5829 15.5594 27.6624 15.5923 27.721 15.6509C27.7796 15.7095 27.8125 15.789 27.8125 15.8719C27.8125 15.9548 27.7796 16.0342 27.721 16.0928C27.6624 16.1515 27.5829 16.1844 27.5 16.1844H26.4625C26.6261 16.3682 26.7533 16.5813 26.8375 16.8125Z" fill="white"/>
</svg>
